<?xml version="1.0" encoding="UTF-8"?>
<svg xmlns="http://www.w3.org/2000/svg" xmlns:xlink="http://www.w3.org/1999/xlink" width="477.333333" height="312" viewBox="0 0 477.333333 312" version="1.1">
<g id="surface1">
<path style=" stroke:none;fill-rule:nonzero;fill:rgb(0%,0%,0%);fill-opacity:1;" d="M 128.101562 11.378906 L 124.640625 11.378906 L 124.640625 20.503906 L 125.496094 20.503906 L 125.496094 19.421875 L 127.265625 19.421875 L 127.265625 20.210938 L 128.101562 20.210938 Z M 125.496094 18.609375 L 125.496094 15.710938 L 127.265625 15.710938 L 127.265625 18.609375 Z M 125.496094 14.921875 L 125.496094 12.171875 L 127.265625 12.171875 L 127.265625 14.921875 Z M 129.828125 14.941406 L 129.121094 15.398438 C 129.851562 16.503906 130.414062 17.503906 130.828125 18.398438 L 131.539062 17.898438 C 131.140625 17.066406 130.578125 16.066406 129.828125 14.941406 Z M 132.558594 21.359375 C 133.308594 21.359375 133.683594 20.960938 133.683594 20.210938 L 133.683594 13.503906 L 135.164062 13.503906 L 135.164062 12.671875 L 133.683594 12.671875 L 133.683594 10.566406 L 132.808594 10.566406 L 132.808594 12.671875 L 128.664062 12.671875 L 128.664062 13.503906 L 132.808594 13.503906 L 132.808594 20.003906 C 132.808594 20.378906 132.621094 20.566406 132.289062 20.566406 C 131.640625 20.566406 130.976562 20.546875 130.289062 20.523438 L 130.476562 21.359375 Z M 132.558594 21.359375 "/>
<path style=" stroke:none;fill-rule:nonzero;fill:rgb(0%,0%,0%);fill-opacity:1;" d="M 139.328125 13.734375 L 139.328125 19.316406 L 143.890625 19.316406 L 143.890625 13.734375 Z M 143.101562 18.546875 L 140.140625 18.546875 L 140.140625 16.898438 L 143.101562 16.898438 Z M 140.140625 16.128906 L 140.140625 14.484375 L 143.101562 14.484375 L 143.101562 16.128906 Z M 145.246094 21.378906 C 146.039062 21.378906 146.453125 20.941406 146.453125 20.109375 L 146.453125 11.066406 L 140.953125 11.066406 L 140.953125 11.878906 L 145.621094 11.878906 L 145.621094 19.859375 C 145.621094 20.335938 145.414062 20.609375 145.058594 20.609375 L 144.015625 20.566406 L 144.226562 21.378906 Z M 136.851562 12.460938 L 136.851562 21.484375 L 137.683594 21.484375 L 137.683594 12.460938 Z M 138.601562 10.359375 L 137.808594 10.710938 C 138.328125 11.359375 138.828125 12.109375 139.289062 12.941406 L 140.058594 12.523438 C 139.640625 11.734375 139.140625 11.023438 138.601562 10.359375 Z M 138.601562 10.359375 "/>
<path style=" stroke:none;fill-rule:nonzero;fill:rgb(0%,0%,0%);fill-opacity:1;" d="M 153.289062 10.441406 L 153.289062 14.378906 L 151.039062 14.378906 L 151.039062 11.378906 L 150.164062 11.378906 L 150.164062 14.378906 L 148.328125 14.378906 L 148.328125 15.234375 L 153.371094 15.234375 L 153.371094 18.835938 L 154.226562 18.835938 L 154.226562 15.234375 L 158.996094 15.234375 L 158.996094 14.378906 L 154.164062 14.378906 L 154.164062 12.734375 L 157.808594 12.734375 L 157.808594 11.898438 L 154.164062 11.898438 L 154.164062 10.441406 Z M 157.203125 16.109375 C 155.890625 19.148438 153.140625 20.691406 148.996094 20.691406 L 149.308594 21.523438 C 153.578125 21.503906 156.476562 19.835938 157.996094 16.523438 Z M 151.203125 15.753906 C 150.515625 16.816406 149.664062 17.734375 148.640625 18.523438 L 149.183594 19.234375 C 150.226562 18.398438 151.101562 17.421875 151.828125 16.316406 Z M 151.203125 15.753906 "/>
<path style=" stroke:none;fill-rule:nonzero;fill:rgb(0%,0%,0%);fill-opacity:1;" d="M 167.476562 20.273438 L 166.414062 20.273438 L 166.414062 13.546875 C 166.164062 13.796875 165.828125 14.046875 165.414062 14.296875 C 164.996094 14.535156 164.625 14.707031 164.308594 14.816406 L 164.308594 13.796875 C 164.890625 13.535156 165.402344 13.207031 165.851562 12.816406 C 166.292969 12.414062 166.605469 12.023438 166.789062 11.648438 L 167.476562 11.648438 Z M 167.476562 20.273438 "/>
<path style=" stroke:none;fill-rule:nonzero;fill:rgb(0%,0%,0%);fill-opacity:1;" d="M 137.5625 27.796875 C 137.042969 29.648438 136.207031 31.296875 135.082031 32.734375 L 135.355469 33.648438 C 135.792969 33.148438 136.167969 32.648438 136.519531 32.085938 L 136.519531 38.835938 L 137.332031 38.835938 L 137.332031 30.691406 C 137.730469 29.898438 138.0625 29.046875 138.332031 28.148438 Z M 138.355469 29.984375 L 138.355469 37.066406 L 139.144531 37.066406 L 139.144531 29.984375 Z M 139.6875 30.503906 L 139.6875 31.273438 L 145.8125 31.273438 L 145.8125 30.503906 L 144.582031 30.503906 L 144.582031 28.316406 L 140.25 28.316406 L 140.25 29.085938 L 143.730469 29.085938 L 143.730469 30.503906 Z M 141.019531 33.253906 L 142.355469 33.253906 L 142.355469 33.378906 C 142.355469 33.835938 142.292969 34.273438 142.207031 34.710938 L 139.644531 34.710938 L 139.644531 35.460938 L 141.980469 35.460938 C 141.5 36.691406 140.519531 37.585938 139.042969 38.148438 L 139.582031 38.859375 C 141.082031 38.210938 142.125 37.210938 142.6875 35.859375 C 143.292969 36.941406 144.269531 37.921875 145.605469 38.816406 L 146.167969 38.109375 C 144.792969 37.316406 143.832031 36.441406 143.269531 35.460938 L 146.019531 35.460938 L 146.019531 34.710938 L 143.042969 34.710938 C 143.125 34.253906 143.167969 33.773438 143.1875 33.253906 L 145.519531 33.253906 L 145.519531 32.484375 L 141.417969 32.484375 C 141.519531 32.234375 141.644531 31.960938 141.75 31.710938 L 141.019531 31.546875 C 140.644531 32.460938 140.207031 33.234375 139.625 33.796875 L 140.144531 34.421875 C 140.457031 34.085938 140.769531 33.691406 141.019531 33.253906 Z M 141.019531 33.253906 "/>
<path style=" stroke:none;fill-rule:nonzero;fill:rgb(0%,0%,0%);fill-opacity:1;" d="M 148.1875 28.003906 L 147.582031 28.566406 C 148.4375 29.234375 149.125 29.859375 149.605469 30.460938 L 150.207031 29.859375 C 149.644531 29.253906 148.980469 28.628906 148.1875 28.003906 Z M 155.144531 38.585938 L 157.9375 38.585938 L 158.144531 37.734375 C 157.832031 37.753906 157.375 37.753906 156.792969 37.773438 C 156.1875 37.796875 155.605469 37.796875 155.019531 37.796875 C 154.105469 37.796875 153.3125 37.796875 152.6875 37.773438 C 151.957031 37.753906 151.417969 37.648438 151.042969 37.484375 C 150.707031 37.335938 150.394531 37.085938 150.105469 36.734375 C 150.019531 36.628906 149.917969 36.523438 149.8125 36.460938 L 149.8125 31.960938 L 147.3125 31.960938 L 147.3125 32.753906 L 149.019531 32.753906 L 149.019531 36.398438 C 148.519531 36.628906 147.957031 37.253906 147.3125 38.273438 L 147.957031 38.859375 C 148.625 37.734375 149.105469 37.171875 149.394531 37.171875 C 149.542969 37.171875 149.707031 37.273438 149.875 37.484375 C 150.25 37.898438 150.667969 38.210938 151.125 38.359375 C 151.605469 38.484375 152.25 38.566406 153.019531 38.566406 C 153.792969 38.585938 154.5 38.585938 155.144531 38.585938 Z M 154.125 27.773438 L 154.125 29.296875 L 152.542969 29.296875 C 152.6875 28.921875 152.8125 28.523438 152.9375 28.109375 L 152.105469 27.941406 C 151.8125 29.023438 151.355469 30.003906 150.707031 30.921875 L 151.457031 31.378906 C 151.707031 31.003906 151.957031 30.585938 152.167969 30.128906 L 154.125 30.128906 L 154.125 31.859375 L 151 31.859375 L 151 32.691406 L 152.9375 32.691406 C 152.894531 33.441406 152.769531 34.085938 152.5625 34.609375 C 152.25 35.335938 151.625 35.921875 150.644531 36.398438 L 151.207031 37.085938 C 152.332031 36.503906 153.082031 35.753906 153.394531 34.835938 C 153.582031 34.234375 153.707031 33.523438 153.75 32.691406 L 154.957031 32.691406 L 154.957031 36.085938 C 154.957031 36.359375 155.019531 36.566406 155.207031 36.753906 C 155.355469 36.921875 155.582031 37.003906 155.894531 37.003906 L 156.75 37.003906 C 157.167969 36.984375 157.457031 36.878906 157.625 36.710938 C 157.8125 36.523438 157.9375 35.941406 158 34.941406 L 157.25 34.691406 C 157.207031 35.546875 157.105469 36.023438 156.957031 36.128906 C 156.875 36.210938 156.75 36.234375 156.582031 36.234375 L 156.144531 36.234375 C 155.875 36.234375 155.769531 36.128906 155.769531 35.898438 L 155.769531 32.691406 L 157.769531 32.691406 L 157.769531 31.859375 L 154.957031 31.859375 L 154.957031 30.128906 L 157.355469 30.128906 L 157.355469 29.296875 L 154.957031 29.296875 L 154.957031 27.773438 Z M 154.125 27.773438 "/>
<path style=" stroke:none;fill-rule:nonzero;fill:rgb(0%,0%,0%);fill-opacity:1;" d="M 8.8125 189.042969 L 8.8125 178.082031 L 11.144531 178.082031 L 11.144531 178.957031 L 9.875 178.957031 L 9.875 188.1875 L 11.144531 188.1875 L 11.144531 189.042969 Z M 8.8125 189.042969 "/>
<path style=" stroke:none;fill-rule:nonzero;fill:rgb(0%,0%,0%);fill-opacity:1;" d="M 13.894531 189.042969 L 11.5625 189.042969 L 11.5625 188.1875 L 12.832031 188.1875 L 12.832031 178.957031 L 11.5625 178.957031 L 11.5625 178.082031 L 13.894531 178.082031 Z M 13.894531 189.042969 "/>
<path style="fill-rule:nonzero;fill:rgb(69.803923%,85.09804%,100%);fill-opacity:1;stroke-width:1;stroke-linecap:round;stroke-linejoin:round;stroke:rgb(0%,0%,0%);stroke-opacity:1;stroke-miterlimit:10;" d="M 215.085938 237.549805 C 217.819336 240.286133 217.819336 244.71582 215.085938 247.449219 C 212.355469 250.182617 207.922852 250.182617 205.186523 247.449219 C 202.453125 244.71582 202.453125 240.286133 205.186523 237.549805 C 207.922852 234.816406 212.355469 234.816406 215.085938 237.549805 " transform="matrix(1.333333,0,0,1.333333,-192,-186.666667)"/>
<path style=" stroke:none;fill-rule:nonzero;fill:rgb(0%,0%,0%);fill-opacity:1;" d="M 83.929688 140.46875 L 88.804688 131.886719 L 90.160156 131.886719 L 91.578125 140.46875 L 90.472656 140.46875 L 90.054688 137.992188 L 86.578125 137.992188 L 85.203125 140.46875 Z M 87.078125 137.117188 L 89.910156 137.117188 L 89.578125 134.949219 C 89.453125 134.105469 89.375 133.398438 89.347656 132.824219 C 89.140625 133.3125 88.847656 133.898438 88.472656 134.574219 Z M 87.078125 137.117188 "/>
<path style=" stroke:none;fill-rule:nonzero;fill:rgb(0%,0%,0%);fill-opacity:1;" d="M 84.703125 163.332031 L 86.492188 154.75 L 89.160156 154.75 C 89.644531 154.75 90.003906 154.765625 90.242188 154.792969 C 90.617188 154.863281 90.9375 154.980469 91.203125 155.144531 C 91.460938 155.3125 91.664062 155.542969 91.804688 155.832031 C 91.957031 156.125 92.035156 156.449219 92.035156 156.792969 C 92.035156 157.265625 91.898438 157.683594 91.640625 158.042969 C 91.390625 158.390625 90.992188 158.660156 90.453125 158.855469 C 90.921875 159.011719 91.269531 159.238281 91.492188 159.542969 C 91.726562 159.847656 91.847656 160.203125 91.847656 160.605469 C 91.847656 161.09375 91.707031 161.550781 91.429688 161.980469 C 91.164062 162.410156 90.804688 162.746094 90.347656 162.980469 C 89.898438 163.21875 89.410156 163.332031 88.867188 163.332031 Z M 86.890625 158.417969 L 88.617188 158.417969 C 89.453125 158.417969 90.046875 158.285156 90.410156 158.019531 C 90.785156 157.746094 90.972656 157.355469 90.972656 156.855469 C 90.972656 156.605469 90.910156 156.394531 90.785156 156.230469 C 90.671875 156.050781 90.519531 155.925781 90.328125 155.855469 C 90.144531 155.769531 89.789062 155.730469 89.265625 155.730469 L 87.453125 155.730469 Z M 86.054688 162.355469 L 88.015625 162.355469 C 88.523438 162.355469 88.875 162.34375 89.054688 162.3125 C 89.414062 162.246094 89.707031 162.140625 89.929688 162 C 90.164062 161.847656 90.347656 161.644531 90.472656 161.394531 C 90.609375 161.144531 90.679688 160.890625 90.679688 160.625 C 90.679688 160.222656 90.546875 159.917969 90.285156 159.707031 C 90.035156 159.5 89.554688 159.394531 88.847656 159.394531 L 86.679688 159.394531 Z M 86.054688 162.355469 "/>
<path style=" stroke:none;fill-rule:nonzero;fill:rgb(0%,0%,0%);fill-opacity:1;" d="M 84.390625 210 L 86.183594 201.417969 L 88.765625 201.417969 C 89.390625 201.417969 89.859375 201.457031 90.183594 201.542969 C 90.652344 201.667969 91.058594 201.890625 91.390625 202.207031 C 91.726562 202.515625 91.976562 202.90625 92.140625 203.375 C 92.308594 203.832031 92.390625 204.347656 92.390625 204.917969 C 92.390625 205.613281 92.289062 206.246094 92.078125 206.8125 C 91.871094 207.386719 91.589844 207.886719 91.246094 208.3125 C 90.914062 208.746094 90.558594 209.082031 90.183594 209.332031 C 89.820312 209.574219 89.390625 209.75 88.890625 209.875 C 88.5 209.957031 88.027344 210 87.476562 210 Z M 85.746094 209.019531 L 87.101562 209.019531 C 87.710938 209.019531 88.25 208.96875 88.726562 208.855469 C 89.027344 208.785156 89.289062 208.683594 89.496094 208.542969 C 89.773438 208.375 90.023438 208.144531 90.246094 207.855469 C 90.546875 207.46875 90.789062 207.03125 90.953125 206.542969 C 91.132812 206.058594 91.226562 205.5 91.226562 204.875 C 91.226562 204.183594 91.101562 203.644531 90.851562 203.269531 C 90.609375 202.894531 90.308594 202.644531 89.933594 202.519531 C 89.652344 202.4375 89.226562 202.394531 88.640625 202.394531 L 87.121094 202.394531 Z M 85.746094 209.019531 "/>
<path style="fill:none;stroke-width:1;stroke-linecap:round;stroke-linejoin:round;stroke:rgb(0%,0%,0%);stroke-opacity:1;stroke-miterlimit:10;" d="M 160.5 272.641602 L 199.110352 249.195312 " transform="matrix(1.333333,0,0,1.333333,-192,-186.666667)"/>
<path style="fill:none;stroke-width:1;stroke-linecap:butt;stroke-linejoin:miter;stroke:rgb(0%,0%,0%);stroke-opacity:1;stroke-miterlimit:10;" d="M 202.526367 247.121094 L 199.110352 249.195312 M 198.331055 247.915039 L 202.526367 247.121094 L 199.886719 250.481445 " transform="matrix(1.333333,0,0,1.333333,-192,-186.666667)"/>
<path style="fill:none;stroke-width:1;stroke-linecap:round;stroke-linejoin:round;stroke:rgb(0%,0%,0%);stroke-opacity:1;stroke-miterlimit:10;" d="M 160.5 275.070312 L 195.993164 264.291992 " transform="matrix(1.333333,0,0,1.333333,-192,-186.666667)"/>
<path style="fill:none;stroke-width:1;stroke-linecap:butt;stroke-linejoin:miter;stroke:rgb(0%,0%,0%);stroke-opacity:1;stroke-miterlimit:10;" d="M 199.819336 263.131836 L 195.993164 264.291992 M 195.553711 262.859375 L 199.819336 263.131836 L 196.429688 265.730469 " transform="matrix(1.333333,0,0,1.333333,-192,-186.666667)"/>
<path style="fill:none;stroke-width:1;stroke-linecap:round;stroke-linejoin:round;stroke:rgb(0%,0%,0%);stroke-opacity:1;stroke-miterlimit:10;" d="M 160.5 279.930664 L 195.993164 290.706055 " transform="matrix(1.333333,0,0,1.333333,-192,-186.666667)"/>
<path style="fill:none;stroke-width:1;stroke-linecap:butt;stroke-linejoin:miter;stroke:rgb(0%,0%,0%);stroke-opacity:1;stroke-miterlimit:10;" d="M 199.819336 291.866211 L 195.993164 290.706055 M 196.429688 289.270508 L 199.819336 291.866211 L 195.553711 292.141602 " transform="matrix(1.333333,0,0,1.333333,-192,-186.666667)"/>
<path style=" stroke:none;fill-rule:nonzero;fill:rgb(0%,0%,0%);fill-opacity:1;" d="M 84.722656 231.394531 L 86.515625 222.8125 L 92.722656 222.8125 L 92.515625 223.789062 L 87.472656 223.789062 L 86.910156 226.457031 L 91.828125 226.457031 L 91.617188 227.4375 L 86.703125 227.4375 L 86.078125 230.414062 L 91.472656 230.414062 L 91.285156 231.394531 Z M 84.722656 231.394531 "/>
<path style="fill-rule:nonzero;fill:rgb(69.803923%,85.09804%,100%);fill-opacity:1;stroke-width:1;stroke-linecap:round;stroke-linejoin:round;stroke:rgb(0%,0%,0%);stroke-opacity:1;stroke-miterlimit:10;" d="M 215.085938 272.550781 C 217.819336 275.28418 217.819336 279.713867 215.085938 282.450195 C 212.355469 285.183594 207.922852 285.183594 205.186523 282.450195 C 202.453125 279.713867 202.453125 275.28418 205.186523 272.550781 C 207.922852 269.817383 212.355469 269.817383 215.085938 272.550781 " transform="matrix(1.333333,0,0,1.333333,-192,-186.666667)"/>
<path style=" stroke:none;fill-rule:nonzero;fill:rgb(0%,0%,0%);fill-opacity:1;" d="M 91.078125 184.117188 L 92.226562 184.261719 C 91.859375 185.261719 91.335938 186.023438 90.640625 186.53125 C 89.960938 187.03125 89.1875 187.28125 88.328125 187.28125 C 87.289062 187.28125 86.460938 186.964844 85.851562 186.324219 C 85.234375 185.6875 84.933594 184.777344 84.933594 183.59375 C 84.933594 182.042969 85.398438 180.761719 86.328125 179.761719 C 87.164062 178.859375 88.1875 178.40625 89.414062 178.40625 C 90.328125 178.40625 91.0625 178.652344 91.621094 179.136719 C 92.1875 179.625 92.523438 180.277344 92.621094 181.09375 L 91.539062 181.199219 C 91.421875 180.574219 91.1875 180.109375 90.828125 179.804688 C 90.480469 179.5 90.027344 179.34375 89.476562 179.34375 C 88.417969 179.34375 87.570312 179.8125 86.933594 180.742188 C 86.359375 181.546875 86.078125 182.507812 86.078125 183.617188 C 86.078125 184.507812 86.292969 185.179688 86.726562 185.636719 C 87.167969 186.09375 87.734375 186.324219 88.433594 186.324219 C 89.015625 186.324219 89.546875 186.136719 90.039062 185.761719 C 90.523438 185.375 90.871094 184.824219 91.078125 184.117188 Z M 91.078125 184.117188 "/>
<path style="fill:none;stroke-width:1;stroke-linecap:round;stroke-linejoin:round;stroke:rgb(0%,0%,0%);stroke-opacity:1;stroke-miterlimit:10;" d="M 160.5 277.499023 L 197.238281 277.499023 " transform="matrix(1.333333,0,0,1.333333,-192,-186.666667)"/>
<path style="fill:none;stroke-width:1;stroke-linecap:butt;stroke-linejoin:miter;stroke:rgb(0%,0%,0%);stroke-opacity:1;stroke-miterlimit:10;" d="M 201.237305 277.499023 L 197.238281 277.499023 M 197.238281 275.999023 L 201.237305 277.499023 L 197.238281 278.999023 " transform="matrix(1.333333,0,0,1.333333,-192,-186.666667)"/>
<path style="fill:none;stroke-width:1;stroke-linecap:round;stroke-linejoin:round;stroke:rgb(0%,0%,0%);stroke-opacity:1;stroke-miterlimit:10;" d="M 160.5 282.157227 L 196.538086 303.133789 " transform="matrix(1.333333,0,0,1.333333,-192,-186.666667)"/>
<path style="fill:none;stroke-width:1;stroke-linecap:butt;stroke-linejoin:miter;stroke:rgb(0%,0%,0%);stroke-opacity:1;stroke-miterlimit:10;" d="M 199.995117 305.143555 L 196.538086 303.133789 M 197.293945 301.835938 L 199.995117 305.143555 L 195.785156 304.425781 " transform="matrix(1.333333,0,0,1.333333,-192,-186.666667)"/>
<path style=" stroke:none;fill-rule:nonzero;fill:rgb(0%,0%,0%);fill-opacity:1;" d="M 142.414062 123.332031 L 147.289062 114.75 L 148.644531 114.75 L 150.058594 123.332031 L 148.957031 123.332031 L 148.539062 120.855469 L 145.058594 120.855469 L 143.683594 123.332031 Z M 145.558594 119.980469 L 148.394531 119.980469 L 148.058594 117.8125 C 147.933594 116.96875 147.855469 116.261719 147.832031 115.6875 C 147.621094 116.175781 147.332031 116.761719 146.957031 117.4375 Z M 145.558594 119.980469 "/>
<path style="fill-rule:nonzero;fill:rgb(69.803923%,85.09804%,100%);fill-opacity:1;stroke-width:1;stroke-linecap:round;stroke-linejoin:round;stroke:rgb(0%,0%,0%);stroke-opacity:1;stroke-miterlimit:10;" d="M 316.584961 206.550781 C 319.321289 209.28418 319.321289 213.713867 316.584961 216.450195 C 313.854492 219.183594 309.421875 219.183594 306.688477 216.450195 C 303.952148 213.713867 303.952148 209.28418 306.688477 206.550781 C 309.421875 203.817383 313.854492 203.817383 316.584961 206.550781 " transform="matrix(1.333333,0,0,1.333333,-192,-186.666667)"/>
<path style=" stroke:none;fill-rule:nonzero;fill:rgb(0%,0%,0%);fill-opacity:1;" d="M 220.035156 99.136719 L 221.828125 90.554688 L 224.492188 90.554688 C 224.976562 90.554688 225.335938 90.570312 225.578125 90.59375 C 225.953125 90.667969 226.269531 90.78125 226.535156 90.949219 C 226.796875 91.117188 227 91.34375 227.140625 91.636719 C 227.289062 91.929688 227.367188 92.25 227.367188 92.59375 C 227.367188 93.070312 227.234375 93.484375 226.972656 93.84375 C 226.722656 94.195312 226.328125 94.464844 225.785156 94.65625 C 226.253906 94.8125 226.601562 95.042969 226.828125 95.34375 C 227.0625 95.652344 227.179688 96.007812 227.179688 96.40625 C 227.179688 96.898438 227.039062 97.355469 226.765625 97.78125 C 226.5 98.214844 226.140625 98.546875 225.679688 98.78125 C 225.234375 99.023438 224.742188 99.136719 224.203125 99.136719 Z M 222.222656 94.21875 L 223.953125 94.21875 C 224.785156 94.21875 225.378906 94.089844 225.742188 93.824219 C 226.117188 93.546875 226.304688 93.15625 226.304688 92.65625 C 226.304688 92.40625 226.242188 92.199219 226.117188 92.03125 C 226.003906 91.855469 225.851562 91.730469 225.660156 91.65625 C 225.476562 91.574219 225.125 91.53125 224.597656 91.53125 L 222.785156 91.53125 Z M 221.390625 98.15625 L 223.347656 98.15625 C 223.859375 98.15625 224.207031 98.148438 224.390625 98.117188 C 224.75 98.046875 225.039062 97.945312 225.265625 97.804688 C 225.5 97.652344 225.679688 97.449219 225.804688 97.199219 C 225.941406 96.949219 226.015625 96.695312 226.015625 96.429688 C 226.015625 96.027344 225.878906 95.71875 225.617188 95.511719 C 225.367188 95.304688 224.890625 95.199219 224.179688 95.199219 L 222.015625 95.199219 Z M 221.390625 98.15625 "/>
<path style=" stroke:none;fill-rule:nonzero;fill:rgb(0%,0%,0%);fill-opacity:1;" d="M 219.265625 75.332031 L 224.140625 66.75 L 225.492188 66.75 L 226.910156 75.332031 L 225.804688 75.332031 L 225.390625 72.855469 L 221.910156 72.855469 L 220.535156 75.332031 Z M 222.410156 71.980469 L 225.242188 71.980469 L 224.910156 69.8125 C 224.785156 68.96875 224.707031 68.261719 224.679688 67.6875 C 224.472656 68.175781 224.179688 68.761719 223.804688 69.4375 Z M 222.410156 71.980469 "/>
<path style=" stroke:none;fill-rule:nonzero;fill:rgb(0%,0%,0%);fill-opacity:1;" d="M 219.726562 146.667969 L 221.515625 138.082031 L 224.101562 138.082031 C 224.726562 138.082031 225.195312 138.125 225.515625 138.207031 C 225.984375 138.332031 226.390625 138.558594 226.726562 138.875 C 227.058594 139.183594 227.308594 139.574219 227.476562 140.042969 C 227.640625 140.5 227.726562 141.015625 227.726562 141.582031 C 227.726562 142.28125 227.621094 142.910156 227.414062 143.480469 C 227.203125 144.050781 226.921875 144.550781 226.578125 144.980469 C 226.246094 145.410156 225.890625 145.75 225.515625 146 C 225.152344 146.238281 224.726562 146.417969 224.226562 146.542969 C 223.835938 146.625 223.359375 146.667969 222.808594 146.667969 Z M 221.078125 145.6875 L 222.433594 145.6875 C 223.042969 145.6875 223.585938 145.636719 224.058594 145.519531 C 224.359375 145.453125 224.621094 145.347656 224.828125 145.207031 C 225.105469 145.042969 225.355469 144.8125 225.578125 144.519531 C 225.882812 144.136719 226.121094 143.699219 226.289062 143.207031 C 226.464844 142.722656 226.558594 142.167969 226.558594 141.542969 C 226.558594 140.847656 226.433594 140.3125 226.183594 139.9375 C 225.945312 139.5625 225.640625 139.3125 225.265625 139.1875 C 224.984375 139.105469 224.558594 139.0625 223.976562 139.0625 L 222.453125 139.0625 Z M 221.078125 145.6875 "/>
<path style="fill:none;stroke-width:1;stroke-linecap:round;stroke-linejoin:round;stroke:rgb(0%,0%,0%);stroke-opacity:1;stroke-miterlimit:10;" d="M 262.5 227.272461 L 299.352539 215.442383 " transform="matrix(1.333333,0,0,1.333333,-192,-186.666667)"/>
<path style="fill:none;stroke-width:1;stroke-linecap:butt;stroke-linejoin:miter;stroke:rgb(0%,0%,0%);stroke-opacity:1;stroke-miterlimit:10;" d="M 303.161133 214.217773 L 299.352539 215.442383 M 298.895508 214.015625 L 303.161133 214.217773 L 299.8125 216.87207 " transform="matrix(1.333333,0,0,1.333333,-192,-186.666667)"/>
<path style="fill:none;stroke-width:1;stroke-linecap:round;stroke-linejoin:round;stroke:rgb(0%,0%,0%);stroke-opacity:1;stroke-miterlimit:10;" d="M 262.5 224.691406 L 298.133789 202.43457 " transform="matrix(1.333333,0,0,1.333333,-192,-186.666667)"/>
<path style="fill:none;stroke-width:1;stroke-linecap:butt;stroke-linejoin:miter;stroke:rgb(0%,0%,0%);stroke-opacity:1;stroke-miterlimit:10;" d="M 301.526367 200.316406 L 298.133789 202.43457 M 297.339844 201.163086 L 301.526367 200.316406 L 298.930664 203.706055 " transform="matrix(1.333333,0,0,1.333333,-192,-186.666667)"/>
<path style="fill:none;stroke-width:1;stroke-linecap:round;stroke-linejoin:round;stroke:rgb(0%,0%,0%);stroke-opacity:1;stroke-miterlimit:10;" d="M 262.5 232.581055 L 297.492188 243.207031 " transform="matrix(1.333333,0,0,1.333333,-192,-186.666667)"/>
<path style="fill:none;stroke-width:1;stroke-linecap:butt;stroke-linejoin:miter;stroke:rgb(0%,0%,0%);stroke-opacity:1;stroke-miterlimit:10;" d="M 301.321289 244.367188 L 297.492188 243.207031 M 297.928711 241.768555 L 301.321289 244.367188 L 297.055664 244.639648 " transform="matrix(1.333333,0,0,1.333333,-192,-186.666667)"/>
<path style=" stroke:none;fill-rule:nonzero;fill:rgb(0%,0%,0%);fill-opacity:1;" d="M 220.054688 168.0625 L 221.847656 159.476562 L 228.054688 159.476562 L 227.847656 160.457031 L 222.804688 160.457031 L 222.242188 163.125 L 227.160156 163.125 L 226.953125 164.101562 L 222.035156 164.101562 L 221.410156 167.082031 L 226.804688 167.082031 L 226.617188 168.0625 Z M 220.054688 168.0625 "/>
<path style="fill:none;stroke-width:1;stroke-linecap:round;stroke-linejoin:round;stroke:rgb(0%,0%,0%);stroke-opacity:1;stroke-miterlimit:10;" d="M 262.5 234.945312 L 298.040039 255.631836 " transform="matrix(1.333333,0,0,1.333333,-192,-186.666667)"/>
<path style="fill:none;stroke-width:1;stroke-linecap:butt;stroke-linejoin:miter;stroke:rgb(0%,0%,0%);stroke-opacity:1;stroke-miterlimit:10;" d="M 301.49707 257.644531 L 298.040039 255.631836 M 298.792969 254.336914 L 301.49707 257.644531 L 297.28418 256.926758 " transform="matrix(1.333333,0,0,1.333333,-192,-186.666667)"/>
<path style=" stroke:none;fill-rule:nonzero;fill:rgb(0%,0%,0%);fill-opacity:1;" d="M 149.5625 248.980469 L 150.707031 249.125 C 150.34375 250.125 149.816406 250.886719 149.125 251.394531 C 148.441406 251.894531 147.671875 252.144531 146.8125 252.144531 C 145.769531 252.144531 144.941406 251.828125 144.332031 251.1875 C 143.71875 250.550781 143.417969 249.640625 143.417969 248.457031 C 143.417969 246.90625 143.878906 245.625 144.8125 244.625 C 145.644531 243.722656 146.671875 243.269531 147.894531 243.269531 C 148.8125 243.269531 149.546875 243.515625 150.105469 244 C 150.671875 244.488281 151.003906 245.140625 151.105469 245.957031 L 150.019531 246.0625 C 149.90625 245.4375 149.671875 244.972656 149.3125 244.667969 C 148.964844 244.363281 148.511719 244.207031 147.957031 244.207031 C 146.902344 244.207031 146.050781 244.675781 145.417969 245.605469 C 144.84375 246.410156 144.5625 247.371094 144.5625 248.480469 C 144.5625 249.371094 144.777344 250.042969 145.207031 250.5 C 145.652344 250.957031 146.21875 251.1875 146.917969 251.1875 C 147.5 251.1875 148.03125 251 148.519531 250.625 C 149.003906 250.238281 149.355469 249.6875 149.5625 248.980469 Z M 149.5625 248.980469 "/>
<path style=" stroke:none;fill-rule:nonzero;fill:rgb(0%,0%,0%);fill-opacity:1;" d="M 220.035156 228.667969 L 221.828125 220.082031 L 224.492188 220.082031 C 224.976562 220.082031 225.335938 220.097656 225.578125 220.125 C 225.953125 220.199219 226.269531 220.3125 226.535156 220.480469 C 226.796875 220.644531 227 220.875 227.140625 221.167969 C 227.289062 221.457031 227.367188 221.78125 227.367188 222.125 C 227.367188 222.597656 227.234375 223.015625 226.972656 223.375 C 226.722656 223.722656 226.328125 223.996094 225.785156 224.1875 C 226.253906 224.34375 226.601562 224.574219 226.828125 224.875 C 227.0625 225.183594 227.179688 225.535156 227.179688 225.9375 C 227.179688 226.425781 227.039062 226.886719 226.765625 227.3125 C 226.5 227.746094 226.140625 228.078125 225.679688 228.3125 C 225.234375 228.550781 224.742188 228.667969 224.203125 228.667969 Z M 222.222656 223.75 L 223.953125 223.75 C 224.785156 223.75 225.378906 223.621094 225.742188 223.355469 C 226.117188 223.078125 226.304688 222.6875 226.304688 222.1875 C 226.304688 221.9375 226.242188 221.730469 226.117188 221.5625 C 226.003906 221.386719 225.851562 221.261719 225.660156 221.1875 C 225.476562 221.105469 225.125 221.0625 224.597656 221.0625 L 222.785156 221.0625 Z M 221.390625 227.6875 L 223.347656 227.6875 C 223.859375 227.6875 224.207031 227.675781 224.390625 227.644531 C 224.75 227.578125 225.039062 227.472656 225.265625 227.332031 C 225.5 227.183594 225.679688 226.980469 225.804688 226.730469 C 225.941406 226.480469 226.015625 226.222656 226.015625 225.957031 C 226.015625 225.558594 225.878906 225.25 225.617188 225.042969 C 225.367188 224.832031 224.890625 224.730469 224.179688 224.730469 L 222.015625 224.730469 Z M 221.390625 227.6875 "/>
<path style=" stroke:none;fill-rule:nonzero;fill:rgb(0%,0%,0%);fill-opacity:1;" d="M 219.726562 272.667969 L 221.515625 264.082031 L 224.101562 264.082031 C 224.726562 264.082031 225.195312 264.125 225.515625 264.207031 C 225.984375 264.332031 226.390625 264.558594 226.726562 264.875 C 227.058594 265.183594 227.308594 265.574219 227.476562 266.042969 C 227.640625 266.5 227.726562 267.015625 227.726562 267.582031 C 227.726562 268.28125 227.621094 268.910156 227.414062 269.480469 C 227.203125 270.050781 226.921875 270.550781 226.578125 270.980469 C 226.246094 271.410156 225.890625 271.75 225.515625 272 C 225.152344 272.238281 224.726562 272.417969 224.226562 272.542969 C 223.835938 272.625 223.359375 272.667969 222.808594 272.667969 Z M 221.078125 271.6875 L 222.433594 271.6875 C 223.042969 271.6875 223.585938 271.636719 224.058594 271.519531 C 224.359375 271.453125 224.621094 271.347656 224.828125 271.207031 C 225.105469 271.042969 225.355469 270.8125 225.578125 270.519531 C 225.882812 270.136719 226.121094 269.699219 226.289062 269.207031 C 226.464844 268.722656 226.558594 268.167969 226.558594 267.542969 C 226.558594 266.847656 226.433594 266.3125 226.183594 265.9375 C 225.945312 265.5625 225.640625 265.3125 225.265625 265.1875 C 224.984375 265.105469 224.558594 265.0625 223.976562 265.0625 L 222.453125 265.0625 Z M 221.078125 271.6875 "/>
<path style="fill:none;stroke-width:1;stroke-linecap:round;stroke-linejoin:round;stroke:rgb(0%,0%,0%);stroke-opacity:1;stroke-miterlimit:10;" d="M 262.5 323.916992 L 297.492188 313.293945 " transform="matrix(1.333333,0,0,1.333333,-192,-186.666667)"/>
<path style="fill:none;stroke-width:1;stroke-linecap:butt;stroke-linejoin:miter;stroke:rgb(0%,0%,0%);stroke-opacity:1;stroke-miterlimit:10;" d="M 301.321289 312.133789 L 297.492188 313.293945 M 297.055664 311.858398 L 301.321289 312.133789 L 297.928711 314.729492 " transform="matrix(1.333333,0,0,1.333333,-192,-186.666667)"/>
<path style="fill:none;stroke-width:1;stroke-linecap:round;stroke-linejoin:round;stroke:rgb(0%,0%,0%);stroke-opacity:1;stroke-miterlimit:10;" d="M 262.5 328.786133 L 297.442383 338.18457 " transform="matrix(1.333333,0,0,1.333333,-192,-186.666667)"/>
<path style="fill:none;stroke-width:1;stroke-linecap:butt;stroke-linejoin:miter;stroke:rgb(0%,0%,0%);stroke-opacity:1;stroke-miterlimit:10;" d="M 301.303711 339.22168 L 297.442383 338.18457 M 297.829102 336.734375 L 301.303711 339.22168 L 297.049805 339.628906 " transform="matrix(1.333333,0,0,1.333333,-192,-186.666667)"/>
<path style=" stroke:none;fill-rule:nonzero;fill:rgb(0%,0%,0%);fill-opacity:1;" d="M 226.414062 247.644531 L 227.558594 247.792969 C 227.195312 248.792969 226.667969 249.550781 225.976562 250.0625 C 225.292969 250.5625 224.523438 250.8125 223.664062 250.8125 C 222.621094 250.8125 221.792969 250.496094 221.183594 249.855469 C 220.570312 249.21875 220.265625 248.308594 220.265625 247.125 C 220.265625 245.574219 220.730469 244.292969 221.664062 243.292969 C 222.496094 242.390625 223.523438 241.9375 224.746094 241.9375 C 225.664062 241.9375 226.398438 242.183594 226.953125 242.667969 C 227.523438 243.15625 227.855469 243.808594 227.953125 244.625 L 226.871094 244.730469 C 226.757812 244.105469 226.523438 243.640625 226.164062 243.332031 C 225.8125 243.03125 225.359375 242.875 224.808594 242.875 C 223.75 242.875 222.902344 243.34375 222.265625 244.269531 C 221.695312 245.078125 221.414062 246.035156 221.414062 247.144531 C 221.414062 248.035156 221.625 248.707031 222.058594 249.167969 C 222.5 249.625 223.070312 249.855469 223.765625 249.855469 C 224.351562 249.855469 224.882812 249.667969 225.371094 249.292969 C 225.855469 248.90625 226.203125 248.355469 226.414062 247.644531 Z M 226.414062 247.644531 "/>
<path style="fill-rule:nonzero;fill:rgb(69.803923%,85.09804%,100%);fill-opacity:1;stroke-width:1;stroke-linecap:round;stroke-linejoin:round;stroke:rgb(0%,0%,0%);stroke-opacity:1;stroke-miterlimit:10;" d="M 316.584961 354.549805 C 319.321289 357.286133 319.321289 361.71582 316.584961 364.449219 C 313.854492 367.182617 309.421875 367.182617 306.688477 364.449219 C 303.952148 361.71582 303.952148 357.286133 306.688477 354.549805 C 309.421875 351.816406 313.854492 351.816406 316.584961 354.549805 " transform="matrix(1.333333,0,0,1.333333,-192,-186.666667)"/>
<path style=" stroke:none;fill-rule:nonzero;fill:rgb(0%,0%,0%);fill-opacity:1;" d="M 220.054688 296.46875 L 221.847656 287.886719 L 228.054688 287.886719 L 227.847656 288.867188 L 222.804688 288.867188 L 222.242188 291.53125 L 227.160156 291.53125 L 226.953125 292.511719 L 222.035156 292.511719 L 221.410156 295.492188 L 226.804688 295.492188 L 226.617188 296.46875 Z M 220.054688 296.46875 "/>
<path style="fill:none;stroke-width:1;stroke-linecap:round;stroke-linejoin:round;stroke:rgb(0%,0%,0%);stroke-opacity:1;stroke-miterlimit:10;" d="M 262.5 331.367188 L 300.442383 353.09082 " transform="matrix(1.333333,0,0,1.333333,-192,-186.666667)"/>
<path style="fill:none;stroke-width:1;stroke-linecap:butt;stroke-linejoin:miter;stroke:rgb(0%,0%,0%);stroke-opacity:1;stroke-miterlimit:10;" d="M 303.914062 355.077148 L 300.442383 353.09082 M 301.186523 351.790039 L 303.914062 355.077148 L 299.695312 354.391602 " transform="matrix(1.333333,0,0,1.333333,-192,-186.666667)"/>
<path style="fill:none;stroke-width:1;stroke-linecap:round;stroke-linejoin:round;stroke:rgb(0%,0%,0%);stroke-opacity:1;stroke-miterlimit:10;" d="M 262.5 326.351562 L 297.237305 325.750977 " transform="matrix(1.333333,0,0,1.333333,-192,-186.666667)"/>
<path style="fill:none;stroke-width:1;stroke-linecap:butt;stroke-linejoin:miter;stroke:rgb(0%,0%,0%);stroke-opacity:1;stroke-miterlimit:10;" d="M 301.239258 325.680664 L 297.237305 325.750977 M 297.210938 324.250977 L 301.239258 325.680664 L 297.266602 327.250977 " transform="matrix(1.333333,0,0,1.333333,-192,-186.666667)"/>
<path style=" stroke:none;fill-rule:nonzero;fill:rgb(0%,0%,0%);fill-opacity:1;" d="M 226.414062 120.3125 L 227.558594 120.457031 C 227.195312 121.457031 226.667969 122.21875 225.976562 122.730469 C 225.292969 123.230469 224.523438 123.480469 223.664062 123.480469 C 222.621094 123.480469 221.792969 123.160156 221.183594 122.519531 C 220.570312 121.886719 220.265625 120.972656 220.265625 119.792969 C 220.265625 118.238281 220.730469 116.957031 221.664062 115.957031 C 222.496094 115.058594 223.523438 114.605469 224.746094 114.605469 C 225.664062 114.605469 226.398438 114.847656 226.953125 115.332031 C 227.523438 115.824219 227.855469 116.472656 227.953125 117.292969 L 226.871094 117.394531 C 226.757812 116.769531 226.523438 116.308594 226.164062 116 C 225.8125 115.699219 225.359375 115.542969 224.808594 115.542969 C 223.75 115.542969 222.902344 116.011719 222.265625 116.9375 C 221.695312 117.746094 221.414062 118.703125 221.414062 119.8125 C 221.414062 120.703125 221.625 121.375 222.058594 121.832031 C 222.5 122.292969 223.070312 122.519531 223.765625 122.519531 C 224.351562 122.519531 224.882812 122.332031 225.371094 121.957031 C 225.855469 121.574219 226.203125 121.019531 226.414062 120.3125 Z M 226.414062 120.3125 "/>
<path style="fill:none;stroke-width:1;stroke-linecap:round;stroke-linejoin:round;stroke:rgb(0%,0%,0%);stroke-opacity:1;stroke-miterlimit:10;" d="M 262.5 230 L 297.237305 230 " transform="matrix(1.333333,0,0,1.333333,-192,-186.666667)"/>
<path style="fill:none;stroke-width:1;stroke-linecap:butt;stroke-linejoin:miter;stroke:rgb(0%,0%,0%);stroke-opacity:1;stroke-miterlimit:10;" d="M 301.239258 230 L 297.237305 230 M 297.237305 228.5 L 301.239258 230 L 297.237305 231.5 " transform="matrix(1.333333,0,0,1.333333,-192,-186.666667)"/>
<path style=" stroke:none;fill-rule:nonzero;fill:rgb(0%,0%,0%);fill-opacity:1;" d="M 219.265625 209.363281 L 224.140625 200.78125 L 225.492188 200.78125 L 226.910156 209.363281 L 225.804688 209.363281 L 225.390625 206.886719 L 221.910156 206.886719 L 220.535156 209.363281 Z M 222.410156 206.011719 L 225.242188 206.011719 L 224.910156 203.84375 C 224.785156 203 224.707031 202.292969 224.679688 201.71875 C 224.472656 202.207031 224.179688 202.792969 223.804688 203.46875 Z M 222.410156 206.011719 "/>
<path style="fill:none;stroke-width:1;stroke-linecap:round;stroke-linejoin:round;stroke:rgb(0%,0%,0%);stroke-opacity:1;stroke-miterlimit:10;" d="M 262.5 321.78418 L 297.975586 302.102539 " transform="matrix(1.333333,0,0,1.333333,-192,-186.666667)"/>
<path style="fill:none;stroke-width:1;stroke-linecap:butt;stroke-linejoin:miter;stroke:rgb(0%,0%,0%);stroke-opacity:1;stroke-miterlimit:10;" d="M 301.476562 300.160156 L 297.975586 302.102539 M 297.249023 300.790039 L 301.476562 300.160156 L 298.708008 303.415039 " transform="matrix(1.333333,0,0,1.333333,-192,-186.666667)"/>
<path style=" stroke:none;fill-rule:nonzero;fill:rgb(0%,0%,0%);fill-opacity:1;" d="M 281.078125 123.332031 L 285.953125 114.75 L 287.308594 114.75 L 288.726562 123.332031 L 287.621094 123.332031 L 287.203125 120.855469 L 283.726562 120.855469 L 282.351562 123.332031 Z M 284.226562 119.980469 L 287.058594 119.980469 L 286.726562 117.8125 C 286.601562 116.96875 286.523438 116.261719 286.496094 115.6875 C 286.289062 116.175781 285.996094 116.761719 285.621094 117.4375 Z M 284.226562 119.980469 "/>
<path style=" stroke:none;fill-rule:nonzero;fill:rgb(0%,0%,0%);fill-opacity:1;" d="M 289.855469 123.332031 L 291.644531 114.75 L 294.3125 114.75 C 294.796875 114.75 295.15625 114.765625 295.394531 114.792969 C 295.769531 114.863281 296.089844 114.980469 296.355469 115.144531 C 296.613281 115.3125 296.816406 115.542969 296.957031 115.832031 C 297.109375 116.125 297.1875 116.449219 297.1875 116.792969 C 297.1875 117.265625 297.050781 117.683594 296.792969 118.042969 C 296.542969 118.390625 296.144531 118.660156 295.605469 118.855469 C 296.074219 119.011719 296.421875 119.238281 296.644531 119.542969 C 296.878906 119.847656 297 120.203125 297 120.605469 C 297 121.09375 296.859375 121.550781 296.582031 121.980469 C 296.316406 122.410156 295.957031 122.746094 295.5 122.980469 C 295.050781 123.21875 294.5625 123.332031 294.019531 123.332031 Z M 292.042969 118.417969 L 293.769531 118.417969 C 294.605469 118.417969 295.199219 118.285156 295.5625 118.019531 C 295.9375 117.746094 296.125 117.355469 296.125 116.855469 C 296.125 116.605469 296.0625 116.394531 295.9375 116.230469 C 295.824219 116.050781 295.671875 115.925781 295.480469 115.855469 C 295.296875 115.769531 294.941406 115.730469 294.417969 115.730469 L 292.605469 115.730469 Z M 291.207031 122.355469 L 293.167969 122.355469 C 293.675781 122.355469 294.027344 122.34375 294.207031 122.3125 C 294.566406 122.246094 294.859375 122.140625 295.082031 122 C 295.316406 121.847656 295.5 121.644531 295.625 121.394531 C 295.761719 121.144531 295.832031 120.890625 295.832031 120.625 C 295.832031 120.222656 295.699219 119.917969 295.4375 119.707031 C 295.1875 119.5 294.707031 119.394531 294 119.394531 L 291.832031 119.394531 Z M 291.207031 122.355469 "/>
<path style="fill-rule:nonzero;fill:rgb(69.803923%,85.09804%,100%);fill-opacity:1;stroke-width:1;stroke-linecap:round;stroke-linejoin:round;stroke:rgb(0%,0%,0%);stroke-opacity:1;stroke-miterlimit:10;" d="M 423.585938 242.550781 C 426.319336 245.28418 426.319336 249.713867 423.585938 252.450195 C 420.855469 255.183594 416.422852 255.183594 413.686523 252.450195 C 410.953125 249.713867 410.953125 245.28418 413.686523 242.550781 C 416.422852 239.817383 420.855469 239.817383 423.585938 242.550781 " transform="matrix(1.333333,0,0,1.333333,-192,-186.666667)"/>
<path style=" stroke:none;fill-rule:nonzero;fill:rgb(0%,0%,0%);fill-opacity:1;" d="M 362.390625 147.136719 L 364.183594 138.554688 L 366.765625 138.554688 C 367.390625 138.554688 367.859375 138.59375 368.183594 138.679688 C 368.652344 138.804688 369.058594 139.027344 369.390625 139.34375 C 369.726562 139.652344 369.976562 140.042969 370.140625 140.511719 C 370.308594 140.96875 370.390625 141.484375 370.390625 142.054688 C 370.390625 142.75 370.289062 143.382812 370.078125 143.949219 C 369.871094 144.523438 369.589844 145.023438 369.246094 145.449219 C 368.914062 145.882812 368.558594 146.21875 368.183594 146.46875 C 367.820312 146.710938 367.390625 146.886719 366.890625 147.011719 C 366.5 147.09375 366.027344 147.136719 365.476562 147.136719 Z M 363.746094 146.15625 L 365.101562 146.15625 C 365.710938 146.15625 366.25 146.105469 366.726562 145.992188 C 367.027344 145.921875 367.289062 145.820312 367.496094 145.679688 C 367.773438 145.511719 368.023438 145.28125 368.246094 144.992188 C 368.546875 144.605469 368.789062 144.167969 368.953125 143.679688 C 369.132812 143.195312 369.226562 142.636719 369.226562 142.011719 C 369.226562 141.320312 369.101562 140.78125 368.851562 140.40625 C 368.609375 140.03125 368.308594 139.78125 367.933594 139.65625 C 367.652344 139.574219 367.226562 139.53125 366.640625 139.53125 L 365.121094 139.53125 Z M 363.746094 146.15625 "/>
<path style=" stroke:none;fill-rule:nonzero;fill:rgb(0%,0%,0%);fill-opacity:1;" d="M 361.929688 75.332031 L 366.804688 66.75 L 368.160156 66.75 L 369.578125 75.332031 L 368.472656 75.332031 L 368.054688 72.855469 L 364.578125 72.855469 L 363.203125 75.332031 Z M 365.078125 71.980469 L 367.910156 71.980469 L 367.578125 69.8125 C 367.453125 68.96875 367.375 68.261719 367.347656 67.6875 C 367.140625 68.175781 366.847656 68.761719 366.472656 69.4375 Z M 365.078125 71.980469 "/>
<path style=" stroke:none;fill-rule:nonzero;fill:rgb(0%,0%,0%);fill-opacity:1;" d="M 362.703125 98.667969 L 364.492188 90.082031 L 367.160156 90.082031 C 367.644531 90.082031 368.003906 90.097656 368.242188 90.125 C 368.617188 90.199219 368.9375 90.3125 369.203125 90.480469 C 369.460938 90.644531 369.664062 90.875 369.804688 91.167969 C 369.957031 91.457031 370.035156 91.78125 370.035156 92.125 C 370.035156 92.597656 369.898438 93.015625 369.640625 93.375 C 369.390625 93.722656 368.992188 93.996094 368.453125 94.1875 C 368.921875 94.34375 369.269531 94.574219 369.492188 94.875 C 369.726562 95.183594 369.847656 95.535156 369.847656 95.9375 C 369.847656 96.425781 369.707031 96.886719 369.429688 97.3125 C 369.164062 97.746094 368.804688 98.078125 368.347656 98.3125 C 367.898438 98.550781 367.410156 98.667969 366.867188 98.667969 Z M 364.890625 93.75 L 366.617188 93.75 C 367.453125 93.75 368.046875 93.621094 368.410156 93.355469 C 368.785156 93.078125 368.972656 92.6875 368.972656 92.1875 C 368.972656 91.9375 368.910156 91.730469 368.785156 91.5625 C 368.671875 91.386719 368.519531 91.261719 368.328125 91.1875 C 368.144531 91.105469 367.789062 91.0625 367.265625 91.0625 L 365.453125 91.0625 Z M 364.054688 97.6875 L 366.015625 97.6875 C 366.523438 97.6875 366.875 97.675781 367.054688 97.644531 C 367.414062 97.578125 367.707031 97.472656 367.929688 97.332031 C 368.164062 97.183594 368.347656 96.980469 368.472656 96.730469 C 368.609375 96.480469 368.679688 96.222656 368.679688 95.957031 C 368.679688 95.558594 368.546875 95.25 368.285156 95.042969 C 368.035156 94.832031 367.554688 94.730469 366.847656 94.730469 L 364.679688 94.730469 Z M 364.054688 97.6875 "/>
<path style="fill:none;stroke-width:1;stroke-linecap:round;stroke-linejoin:round;stroke:rgb(0%,0%,0%);stroke-opacity:1;stroke-miterlimit:10;" d="M 372.500977 233.492188 L 406.291992 243.749023 " transform="matrix(1.333333,0,0,1.333333,-192,-186.666667)"/>
<path style="fill:none;stroke-width:1;stroke-linecap:butt;stroke-linejoin:miter;stroke:rgb(0%,0%,0%);stroke-opacity:1;stroke-miterlimit:10;" d="M 410.121094 244.915039 L 406.291992 243.749023 M 406.725586 242.316406 L 410.121094 244.915039 L 405.855469 245.1875 " transform="matrix(1.333333,0,0,1.333333,-192,-186.666667)"/>
<path style="fill:none;stroke-width:1;stroke-linecap:round;stroke-linejoin:round;stroke:rgb(0%,0%,0%);stroke-opacity:1;stroke-miterlimit:10;" d="M 372.500977 222.816406 L 405.131836 202.43457 " transform="matrix(1.333333,0,0,1.333333,-192,-186.666667)"/>
<path style="fill:none;stroke-width:1;stroke-linecap:butt;stroke-linejoin:miter;stroke:rgb(0%,0%,0%);stroke-opacity:1;stroke-miterlimit:10;" d="M 408.527344 200.316406 L 405.131836 202.43457 M 404.34082 201.163086 L 408.527344 200.316406 L 405.928711 203.706055 " transform="matrix(1.333333,0,0,1.333333,-192,-186.666667)"/>
<path style="fill:none;stroke-width:1;stroke-linecap:round;stroke-linejoin:round;stroke:rgb(0%,0%,0%);stroke-opacity:1;stroke-miterlimit:10;" d="M 372.500977 226.308594 L 404.519531 216.03125 " transform="matrix(1.333333,0,0,1.333333,-192,-186.666667)"/>
<path style="fill:none;stroke-width:1;stroke-linecap:butt;stroke-linejoin:miter;stroke:rgb(0%,0%,0%);stroke-opacity:1;stroke-miterlimit:10;" d="M 408.328125 214.80957 L 404.519531 216.03125 M 404.0625 214.601562 L 408.328125 214.80957 L 404.976562 217.460938 " transform="matrix(1.333333,0,0,1.333333,-192,-186.666667)"/>
<path style=" stroke:none;fill-rule:nonzero;fill:rgb(0%,0%,0%);fill-opacity:1;" d="M 362.722656 170 L 364.515625 161.417969 L 370.722656 161.417969 L 370.515625 162.394531 L 365.472656 162.394531 L 364.910156 165.0625 L 369.828125 165.0625 L 369.617188 166.042969 L 364.703125 166.042969 L 364.078125 169.019531 L 369.472656 169.019531 L 369.285156 170 Z M 362.722656 170 "/>
<path style="fill:none;stroke-width:1;stroke-linecap:round;stroke-linejoin:round;stroke:rgb(0%,0%,0%);stroke-opacity:1;stroke-miterlimit:10;" d="M 372.500977 236.984375 L 405.09375 256.777344 " transform="matrix(1.333333,0,0,1.333333,-192,-186.666667)"/>
<path style="fill:none;stroke-width:1;stroke-linecap:butt;stroke-linejoin:miter;stroke:rgb(0%,0%,0%);stroke-opacity:1;stroke-miterlimit:10;" d="M 408.512695 258.851562 L 405.09375 256.777344 M 405.875977 255.491211 L 408.512695 258.851562 L 404.317383 258.057617 " transform="matrix(1.333333,0,0,1.333333,-192,-186.666667)"/>
<path style=" stroke:none;fill-rule:nonzero;fill:rgb(0%,0%,0%);fill-opacity:1;" d="M 288.226562 248.980469 L 289.375 249.125 C 289.007812 250.125 288.484375 250.886719 287.789062 251.394531 C 287.109375 251.894531 286.335938 252.144531 285.476562 252.144531 C 284.4375 252.144531 283.609375 251.828125 283 251.1875 C 282.382812 250.550781 282.082031 249.640625 282.082031 248.457031 C 282.082031 246.90625 282.546875 245.625 283.476562 244.625 C 284.3125 243.722656 285.335938 243.269531 286.5625 243.269531 C 287.476562 243.269531 288.210938 243.515625 288.769531 244 C 289.335938 244.488281 289.671875 245.140625 289.769531 245.957031 L 288.6875 246.0625 C 288.570312 245.4375 288.335938 244.972656 287.976562 244.667969 C 287.628906 244.363281 287.175781 244.207031 286.625 244.207031 C 285.566406 244.207031 284.71875 244.675781 284.082031 245.605469 C 283.507812 246.410156 283.226562 247.371094 283.226562 248.480469 C 283.226562 249.371094 283.441406 250.042969 283.875 250.5 C 284.316406 250.957031 284.882812 251.1875 285.582031 251.1875 C 286.164062 251.1875 286.695312 251 287.1875 250.625 C 287.671875 250.238281 288.019531 249.6875 288.226562 248.980469 Z M 288.226562 248.980469 "/>
<path style=" stroke:none;fill-rule:nonzero;fill:rgb(0%,0%,0%);fill-opacity:1;" d="M 290.207031 252 L 292 243.417969 L 298.207031 243.417969 L 298 244.394531 L 292.957031 244.394531 L 292.394531 247.0625 L 297.3125 247.0625 L 297.101562 248.042969 L 292.1875 248.042969 L 291.5625 251.019531 L 296.957031 251.019531 L 296.769531 252 Z M 290.207031 252 "/>
<path style=" stroke:none;fill-rule:nonzero;fill:rgb(0%,0%,0%);fill-opacity:1;" d="M 362.703125 228.667969 L 364.492188 220.082031 L 367.160156 220.082031 C 367.644531 220.082031 368.003906 220.097656 368.242188 220.125 C 368.617188 220.199219 368.9375 220.3125 369.203125 220.480469 C 369.460938 220.644531 369.664062 220.875 369.804688 221.167969 C 369.957031 221.457031 370.035156 221.78125 370.035156 222.125 C 370.035156 222.597656 369.898438 223.015625 369.640625 223.375 C 369.390625 223.722656 368.992188 223.996094 368.453125 224.1875 C 368.921875 224.34375 369.269531 224.574219 369.492188 224.875 C 369.726562 225.183594 369.847656 225.535156 369.847656 225.9375 C 369.847656 226.425781 369.707031 226.886719 369.429688 227.3125 C 369.164062 227.746094 368.804688 228.078125 368.347656 228.3125 C 367.898438 228.550781 367.410156 228.667969 366.867188 228.667969 Z M 364.890625 223.75 L 366.617188 223.75 C 367.453125 223.75 368.046875 223.621094 368.410156 223.355469 C 368.785156 223.078125 368.972656 222.6875 368.972656 222.1875 C 368.972656 221.9375 368.910156 221.730469 368.785156 221.5625 C 368.671875 221.386719 368.519531 221.261719 368.328125 221.1875 C 368.144531 221.105469 367.789062 221.0625 367.265625 221.0625 L 365.453125 221.0625 Z M 364.054688 227.6875 L 366.015625 227.6875 C 366.523438 227.6875 366.875 227.675781 367.054688 227.644531 C 367.414062 227.578125 367.707031 227.472656 367.929688 227.332031 C 368.164062 227.183594 368.347656 226.980469 368.472656 226.730469 C 368.609375 226.480469 368.679688 226.222656 368.679688 225.957031 C 368.679688 225.558594 368.546875 225.25 368.285156 225.042969 C 368.035156 224.832031 367.554688 224.730469 366.847656 224.730469 L 364.679688 224.730469 Z M 364.054688 227.6875 "/>
<path style=" stroke:none;fill-rule:nonzero;fill:rgb(0%,0%,0%);fill-opacity:1;" d="M 362.722656 300.667969 L 364.515625 292.082031 L 370.722656 292.082031 L 370.515625 293.0625 L 365.472656 293.0625 L 364.910156 295.730469 L 369.828125 295.730469 L 369.617188 296.707031 L 364.703125 296.707031 L 364.078125 299.6875 L 369.472656 299.6875 L 369.285156 300.667969 Z M 362.722656 300.667969 "/>
<path style="fill:none;stroke-width:1;stroke-linecap:round;stroke-linejoin:round;stroke:rgb(0%,0%,0%);stroke-opacity:1;stroke-miterlimit:10;" d="M 372.500977 323.008789 L 404.493164 313.293945 " transform="matrix(1.333333,0,0,1.333333,-192,-186.666667)"/>
<path style="fill:none;stroke-width:1;stroke-linecap:butt;stroke-linejoin:miter;stroke:rgb(0%,0%,0%);stroke-opacity:1;stroke-miterlimit:10;" d="M 408.319336 312.133789 L 404.493164 313.293945 M 404.053711 311.858398 L 408.319336 312.133789 L 404.929688 314.729492 " transform="matrix(1.333333,0,0,1.333333,-192,-186.666667)"/>
<path style="fill:none;stroke-width:1;stroke-linecap:round;stroke-linejoin:round;stroke:rgb(0%,0%,0%);stroke-opacity:1;stroke-miterlimit:10;" d="M 372.500977 333.78125 L 405.152344 354.461914 " transform="matrix(1.333333,0,0,1.333333,-192,-186.666667)"/>
<path style="fill:none;stroke-width:1;stroke-linecap:butt;stroke-linejoin:miter;stroke:rgb(0%,0%,0%);stroke-opacity:1;stroke-miterlimit:10;" d="M 408.530273 356.600586 L 405.152344 354.461914 M 405.958008 353.196289 L 408.530273 356.600586 L 404.352539 355.727539 " transform="matrix(1.333333,0,0,1.333333,-192,-186.666667)"/>
<path style=" stroke:none;fill-rule:nonzero;fill:rgb(0%,0%,0%);fill-opacity:1;" d="M 369.078125 247.644531 L 370.226562 247.792969 C 369.859375 248.792969 369.335938 249.550781 368.640625 250.0625 C 367.960938 250.5625 367.1875 250.8125 366.328125 250.8125 C 365.289062 250.8125 364.460938 250.496094 363.851562 249.855469 C 363.234375 249.21875 362.933594 248.308594 362.933594 247.125 C 362.933594 245.574219 363.398438 244.292969 364.328125 243.292969 C 365.164062 242.390625 366.1875 241.9375 367.414062 241.9375 C 368.328125 241.9375 369.0625 242.183594 369.621094 242.667969 C 370.1875 243.15625 370.523438 243.808594 370.621094 244.625 L 369.539062 244.730469 C 369.421875 244.105469 369.1875 243.640625 368.828125 243.332031 C 368.480469 243.03125 368.027344 242.875 367.476562 242.875 C 366.417969 242.875 365.570312 243.34375 364.933594 244.269531 C 364.359375 245.078125 364.078125 246.035156 364.078125 247.144531 C 364.078125 248.035156 364.292969 248.707031 364.726562 249.167969 C 365.167969 249.625 365.734375 249.855469 366.433594 249.855469 C 367.015625 249.855469 367.546875 249.667969 368.039062 249.292969 C 368.523438 248.90625 368.871094 248.355469 369.078125 247.644531 Z M 369.078125 247.644531 "/>
<path style="fill-rule:nonzero;fill:rgb(69.803923%,85.09804%,100%);fill-opacity:1;stroke-width:1;stroke-linecap:round;stroke-linejoin:round;stroke:rgb(0%,0%,0%);stroke-opacity:1;stroke-miterlimit:10;" d="M 423.585938 337.050781 C 426.319336 339.78418 426.319336 344.213867 423.585938 346.950195 C 420.855469 349.683594 416.422852 349.683594 413.686523 346.950195 C 410.953125 344.213867 410.953125 339.78418 413.686523 337.050781 C 416.422852 334.317383 420.855469 334.317383 423.585938 337.050781 " transform="matrix(1.333333,0,0,1.333333,-192,-186.666667)"/>
<path style=" stroke:none;fill-rule:nonzero;fill:rgb(0%,0%,0%);fill-opacity:1;" d="M 362.390625 273.136719 L 364.183594 264.554688 L 366.765625 264.554688 C 367.390625 264.554688 367.859375 264.59375 368.183594 264.679688 C 368.652344 264.804688 369.058594 265.027344 369.390625 265.34375 C 369.726562 265.652344 369.976562 266.042969 370.140625 266.511719 C 370.308594 266.96875 370.390625 267.484375 370.390625 268.054688 C 370.390625 268.75 370.289062 269.382812 370.078125 269.949219 C 369.871094 270.523438 369.589844 271.023438 369.246094 271.449219 C 368.914062 271.882812 368.558594 272.21875 368.183594 272.46875 C 367.820312 272.710938 367.390625 272.886719 366.890625 273.011719 C 366.5 273.09375 366.027344 273.136719 365.476562 273.136719 Z M 363.746094 272.15625 L 365.101562 272.15625 C 365.710938 272.15625 366.25 272.105469 366.726562 271.992188 C 367.027344 271.921875 367.289062 271.820312 367.496094 271.679688 C 367.773438 271.511719 368.023438 271.28125 368.246094 270.992188 C 368.546875 270.605469 368.789062 270.167969 368.953125 269.679688 C 369.132812 269.195312 369.226562 268.636719 369.226562 268.011719 C 369.226562 267.320312 369.101562 266.78125 368.851562 266.40625 C 368.609375 266.03125 368.308594 265.78125 367.933594 265.65625 C 367.652344 265.574219 367.226562 265.53125 366.640625 265.53125 L 365.121094 265.53125 Z M 363.746094 272.15625 "/>
<path style="fill:none;stroke-width:1;stroke-linecap:round;stroke-linejoin:round;stroke:rgb(0%,0%,0%);stroke-opacity:1;stroke-miterlimit:10;" d="M 372.500977 329.594727 L 406.180664 338.647461 " transform="matrix(1.333333,0,0,1.333333,-192,-186.666667)"/>
<path style="fill:none;stroke-width:1;stroke-linecap:butt;stroke-linejoin:miter;stroke:rgb(0%,0%,0%);stroke-opacity:1;stroke-miterlimit:10;" d="M 410.041992 339.6875 L 406.180664 338.647461 M 406.570312 337.200195 L 410.041992 339.6875 L 405.788086 340.097656 " transform="matrix(1.333333,0,0,1.333333,-192,-186.666667)"/>
<path style="fill:none;stroke-width:1;stroke-linecap:round;stroke-linejoin:round;stroke:rgb(0%,0%,0%);stroke-opacity:1;stroke-miterlimit:10;" d="M 372.500977 326.301758 L 404.238281 325.750977 " transform="matrix(1.333333,0,0,1.333333,-192,-186.666667)"/>
<path style="fill:none;stroke-width:1;stroke-linecap:butt;stroke-linejoin:miter;stroke:rgb(0%,0%,0%);stroke-opacity:1;stroke-miterlimit:10;" d="M 408.237305 325.680664 L 404.238281 325.750977 M 404.211914 324.250977 L 408.237305 325.680664 L 404.264648 327.250977 " transform="matrix(1.333333,0,0,1.333333,-192,-186.666667)"/>
<path style=" stroke:none;fill-rule:nonzero;fill:rgb(0%,0%,0%);fill-opacity:1;" d="M 369.078125 120.3125 L 370.226562 120.457031 C 369.859375 121.457031 369.335938 122.21875 368.640625 122.730469 C 367.960938 123.230469 367.1875 123.480469 366.328125 123.480469 C 365.289062 123.480469 364.460938 123.160156 363.851562 122.519531 C 363.234375 121.886719 362.933594 120.972656 362.933594 119.792969 C 362.933594 118.238281 363.398438 116.957031 364.328125 115.957031 C 365.164062 115.058594 366.1875 114.605469 367.414062 114.605469 C 368.328125 114.605469 369.0625 114.847656 369.621094 115.332031 C 370.1875 115.824219 370.523438 116.472656 370.621094 117.292969 L 369.539062 117.394531 C 369.421875 116.769531 369.1875 116.308594 368.828125 116 C 368.480469 115.699219 368.027344 115.542969 367.476562 115.542969 C 366.417969 115.542969 365.570312 116.011719 364.933594 116.9375 C 364.359375 117.746094 364.078125 118.703125 364.078125 119.8125 C 364.078125 120.703125 364.292969 121.375 364.726562 121.832031 C 365.167969 122.292969 365.734375 122.519531 366.433594 122.519531 C 367.015625 122.519531 367.546875 122.332031 368.039062 121.957031 C 368.523438 121.574219 368.871094 121.019531 369.078125 120.3125 Z M 369.078125 120.3125 "/>
<path style="fill:none;stroke-width:1;stroke-linecap:round;stroke-linejoin:round;stroke:rgb(0%,0%,0%);stroke-opacity:1;stroke-miterlimit:10;" d="M 372.500977 230 L 404.238281 230 " transform="matrix(1.333333,0,0,1.333333,-192,-186.666667)"/>
<path style="fill:none;stroke-width:1;stroke-linecap:butt;stroke-linejoin:miter;stroke:rgb(0%,0%,0%);stroke-opacity:1;stroke-miterlimit:10;" d="M 408.237305 230 L 404.238281 230 M 404.238281 228.5 L 408.237305 230 L 404.238281 231.5 " transform="matrix(1.333333,0,0,1.333333,-192,-186.666667)"/>
<path style=" stroke:none;fill-rule:nonzero;fill:rgb(0%,0%,0%);fill-opacity:1;" d="M 361.929688 209.363281 L 366.804688 200.78125 L 368.160156 200.78125 L 369.578125 209.363281 L 368.472656 209.363281 L 368.054688 206.886719 L 364.578125 206.886719 L 363.203125 209.363281 Z M 365.078125 206.011719 L 367.910156 206.011719 L 367.578125 203.84375 C 367.453125 203 367.375 202.292969 367.347656 201.71875 C 367.140625 202.207031 366.847656 202.792969 366.472656 203.46875 Z M 365.078125 206.011719 "/>
<path style="fill:none;stroke-width:1;stroke-linecap:round;stroke-linejoin:round;stroke:rgb(0%,0%,0%);stroke-opacity:1;stroke-miterlimit:10;" d="M 372.500977 320.120117 L 404.976562 302.102539 " transform="matrix(1.333333,0,0,1.333333,-192,-186.666667)"/>
<path style="fill:none;stroke-width:1;stroke-linecap:butt;stroke-linejoin:miter;stroke:rgb(0%,0%,0%);stroke-opacity:1;stroke-miterlimit:10;" d="M 408.477539 300.160156 L 404.976562 302.102539 M 404.25 300.790039 L 408.477539 300.160156 L 405.706055 303.415039 " transform="matrix(1.333333,0,0,1.333333,-192,-186.666667)"/>
<path style=" stroke:none;fill-rule:nonzero;fill:rgb(0%,0%,0%);fill-opacity:1;" d="M 434.078125 123.332031 L 438.953125 114.75 L 440.308594 114.75 L 441.726562 123.332031 L 440.621094 123.332031 L 440.203125 120.855469 L 436.726562 120.855469 L 435.351562 123.332031 Z M 437.226562 119.980469 L 440.058594 119.980469 L 439.726562 117.8125 C 439.601562 116.96875 439.523438 116.261719 439.496094 115.6875 C 439.289062 116.175781 438.996094 116.761719 438.621094 117.4375 Z M 437.226562 119.980469 "/>
<path style=" stroke:none;fill-rule:nonzero;fill:rgb(0%,0%,0%);fill-opacity:1;" d="M 442.855469 123.332031 L 444.644531 114.75 L 447.3125 114.75 C 447.796875 114.75 448.15625 114.765625 448.394531 114.792969 C 448.769531 114.863281 449.089844 114.980469 449.355469 115.144531 C 449.613281 115.3125 449.816406 115.542969 449.957031 115.832031 C 450.109375 116.125 450.1875 116.449219 450.1875 116.792969 C 450.1875 117.265625 450.050781 117.683594 449.792969 118.042969 C 449.542969 118.390625 449.144531 118.660156 448.605469 118.855469 C 449.074219 119.011719 449.421875 119.238281 449.644531 119.542969 C 449.878906 119.847656 450 120.203125 450 120.605469 C 450 121.09375 449.859375 121.550781 449.582031 121.980469 C 449.316406 122.410156 448.957031 122.746094 448.5 122.980469 C 448.050781 123.21875 447.5625 123.332031 447.019531 123.332031 Z M 445.042969 118.417969 L 446.769531 118.417969 C 447.605469 118.417969 448.199219 118.285156 448.5625 118.019531 C 448.9375 117.746094 449.125 117.355469 449.125 116.855469 C 449.125 116.605469 449.0625 116.394531 448.9375 116.230469 C 448.824219 116.050781 448.671875 115.925781 448.480469 115.855469 C 448.296875 115.769531 447.941406 115.730469 447.417969 115.730469 L 445.605469 115.730469 Z M 444.207031 122.355469 L 446.167969 122.355469 C 446.675781 122.355469 447.027344 122.34375 447.207031 122.3125 C 447.566406 122.246094 447.859375 122.140625 448.082031 122 C 448.316406 121.847656 448.5 121.644531 448.625 121.394531 C 448.761719 121.144531 448.832031 120.890625 448.832031 120.625 C 448.832031 120.222656 448.699219 119.917969 448.4375 119.707031 C 448.1875 119.5 447.707031 119.394531 447 119.394531 L 444.832031 119.394531 Z M 444.207031 122.355469 "/>
<path style=" stroke:none;fill-rule:nonzero;fill:rgb(0%,0%,0%);fill-opacity:1;" d="M 450.878906 123.332031 L 452.671875 114.75 L 455.253906 114.75 C 455.878906 114.75 456.347656 114.792969 456.671875 114.875 C 457.140625 115 457.546875 115.222656 457.878906 115.542969 C 458.210938 115.847656 458.460938 116.238281 458.628906 116.707031 C 458.796875 117.167969 458.878906 117.683594 458.878906 118.25 C 458.878906 118.949219 458.773438 119.578125 458.566406 120.144531 C 458.359375 120.71875 458.078125 121.21875 457.734375 121.644531 C 457.398438 122.078125 457.046875 122.417969 456.671875 122.667969 C 456.304688 122.90625 455.878906 123.082031 455.378906 123.207031 C 454.988281 123.292969 454.515625 123.332031 453.960938 123.332031 Z M 452.234375 122.355469 L 453.585938 122.355469 C 454.195312 122.355469 454.738281 122.300781 455.210938 122.1875 C 455.515625 122.121094 455.773438 122.015625 455.984375 121.875 C 456.257812 121.707031 456.507812 121.480469 456.734375 121.1875 C 457.035156 120.800781 457.273438 120.363281 457.441406 119.875 C 457.617188 119.390625 457.710938 118.832031 457.710938 118.207031 C 457.710938 117.515625 457.585938 116.980469 457.335938 116.605469 C 457.097656 116.230469 456.796875 115.980469 456.421875 115.855469 C 456.140625 115.769531 455.710938 115.730469 455.128906 115.730469 L 453.609375 115.730469 Z M 452.234375 122.355469 "/>
<path style=" stroke:none;fill-rule:nonzero;fill:rgb(0%,0%,0%);fill-opacity:1;" d="M 441.226562 248.980469 L 442.375 249.125 C 442.007812 250.125 441.484375 250.886719 440.789062 251.394531 C 440.109375 251.894531 439.335938 252.144531 438.476562 252.144531 C 437.4375 252.144531 436.609375 251.828125 436 251.1875 C 435.382812 250.550781 435.082031 249.640625 435.082031 248.457031 C 435.082031 246.90625 435.546875 245.625 436.476562 244.625 C 437.3125 243.722656 438.335938 243.269531 439.5625 243.269531 C 440.476562 243.269531 441.210938 243.515625 441.769531 244 C 442.335938 244.488281 442.671875 245.140625 442.769531 245.957031 L 441.6875 246.0625 C 441.570312 245.4375 441.335938 244.972656 440.976562 244.667969 C 440.628906 244.363281 440.175781 244.207031 439.625 244.207031 C 438.566406 244.207031 437.71875 244.675781 437.082031 245.605469 C 436.507812 246.410156 436.226562 247.371094 436.226562 248.480469 C 436.226562 249.371094 436.441406 250.042969 436.875 250.5 C 437.316406 250.957031 437.882812 251.1875 438.582031 251.1875 C 439.164062 251.1875 439.695312 251 440.1875 250.625 C 440.671875 250.238281 441.019531 249.6875 441.226562 248.980469 Z M 441.226562 248.980469 "/>
<path style=" stroke:none;fill-rule:nonzero;fill:rgb(0%,0%,0%);fill-opacity:1;" d="M 443.207031 252 L 445 243.417969 L 451.207031 243.417969 L 451 244.394531 L 445.957031 244.394531 L 445.394531 247.0625 L 450.3125 247.0625 L 450.101562 248.042969 L 445.1875 248.042969 L 444.5625 251.019531 L 449.957031 251.019531 L 449.769531 252 Z M 443.207031 252 "/>
<path style=" stroke:none;fill-rule:nonzero;fill:rgb(0%,0%,0%);fill-opacity:1;" d="M 451.210938 252 L 453.003906 243.417969 L 455.585938 243.417969 C 456.210938 243.417969 456.679688 243.457031 457.003906 243.542969 C 457.472656 243.667969 457.878906 243.890625 458.210938 244.207031 C 458.542969 244.515625 458.792969 244.90625 458.960938 245.375 C 459.128906 245.832031 459.210938 246.347656 459.210938 246.917969 C 459.210938 247.613281 459.105469 248.246094 458.898438 248.8125 C 458.691406 249.386719 458.410156 249.886719 458.066406 250.3125 C 457.730469 250.746094 457.378906 251.082031 457.003906 251.332031 C 456.636719 251.574219 456.210938 251.75 455.710938 251.875 C 455.320312 251.957031 454.847656 252 454.292969 252 Z M 452.566406 251.019531 L 453.917969 251.019531 C 454.527344 251.019531 455.070312 250.96875 455.542969 250.855469 C 455.847656 250.785156 456.105469 250.683594 456.316406 250.542969 C 456.589844 250.375 456.839844 250.144531 457.066406 249.855469 C 457.367188 249.46875 457.605469 249.03125 457.773438 248.542969 C 457.949219 248.058594 458.042969 247.5 458.042969 246.875 C 458.042969 246.183594 457.917969 245.644531 457.667969 245.269531 C 457.429688 244.894531 457.128906 244.644531 456.753906 244.519531 C 456.472656 244.4375 456.042969 244.394531 455.460938 244.394531 L 453.941406 244.394531 Z M 452.566406 251.019531 "/>
<path style="fill:none;stroke-width:1;stroke-linecap:round;stroke-linejoin:round;stroke:rgb(0%,0%,0%);stroke-opacity:1;stroke-dasharray:4,4;stroke-miterlimit:10;" d="M 216.870117 240.582031 L 245.499023 232.422852 " transform="matrix(1.333333,0,0,1.333333,-192,-186.666667)"/>
<path style="fill:none;stroke-width:1;stroke-linecap:round;stroke-linejoin:round;stroke:rgb(0%,0%,0%);stroke-opacity:1;stroke-dasharray:4,4;stroke-miterlimit:10;" d="M 214.804688 282.713867 L 245.499023 317.00293 " transform="matrix(1.333333,0,0,1.333333,-192,-186.666667)"/>
<path style="fill:none;stroke-width:1;stroke-linecap:round;stroke-linejoin:round;stroke:rgb(0%,0%,0%);stroke-opacity:1;stroke-dasharray:4,4;stroke-miterlimit:10;" d="M 318.196289 213.957031 L 349.5 225.69043 " transform="matrix(1.333333,0,0,1.333333,-192,-186.666667)"/>
<path style="fill:none;stroke-width:1;stroke-linecap:round;stroke-linejoin:round;stroke:rgb(0%,0%,0%);stroke-opacity:1;stroke-dasharray:4,4;stroke-miterlimit:10;" d="M 317.458008 355.610352 L 349.5 334.188477 " transform="matrix(1.333333,0,0,1.333333,-192,-186.666667)"/>
<path style="fill:none;stroke-width:1;stroke-linecap:round;stroke-linejoin:round;stroke:rgb(0%,0%,0%);stroke-opacity:1;stroke-dasharray:4,4;stroke-miterlimit:10;" d="M 425.364258 245.550781 L 464.499023 234.204102 " transform="matrix(1.333333,0,0,1.333333,-192,-186.666667)"/>
<path style="fill:none;stroke-width:1;stroke-linecap:round;stroke-linejoin:round;stroke:rgb(0%,0%,0%);stroke-opacity:1;stroke-dasharray:4,4;stroke-miterlimit:10;" d="M 425.416992 340.258789 L 464.000977 330.350586 " transform="matrix(1.333333,0,0,1.333333,-192,-186.666667)"/>
<path style=" stroke:none;fill-rule:nonzero;fill:rgb(0%,0%,0%);fill-opacity:1;" d="M 270.765625 11.378906 L 267.308594 11.378906 L 267.308594 20.503906 L 268.164062 20.503906 L 268.164062 19.421875 L 269.933594 19.421875 L 269.933594 20.210938 L 270.765625 20.210938 Z M 268.164062 18.609375 L 268.164062 15.710938 L 269.933594 15.710938 L 269.933594 18.609375 Z M 268.164062 14.921875 L 268.164062 12.171875 L 269.933594 12.171875 L 269.933594 14.921875 Z M 272.496094 14.941406 L 271.789062 15.398438 C 272.515625 16.503906 273.078125 17.503906 273.496094 18.398438 L 274.203125 17.898438 C 273.808594 17.066406 273.246094 16.066406 272.496094 14.941406 Z M 275.226562 21.359375 C 275.976562 21.359375 276.351562 20.960938 276.351562 20.210938 L 276.351562 13.503906 L 277.828125 13.503906 L 277.828125 12.671875 L 276.351562 12.671875 L 276.351562 10.566406 L 275.476562 10.566406 L 275.476562 12.671875 L 271.328125 12.671875 L 271.328125 13.503906 L 275.476562 13.503906 L 275.476562 20.003906 C 275.476562 20.378906 275.289062 20.566406 274.953125 20.566406 C 274.308594 20.566406 273.640625 20.546875 272.953125 20.523438 L 273.140625 21.359375 Z M 275.226562 21.359375 "/>
<path style=" stroke:none;fill-rule:nonzero;fill:rgb(0%,0%,0%);fill-opacity:1;" d="M 281.996094 13.734375 L 281.996094 19.316406 L 286.558594 19.316406 L 286.558594 13.734375 Z M 285.765625 18.546875 L 282.808594 18.546875 L 282.808594 16.898438 L 285.765625 16.898438 Z M 282.808594 16.128906 L 282.808594 14.484375 L 285.765625 14.484375 L 285.765625 16.128906 Z M 287.914062 21.378906 C 288.703125 21.378906 289.121094 20.941406 289.121094 20.109375 L 289.121094 11.066406 L 283.621094 11.066406 L 283.621094 11.878906 L 288.289062 11.878906 L 288.289062 19.859375 C 288.289062 20.335938 288.078125 20.609375 287.726562 20.609375 L 286.683594 20.566406 L 286.890625 21.378906 Z M 279.515625 12.460938 L 279.515625 21.484375 L 280.351562 21.484375 L 280.351562 12.460938 Z M 281.265625 10.359375 L 280.476562 10.710938 C 280.996094 11.359375 281.496094 12.109375 281.953125 12.941406 L 282.726562 12.523438 C 282.308594 11.734375 281.808594 11.023438 281.265625 10.359375 Z M 281.265625 10.359375 "/>
<path style=" stroke:none;fill-rule:nonzero;fill:rgb(0%,0%,0%);fill-opacity:1;" d="M 295.953125 10.441406 L 295.953125 14.378906 L 293.703125 14.378906 L 293.703125 11.378906 L 292.828125 11.378906 L 292.828125 14.378906 L 290.996094 14.378906 L 290.996094 15.234375 L 296.039062 15.234375 L 296.039062 18.835938 L 296.890625 18.835938 L 296.890625 15.234375 L 301.664062 15.234375 L 301.664062 14.378906 L 296.828125 14.378906 L 296.828125 12.734375 L 300.476562 12.734375 L 300.476562 11.898438 L 296.828125 11.898438 L 296.828125 10.441406 Z M 299.871094 16.109375 C 298.558594 19.148438 295.808594 20.691406 291.664062 20.691406 L 291.976562 21.523438 C 296.246094 21.503906 299.140625 19.835938 300.664062 16.523438 Z M 293.871094 15.753906 C 293.183594 16.816406 292.328125 17.734375 291.308594 18.523438 L 291.851562 19.234375 C 292.890625 18.398438 293.765625 17.421875 294.496094 16.316406 Z M 293.871094 15.753906 "/>
<path style=" stroke:none;fill-rule:nonzero;fill:rgb(0%,0%,0%);fill-opacity:1;" d="M 311.703125 19.253906 L 311.703125 20.273438 L 306.015625 20.273438 C 306.015625 20.023438 306.058594 19.785156 306.140625 19.546875 C 306.292969 19.160156 306.527344 18.773438 306.851562 18.398438 C 307.167969 18.023438 307.625 17.597656 308.226562 17.109375 C 309.152344 16.332031 309.777344 15.722656 310.101562 15.273438 C 310.433594 14.832031 310.601562 14.410156 310.601562 14.003906 C 310.601562 13.585938 310.445312 13.242188 310.140625 12.960938 C 309.851562 12.671875 309.464844 12.523438 308.996094 12.523438 C 308.480469 12.523438 308.070312 12.679688 307.765625 12.984375 C 307.460938 13.289062 307.308594 13.710938 307.308594 14.253906 L 306.226562 14.128906 C 306.292969 13.328125 306.570312 12.710938 307.058594 12.296875 C 307.542969 11.867188 308.195312 11.648438 309.015625 11.648438 C 309.835938 11.648438 310.480469 11.878906 310.953125 12.335938 C 311.4375 12.796875 311.683594 13.359375 311.683594 14.023438 C 311.683594 14.375 311.609375 14.710938 311.476562 15.046875 C 311.335938 15.378906 311.101562 15.734375 310.765625 16.109375 C 310.445312 16.472656 309.914062 16.972656 309.164062 17.609375 C 308.523438 18.140625 308.109375 18.5 307.933594 18.691406 C 307.75 18.890625 307.605469 19.078125 307.496094 19.253906 Z M 311.703125 19.253906 "/>
<path style=" stroke:none;fill-rule:nonzero;fill:rgb(0%,0%,0%);fill-opacity:1;" d="M 280.230469 27.796875 C 279.707031 29.648438 278.875 31.296875 277.75 32.734375 L 278.019531 33.648438 C 278.457031 33.148438 278.832031 32.648438 279.1875 32.085938 L 279.1875 38.835938 L 280 38.835938 L 280 30.691406 C 280.394531 29.898438 280.730469 29.046875 281 28.148438 Z M 281.019531 29.984375 L 281.019531 37.066406 L 281.8125 37.066406 L 281.8125 29.984375 Z M 282.355469 30.503906 L 282.355469 31.273438 L 288.480469 31.273438 L 288.480469 30.503906 L 287.25 30.503906 L 287.25 28.316406 L 282.917969 28.316406 L 282.917969 29.085938 L 286.394531 29.085938 L 286.394531 30.503906 Z M 283.6875 33.253906 L 285.019531 33.253906 L 285.019531 33.378906 C 285.019531 33.835938 284.957031 34.273438 284.875 34.710938 L 282.3125 34.710938 L 282.3125 35.460938 L 284.644531 35.460938 C 284.167969 36.691406 283.1875 37.585938 281.707031 38.148438 L 282.25 38.859375 C 283.75 38.210938 284.792969 37.210938 285.355469 35.859375 C 285.957031 36.941406 286.9375 37.921875 288.269531 38.816406 L 288.832031 38.109375 C 287.457031 37.316406 286.5 36.441406 285.9375 35.460938 L 288.6875 35.460938 L 288.6875 34.710938 L 285.707031 34.710938 C 285.792969 34.253906 285.832031 33.773438 285.855469 33.253906 L 288.1875 33.253906 L 288.1875 32.484375 L 284.082031 32.484375 C 284.1875 32.234375 284.3125 31.960938 284.417969 31.710938 L 283.6875 31.546875 C 283.3125 32.460938 282.875 33.234375 282.292969 33.796875 L 282.8125 34.421875 C 283.125 34.085938 283.4375 33.691406 283.6875 33.253906 Z M 283.6875 33.253906 "/>
<path style=" stroke:none;fill-rule:nonzero;fill:rgb(0%,0%,0%);fill-opacity:1;" d="M 290.855469 28.003906 L 290.25 28.566406 C 291.105469 29.234375 291.792969 29.859375 292.269531 30.460938 L 292.875 29.859375 C 292.3125 29.253906 291.644531 28.628906 290.855469 28.003906 Z M 297.8125 38.585938 L 300.605469 38.585938 L 300.8125 37.734375 C 300.5 37.753906 300.042969 37.753906 299.457031 37.773438 C 298.855469 37.796875 298.269531 37.796875 297.6875 37.796875 C 296.769531 37.796875 295.980469 37.796875 295.355469 37.773438 C 294.625 37.753906 294.082031 37.648438 293.707031 37.484375 C 293.375 37.335938 293.0625 37.085938 292.769531 36.734375 C 292.6875 36.628906 292.582031 36.523438 292.480469 36.460938 L 292.480469 31.960938 L 289.980469 31.960938 L 289.980469 32.753906 L 291.6875 32.753906 L 291.6875 36.398438 C 291.1875 36.628906 290.625 37.253906 289.980469 38.273438 L 290.625 38.859375 C 291.292969 37.734375 291.769531 37.171875 292.0625 37.171875 C 292.207031 37.171875 292.375 37.273438 292.542969 37.484375 C 292.917969 37.898438 293.332031 38.210938 293.792969 38.359375 C 294.269531 38.484375 294.917969 38.566406 295.6875 38.566406 C 296.457031 38.585938 297.167969 38.585938 297.8125 38.585938 Z M 296.792969 27.773438 L 296.792969 29.296875 L 295.207031 29.296875 C 295.355469 28.921875 295.480469 28.523438 295.605469 28.109375 L 294.769531 27.941406 C 294.480469 29.023438 294.019531 30.003906 293.375 30.921875 L 294.125 31.378906 C 294.375 31.003906 294.625 30.585938 294.832031 30.128906 L 296.792969 30.128906 L 296.792969 31.859375 L 293.667969 31.859375 L 293.667969 32.691406 L 295.605469 32.691406 C 295.5625 33.441406 295.4375 34.085938 295.230469 34.609375 C 294.917969 35.335938 294.292969 35.921875 293.3125 36.398438 L 293.875 37.085938 C 295 36.503906 295.75 35.753906 296.0625 34.835938 C 296.25 34.234375 296.375 33.523438 296.417969 32.691406 L 297.625 32.691406 L 297.625 36.085938 C 297.625 36.359375 297.6875 36.566406 297.875 36.753906 C 298.019531 36.921875 298.25 37.003906 298.5625 37.003906 L 299.417969 37.003906 C 299.832031 36.984375 300.125 36.878906 300.292969 36.710938 C 300.480469 36.523438 300.605469 35.941406 300.667969 34.941406 L 299.917969 34.691406 C 299.875 35.546875 299.769531 36.023438 299.625 36.128906 C 299.542969 36.210938 299.417969 36.234375 299.25 36.234375 L 298.8125 36.234375 C 298.542969 36.234375 298.4375 36.128906 298.4375 35.898438 L 298.4375 32.691406 L 300.4375 32.691406 L 300.4375 31.859375 L 297.625 31.859375 L 297.625 30.128906 L 300.019531 30.128906 L 300.019531 29.296875 L 297.625 29.296875 L 297.625 27.773438 Z M 296.792969 27.773438 "/>
<path style=" stroke:none;fill-rule:nonzero;fill:rgb(0%,0%,0%);fill-opacity:1;" d="M 428.101562 11.378906 L 424.640625 11.378906 L 424.640625 20.503906 L 425.496094 20.503906 L 425.496094 19.421875 L 427.265625 19.421875 L 427.265625 20.210938 L 428.101562 20.210938 Z M 425.496094 18.609375 L 425.496094 15.710938 L 427.265625 15.710938 L 427.265625 18.609375 Z M 425.496094 14.921875 L 425.496094 12.171875 L 427.265625 12.171875 L 427.265625 14.921875 Z M 429.828125 14.941406 L 429.121094 15.398438 C 429.851562 16.503906 430.414062 17.503906 430.828125 18.398438 L 431.539062 17.898438 C 431.140625 17.066406 430.578125 16.066406 429.828125 14.941406 Z M 432.558594 21.359375 C 433.308594 21.359375 433.683594 20.960938 433.683594 20.210938 L 433.683594 13.503906 L 435.164062 13.503906 L 435.164062 12.671875 L 433.683594 12.671875 L 433.683594 10.566406 L 432.808594 10.566406 L 432.808594 12.671875 L 428.664062 12.671875 L 428.664062 13.503906 L 432.808594 13.503906 L 432.808594 20.003906 C 432.808594 20.378906 432.621094 20.566406 432.289062 20.566406 C 431.640625 20.566406 430.976562 20.546875 430.289062 20.523438 L 430.476562 21.359375 Z M 432.558594 21.359375 "/>
<path style=" stroke:none;fill-rule:nonzero;fill:rgb(0%,0%,0%);fill-opacity:1;" d="M 439.328125 13.734375 L 439.328125 19.316406 L 443.890625 19.316406 L 443.890625 13.734375 Z M 443.101562 18.546875 L 440.140625 18.546875 L 440.140625 16.898438 L 443.101562 16.898438 Z M 440.140625 16.128906 L 440.140625 14.484375 L 443.101562 14.484375 L 443.101562 16.128906 Z M 445.246094 21.378906 C 446.039062 21.378906 446.453125 20.941406 446.453125 20.109375 L 446.453125 11.066406 L 440.953125 11.066406 L 440.953125 11.878906 L 445.621094 11.878906 L 445.621094 19.859375 C 445.621094 20.335938 445.414062 20.609375 445.058594 20.609375 L 444.015625 20.566406 L 444.226562 21.378906 Z M 436.851562 12.460938 L 436.851562 21.484375 L 437.683594 21.484375 L 437.683594 12.460938 Z M 438.601562 10.359375 L 437.808594 10.710938 C 438.328125 11.359375 438.828125 12.109375 439.289062 12.941406 L 440.058594 12.523438 C 439.640625 11.734375 439.140625 11.023438 438.601562 10.359375 Z M 438.601562 10.359375 "/>
<path style=" stroke:none;fill-rule:nonzero;fill:rgb(0%,0%,0%);fill-opacity:1;" d="M 453.289062 10.441406 L 453.289062 14.378906 L 451.039062 14.378906 L 451.039062 11.378906 L 450.164062 11.378906 L 450.164062 14.378906 L 448.328125 14.378906 L 448.328125 15.234375 L 453.371094 15.234375 L 453.371094 18.835938 L 454.226562 18.835938 L 454.226562 15.234375 L 458.996094 15.234375 L 458.996094 14.378906 L 454.164062 14.378906 L 454.164062 12.734375 L 457.808594 12.734375 L 457.808594 11.898438 L 454.164062 11.898438 L 454.164062 10.441406 Z M 457.203125 16.109375 C 455.890625 19.148438 453.140625 20.691406 448.996094 20.691406 L 449.308594 21.523438 C 453.578125 21.503906 456.476562 19.835938 457.996094 16.523438 Z M 451.203125 15.753906 C 450.515625 16.816406 449.664062 17.734375 448.640625 18.523438 L 449.183594 19.234375 C 450.226562 18.398438 451.101562 17.421875 451.828125 16.316406 Z M 451.203125 15.753906 "/>
<path style=" stroke:none;fill-rule:nonzero;fill:rgb(0%,0%,0%);fill-opacity:1;" d="M 463.496094 18.003906 L 464.558594 17.859375 C 464.683594 18.457031 464.882812 18.890625 465.164062 19.148438 C 465.453125 19.414062 465.8125 19.546875 466.246094 19.546875 C 466.730469 19.546875 467.140625 19.378906 467.476562 19.046875 C 467.820312 18.703125 467.996094 18.269531 467.996094 17.753906 C 467.996094 17.269531 467.835938 16.875 467.515625 16.566406 C 467.210938 16.25 466.8125 16.085938 466.328125 16.085938 C 466.121094 16.085938 465.871094 16.128906 465.578125 16.210938 L 465.703125 15.273438 C 465.773438 15.289062 465.828125 15.296875 465.871094 15.296875 C 466.3125 15.296875 466.714844 15.179688 467.078125 14.941406 C 467.4375 14.707031 467.621094 14.347656 467.621094 13.859375 C 467.621094 13.472656 467.484375 13.148438 467.226562 12.898438 C 466.960938 12.648438 466.621094 12.523438 466.203125 12.523438 C 465.796875 12.523438 465.460938 12.660156 465.183594 12.921875 C 464.917969 13.171875 464.746094 13.554688 464.664062 14.066406 L 463.601562 13.878906 C 463.734375 13.171875 464.027344 12.625 464.476562 12.234375 C 464.933594 11.847656 465.5 11.648438 466.183594 11.648438 C 466.652344 11.648438 467.085938 11.753906 467.476562 11.960938 C 467.875 12.160156 468.183594 12.429688 468.390625 12.773438 C 468.601562 13.125 468.703125 13.492188 468.703125 13.878906 C 468.703125 14.253906 468.601562 14.597656 468.390625 14.898438 C 468.195312 15.207031 467.902344 15.453125 467.515625 15.628906 C 468.027344 15.742188 468.421875 15.984375 468.703125 16.359375 C 468.980469 16.722656 469.121094 17.179688 469.121094 17.734375 C 469.121094 18.484375 468.839844 19.125 468.289062 19.648438 C 467.746094 20.164062 467.058594 20.421875 466.226562 20.421875 C 465.476562 20.421875 464.851562 20.203125 464.351562 19.753906 C 463.851562 19.3125 463.5625 18.726562 463.496094 18.003906 Z M 463.496094 18.003906 "/>
<path style=" stroke:none;fill-rule:nonzero;fill:rgb(0%,0%,0%);fill-opacity:1;" d="M 437.5625 27.796875 C 437.042969 29.648438 436.207031 31.296875 435.082031 32.734375 L 435.355469 33.648438 C 435.792969 33.148438 436.167969 32.648438 436.519531 32.085938 L 436.519531 38.835938 L 437.332031 38.835938 L 437.332031 30.691406 C 437.730469 29.898438 438.0625 29.046875 438.332031 28.148438 Z M 438.355469 29.984375 L 438.355469 37.066406 L 439.144531 37.066406 L 439.144531 29.984375 Z M 439.6875 30.503906 L 439.6875 31.273438 L 445.8125 31.273438 L 445.8125 30.503906 L 444.582031 30.503906 L 444.582031 28.316406 L 440.25 28.316406 L 440.25 29.085938 L 443.730469 29.085938 L 443.730469 30.503906 Z M 441.019531 33.253906 L 442.355469 33.253906 L 442.355469 33.378906 C 442.355469 33.835938 442.292969 34.273438 442.207031 34.710938 L 439.644531 34.710938 L 439.644531 35.460938 L 441.980469 35.460938 C 441.5 36.691406 440.519531 37.585938 439.042969 38.148438 L 439.582031 38.859375 C 441.082031 38.210938 442.125 37.210938 442.6875 35.859375 C 443.292969 36.941406 444.269531 37.921875 445.605469 38.816406 L 446.167969 38.109375 C 444.792969 37.316406 443.832031 36.441406 443.269531 35.460938 L 446.019531 35.460938 L 446.019531 34.710938 L 443.042969 34.710938 C 443.125 34.253906 443.167969 33.773438 443.1875 33.253906 L 445.519531 33.253906 L 445.519531 32.484375 L 441.417969 32.484375 C 441.519531 32.234375 441.644531 31.960938 441.75 31.710938 L 441.019531 31.546875 C 440.644531 32.460938 440.207031 33.234375 439.625 33.796875 L 440.144531 34.421875 C 440.457031 34.085938 440.769531 33.691406 441.019531 33.253906 Z M 441.019531 33.253906 "/>
<path style=" stroke:none;fill-rule:nonzero;fill:rgb(0%,0%,0%);fill-opacity:1;" d="M 448.1875 28.003906 L 447.582031 28.566406 C 448.4375 29.234375 449.125 29.859375 449.605469 30.460938 L 450.207031 29.859375 C 449.644531 29.253906 448.980469 28.628906 448.1875 28.003906 Z M 455.144531 38.585938 L 457.9375 38.585938 L 458.144531 37.734375 C 457.832031 37.753906 457.375 37.753906 456.792969 37.773438 C 456.1875 37.796875 455.605469 37.796875 455.019531 37.796875 C 454.105469 37.796875 453.3125 37.796875 452.6875 37.773438 C 451.957031 37.753906 451.417969 37.648438 451.042969 37.484375 C 450.707031 37.335938 450.394531 37.085938 450.105469 36.734375 C 450.019531 36.628906 449.917969 36.523438 449.8125 36.460938 L 449.8125 31.960938 L 447.3125 31.960938 L 447.3125 32.753906 L 449.019531 32.753906 L 449.019531 36.398438 C 448.519531 36.628906 447.957031 37.253906 447.3125 38.273438 L 447.957031 38.859375 C 448.625 37.734375 449.105469 37.171875 449.394531 37.171875 C 449.542969 37.171875 449.707031 37.273438 449.875 37.484375 C 450.25 37.898438 450.667969 38.210938 451.125 38.359375 C 451.605469 38.484375 452.25 38.566406 453.019531 38.566406 C 453.792969 38.585938 454.5 38.585938 455.144531 38.585938 Z M 454.125 27.773438 L 454.125 29.296875 L 452.542969 29.296875 C 452.6875 28.921875 452.8125 28.523438 452.9375 28.109375 L 452.105469 27.941406 C 451.8125 29.023438 451.355469 30.003906 450.707031 30.921875 L 451.457031 31.378906 C 451.707031 31.003906 451.957031 30.585938 452.167969 30.128906 L 454.125 30.128906 L 454.125 31.859375 L 451 31.859375 L 451 32.691406 L 452.9375 32.691406 C 452.894531 33.441406 452.769531 34.085938 452.5625 34.609375 C 452.25 35.335938 451.625 35.921875 450.644531 36.398438 L 451.207031 37.085938 C 452.332031 36.503906 453.082031 35.753906 453.394531 34.835938 C 453.582031 34.234375 453.707031 33.523438 453.75 32.691406 L 454.957031 32.691406 L 454.957031 36.085938 C 454.957031 36.359375 455.019531 36.566406 455.207031 36.753906 C 455.355469 36.921875 455.582031 37.003906 455.894531 37.003906 L 456.75 37.003906 C 457.167969 36.984375 457.457031 36.878906 457.625 36.710938 C 457.8125 36.523438 457.9375 35.941406 458 34.941406 L 457.25 34.691406 C 457.207031 35.546875 457.105469 36.023438 456.957031 36.128906 C 456.875 36.210938 456.75 36.234375 456.582031 36.234375 L 456.144531 36.234375 C 455.875 36.234375 455.769531 36.128906 455.769531 35.898438 L 455.769531 32.691406 L 457.769531 32.691406 L 457.769531 31.859375 L 454.957031 31.859375 L 454.957031 30.128906 L 457.355469 30.128906 L 457.355469 29.296875 L 454.957031 29.296875 L 454.957031 27.773438 Z M 454.125 27.773438 "/>
</g>
</svg>
