<?xml version="1.0" encoding="UTF-8"?>
<svg xmlns="http://www.w3.org/2000/svg" xmlns:xlink="http://www.w3.org/1999/xlink" width="188" height="116" viewBox="0 0 188 116" version="1.1">
<g id="surface1">
<path style="fill:none;stroke-width:1;stroke-linecap:round;stroke-linejoin:round;stroke:rgb(0%,0%,0%);stroke-opacity:1;stroke-miterlimit:10;" d="M 129.911133 254.700195 L 150.46582 254.700195 L 150.46582 270.801758 L 129.911133 270.801758 Z M 129.911133 254.700195 " transform="matrix(1.333333,0,0,1.333333,-120,-246.666667)"/>
<path style=" stroke:none;fill-rule:nonzero;fill:rgb(0%,0%,0%);fill-opacity:1;" d="M 59.078125 103.242188 C 59.078125 102.230469 59.179688 101.40625 59.390625 100.78125 C 59.597656 100.15625 59.898438 99.679688 60.304688 99.34375 C 60.722656 99.011719 61.242188 98.84375 61.867188 98.84375 C 62.335938 98.84375 62.75 98.945312 63.097656 99.136719 C 63.441406 99.320312 63.726562 99.585938 63.953125 99.929688 C 64.171875 100.277344 64.347656 100.699219 64.472656 101.199219 C 64.609375 101.699219 64.679688 102.382812 64.679688 103.242188 C 64.679688 104.242188 64.578125 105.054688 64.367188 105.679688 C 64.160156 106.292969 63.847656 106.773438 63.429688 107.117188 C 63.023438 107.449219 62.503906 107.617188 61.867188 107.617188 C 61.046875 107.617188 60.398438 107.320312 59.929688 106.71875 C 59.359375 106.011719 59.078125 104.855469 59.078125 103.242188 Z M 60.160156 103.242188 C 60.160156 104.648438 60.316406 105.585938 60.640625 106.054688 C 60.972656 106.511719 61.378906 106.742188 61.867188 106.742188 C 62.351562 106.742188 62.765625 106.511719 63.097656 106.054688 C 63.429688 105.585938 63.597656 104.648438 63.597656 103.242188 C 63.597656 101.824219 63.429688 100.886719 63.097656 100.429688 C 62.765625 99.960938 62.351562 99.71875 61.867188 99.71875 C 61.378906 99.71875 60.992188 99.921875 60.703125 100.324219 C 60.335938 100.855469 60.160156 101.824219 60.160156 103.242188 Z M 60.160156 103.242188 "/>
<path style=" stroke:none;fill-rule:nonzero;fill:rgb(0%,0%,0%);fill-opacity:1;" d="M 66.335938 107.46875 L 66.335938 106.261719 L 67.542969 106.261719 L 67.542969 107.46875 Z M 66.335938 107.46875 "/>
<path style=" stroke:none;fill-rule:nonzero;fill:rgb(0%,0%,0%);fill-opacity:1;" d="M 73.070312 107.46875 L 72.007812 107.46875 L 72.007812 100.742188 C 71.757812 100.992188 71.421875 101.242188 71.007812 101.492188 C 70.589844 101.730469 70.21875 101.902344 69.902344 102.011719 L 69.902344 100.992188 C 70.484375 100.730469 70.996094 100.402344 71.445312 100.011719 C 71.886719 99.609375 72.199219 99.21875 72.382812 98.84375 L 73.070312 98.84375 Z M 73.070312 107.46875 "/>
<path style="fill:none;stroke-width:1;stroke-linecap:round;stroke-linejoin:round;stroke:rgb(0%,0%,0%);stroke-opacity:1;stroke-miterlimit:10;" d="M 129.911133 238.601562 L 150.46582 238.601562 L 150.46582 254.700195 L 129.911133 254.700195 Z M 129.911133 238.601562 " transform="matrix(1.333333,0,0,1.333333,-120,-246.666667)"/>
<path style=" stroke:none;fill-rule:nonzero;fill:rgb(0%,0%,0%);fill-opacity:1;" d="M 59.078125 81.773438 C 59.078125 80.765625 59.179688 79.941406 59.390625 79.316406 C 59.597656 78.691406 59.898438 78.210938 60.304688 77.878906 C 60.722656 77.546875 61.242188 77.378906 61.867188 77.378906 C 62.335938 77.378906 62.75 77.476562 63.097656 77.671875 C 63.441406 77.851562 63.726562 78.117188 63.953125 78.460938 C 64.171875 78.8125 64.347656 79.234375 64.472656 79.734375 C 64.609375 80.234375 64.679688 80.914062 64.679688 81.773438 C 64.679688 82.773438 64.578125 83.585938 64.367188 84.210938 C 64.160156 84.828125 63.847656 85.304688 63.429688 85.648438 C 63.023438 85.984375 62.503906 86.148438 61.867188 86.148438 C 61.046875 86.148438 60.398438 85.851562 59.929688 85.253906 C 59.359375 84.546875 59.078125 83.390625 59.078125 81.773438 Z M 60.160156 81.773438 C 60.160156 83.179688 60.316406 84.117188 60.640625 84.585938 C 60.972656 85.046875 61.378906 85.273438 61.867188 85.273438 C 62.351562 85.273438 62.765625 85.046875 63.097656 84.585938 C 63.429688 84.117188 63.597656 83.179688 63.597656 81.773438 C 63.597656 80.359375 63.429688 79.421875 63.097656 78.960938 C 62.765625 78.492188 62.351562 78.253906 61.867188 78.253906 C 61.378906 78.253906 60.992188 78.457031 60.703125 78.859375 C 60.335938 79.390625 60.160156 80.359375 60.160156 81.773438 Z M 60.160156 81.773438 "/>
<path style=" stroke:none;fill-rule:nonzero;fill:rgb(0%,0%,0%);fill-opacity:1;" d="M 66.335938 86.003906 L 66.335938 84.796875 L 67.542969 84.796875 L 67.542969 86.003906 Z M 66.335938 86.003906 "/>
<path style=" stroke:none;fill-rule:nonzero;fill:rgb(0%,0%,0%);fill-opacity:1;" d="M 74.632812 84.984375 L 74.632812 86.003906 L 68.945312 86.003906 C 68.945312 85.753906 68.984375 85.515625 69.070312 85.273438 C 69.21875 84.890625 69.453125 84.503906 69.777344 84.128906 C 70.09375 83.753906 70.554688 83.328125 71.152344 82.835938 C 72.078125 82.0625 72.703125 81.453125 73.027344 81.003906 C 73.359375 80.5625 73.527344 80.140625 73.527344 79.734375 C 73.527344 79.316406 73.371094 78.972656 73.070312 78.691406 C 72.777344 78.398438 72.390625 78.253906 71.921875 78.253906 C 71.40625 78.253906 70.996094 78.410156 70.695312 78.710938 C 70.386719 79.019531 70.234375 79.441406 70.234375 79.984375 L 69.152344 79.859375 C 69.21875 79.054688 69.496094 78.441406 69.984375 78.023438 C 70.46875 77.597656 71.121094 77.378906 71.945312 77.378906 C 72.761719 77.378906 73.40625 77.609375 73.882812 78.066406 C 74.367188 78.523438 74.609375 79.085938 74.609375 79.753906 C 74.609375 80.101562 74.539062 80.441406 74.402344 80.773438 C 74.261719 81.109375 74.027344 81.460938 73.695312 81.835938 C 73.371094 82.203125 72.839844 82.703125 72.089844 83.335938 C 71.449219 83.867188 71.039062 84.226562 70.859375 84.421875 C 70.679688 84.617188 70.53125 84.804688 70.421875 84.984375 Z M 74.632812 84.984375 "/>
<path style="fill:none;stroke-width:1;stroke-linecap:round;stroke-linejoin:round;stroke:rgb(0%,0%,0%);stroke-opacity:1;stroke-miterlimit:10;" d="M 129.911133 222.5 L 150.46582 222.5 L 150.46582 238.601562 L 129.911133 238.601562 Z M 129.911133 222.5 " transform="matrix(1.333333,0,0,1.333333,-120,-246.666667)"/>
<path style=" stroke:none;fill-rule:nonzero;fill:rgb(0%,0%,0%);fill-opacity:1;" d="M 59.078125 60.308594 C 59.078125 59.296875 59.179688 58.472656 59.390625 57.847656 C 59.597656 57.222656 59.898438 56.746094 60.304688 56.410156 C 60.722656 56.078125 61.242188 55.910156 61.867188 55.910156 C 62.335938 55.910156 62.75 56.011719 63.097656 56.203125 C 63.441406 56.386719 63.726562 56.652344 63.953125 56.996094 C 64.171875 57.34375 64.347656 57.765625 64.472656 58.265625 C 64.609375 58.765625 64.679688 59.449219 64.679688 60.308594 C 64.679688 61.308594 64.578125 62.121094 64.367188 62.746094 C 64.160156 63.359375 63.847656 63.839844 63.429688 64.183594 C 63.023438 64.515625 62.503906 64.683594 61.867188 64.683594 C 61.046875 64.683594 60.398438 64.386719 59.929688 63.785156 C 59.359375 63.078125 59.078125 61.921875 59.078125 60.308594 Z M 60.160156 60.308594 C 60.160156 61.714844 60.316406 62.652344 60.640625 63.121094 C 60.972656 63.578125 61.378906 63.808594 61.867188 63.808594 C 62.351562 63.808594 62.765625 63.578125 63.097656 63.121094 C 63.429688 62.652344 63.597656 61.714844 63.597656 60.308594 C 63.597656 58.890625 63.429688 57.953125 63.097656 57.496094 C 62.765625 57.027344 62.351562 56.785156 61.867188 56.785156 C 61.378906 56.785156 60.992188 56.988281 60.703125 57.390625 C 60.335938 57.921875 60.160156 58.890625 60.160156 60.308594 Z M 60.160156 60.308594 "/>
<path style=" stroke:none;fill-rule:nonzero;fill:rgb(0%,0%,0%);fill-opacity:1;" d="M 66.335938 64.535156 L 66.335938 63.328125 L 67.542969 63.328125 L 67.542969 64.535156 Z M 66.335938 64.535156 "/>
<path style=" stroke:none;fill-rule:nonzero;fill:rgb(0%,0%,0%);fill-opacity:1;" d="M 74.632812 63.515625 L 74.632812 64.535156 L 68.945312 64.535156 C 68.945312 64.285156 68.984375 64.046875 69.070312 63.808594 C 69.21875 63.421875 69.453125 63.035156 69.777344 62.660156 C 70.09375 62.285156 70.554688 61.859375 71.152344 61.371094 C 72.078125 60.59375 72.703125 59.984375 73.027344 59.535156 C 73.359375 59.09375 73.527344 58.671875 73.527344 58.265625 C 73.527344 57.847656 73.371094 57.503906 73.070312 57.222656 C 72.777344 56.933594 72.390625 56.785156 71.921875 56.785156 C 71.40625 56.785156 70.996094 56.941406 70.695312 57.246094 C 70.386719 57.550781 70.234375 57.972656 70.234375 58.515625 L 69.152344 58.390625 C 69.21875 57.589844 69.496094 56.972656 69.984375 56.558594 C 70.46875 56.128906 71.121094 55.910156 71.945312 55.910156 C 72.761719 55.910156 73.40625 56.140625 73.882812 56.597656 C 74.367188 57.058594 74.609375 57.621094 74.609375 58.285156 C 74.609375 58.636719 74.539062 58.972656 74.402344 59.308594 C 74.261719 59.640625 74.027344 59.996094 73.695312 60.371094 C 73.371094 60.734375 72.839844 61.234375 72.089844 61.871094 C 71.449219 62.402344 71.039062 62.761719 70.859375 62.953125 C 70.679688 63.152344 70.53125 63.339844 70.421875 63.515625 Z M 74.632812 63.515625 "/>
<path style=" stroke:none;fill-rule:nonzero;fill:rgb(69.803923%,85.09804%,100%);fill-opacity:1;" d="M 53.214844 50 L 80.621094 50 L 80.621094 28.53125 L 53.214844 28.53125 Z M 53.214844 50 "/>
<path style="fill:none;stroke-width:1;stroke-linecap:round;stroke-linejoin:round;stroke:rgb(0%,0%,0%);stroke-opacity:1;stroke-miterlimit:10;" d="M 129.911133 206.398438 L 150.46582 206.398438 L 150.46582 222.5 L 129.911133 222.5 Z M 129.911133 206.398438 " transform="matrix(1.333333,0,0,1.333333,-120,-246.666667)"/>
<path style=" stroke:none;fill-rule:nonzero;fill:rgb(0%,0%,0%);fill-opacity:1;" d="M 59.078125 38.839844 C 59.078125 37.832031 59.179688 37.007812 59.390625 36.382812 C 59.597656 35.757812 59.898438 35.277344 60.304688 34.945312 C 60.722656 34.613281 61.242188 34.445312 61.867188 34.445312 C 62.335938 34.445312 62.75 34.542969 63.097656 34.738281 C 63.441406 34.917969 63.726562 35.183594 63.953125 35.527344 C 64.171875 35.878906 64.347656 36.300781 64.472656 36.800781 C 64.609375 37.300781 64.679688 37.980469 64.679688 38.839844 C 64.679688 39.839844 64.578125 40.652344 64.367188 41.277344 C 64.160156 41.894531 63.847656 42.371094 63.429688 42.714844 C 63.023438 43.050781 62.503906 43.214844 61.867188 43.214844 C 61.046875 43.214844 60.398438 42.917969 59.929688 42.320312 C 59.359375 41.613281 59.078125 40.457031 59.078125 38.839844 Z M 60.160156 38.839844 C 60.160156 40.246094 60.316406 41.183594 60.640625 41.652344 C 60.972656 42.113281 61.378906 42.339844 61.867188 42.339844 C 62.351562 42.339844 62.765625 42.113281 63.097656 41.652344 C 63.429688 41.183594 63.597656 40.246094 63.597656 38.839844 C 63.597656 37.425781 63.429688 36.488281 63.097656 36.027344 C 62.765625 35.558594 62.351562 35.320312 61.867188 35.320312 C 61.378906 35.320312 60.992188 35.523438 60.703125 35.925781 C 60.335938 36.457031 60.160156 37.425781 60.160156 38.839844 Z M 60.160156 38.839844 "/>
<path style=" stroke:none;fill-rule:nonzero;fill:rgb(0%,0%,0%);fill-opacity:1;" d="M 66.335938 43.070312 L 66.335938 41.863281 L 67.542969 41.863281 L 67.542969 43.070312 Z M 66.335938 43.070312 "/>
<path style=" stroke:none;fill-rule:nonzero;fill:rgb(0%,0%,0%);fill-opacity:1;" d="M 69.089844 40.820312 L 70.195312 40.714844 C 70.277344 41.257812 70.464844 41.667969 70.757812 41.945312 C 71.058594 42.210938 71.421875 42.339844 71.839844 42.339844 C 72.351562 42.339844 72.78125 42.152344 73.132812 41.777344 C 73.492188 41.394531 73.671875 40.882812 73.671875 40.257812 C 73.671875 39.648438 73.496094 39.167969 73.152344 38.820312 C 72.820312 38.476562 72.382812 38.300781 71.839844 38.300781 C 71.492188 38.300781 71.179688 38.382812 70.902344 38.550781 C 70.636719 38.707031 70.421875 38.898438 70.257812 39.132812 L 69.277344 39.007812 L 70.109375 34.589844 L 74.382812 34.589844 L 74.382812 35.613281 L 70.945312 35.613281 L 70.484375 37.902344 C 70.996094 37.558594 71.539062 37.382812 72.109375 37.382812 C 72.859375 37.382812 73.492188 37.644531 74.007812 38.152344 C 74.515625 38.667969 74.777344 39.335938 74.777344 40.152344 C 74.777344 40.933594 74.554688 41.605469 74.109375 42.175781 C 73.554688 42.871094 72.796875 43.214844 71.839844 43.214844 C 71.058594 43.214844 70.421875 43.003906 69.921875 42.570312 C 69.433594 42.128906 69.15625 41.542969 69.089844 40.820312 Z M 69.089844 40.820312 "/>
<path style=" stroke:none;fill-rule:nonzero;fill:rgb(0%,0%,0%);fill-opacity:1;" d="M 11.105469 12.109375 L 7.644531 12.109375 L 7.644531 21.234375 L 8.5 21.234375 L 8.5 20.148438 L 10.269531 20.148438 L 10.269531 20.941406 L 11.105469 20.941406 Z M 8.5 19.335938 L 8.5 16.441406 L 10.269531 16.441406 L 10.269531 19.335938 Z M 8.5 15.648438 L 8.5 12.898438 L 10.269531 12.898438 L 10.269531 15.648438 Z M 12.832031 15.671875 L 12.125 16.128906 C 12.855469 17.234375 13.417969 18.234375 13.832031 19.128906 L 14.542969 18.628906 C 14.144531 17.796875 13.582031 16.796875 12.832031 15.671875 Z M 15.5625 22.085938 C 16.3125 22.085938 16.6875 21.691406 16.6875 20.941406 L 16.6875 14.234375 L 18.167969 14.234375 L 18.167969 13.398438 L 16.6875 13.398438 L 16.6875 11.296875 L 15.8125 11.296875 L 15.8125 13.398438 L 11.667969 13.398438 L 11.667969 14.234375 L 15.8125 14.234375 L 15.8125 20.734375 C 15.8125 21.109375 15.625 21.296875 15.292969 21.296875 C 14.644531 21.296875 13.980469 21.273438 13.292969 21.253906 L 13.480469 22.085938 Z M 15.5625 22.085938 "/>
<path style=" stroke:none;fill-rule:nonzero;fill:rgb(0%,0%,0%);fill-opacity:1;" d="M 22.332031 14.460938 L 22.332031 20.046875 L 26.894531 20.046875 L 26.894531 14.460938 Z M 26.105469 19.273438 L 23.144531 19.273438 L 23.144531 17.628906 L 26.105469 17.628906 Z M 23.144531 16.859375 L 23.144531 15.210938 L 26.105469 15.210938 L 26.105469 16.859375 Z M 28.25 22.109375 C 29.042969 22.109375 29.457031 21.671875 29.457031 20.835938 L 29.457031 11.796875 L 23.957031 11.796875 L 23.957031 12.609375 L 28.625 12.609375 L 28.625 20.585938 C 28.625 21.066406 28.417969 21.335938 28.0625 21.335938 L 27.019531 21.296875 L 27.230469 22.109375 Z M 19.855469 13.191406 L 19.855469 22.210938 L 20.6875 22.210938 L 20.6875 13.191406 Z M 21.605469 11.085938 L 20.8125 11.441406 C 21.332031 12.085938 21.832031 12.835938 22.292969 13.671875 L 23.0625 13.253906 C 22.644531 12.460938 22.144531 11.753906 21.605469 11.085938 Z M 21.605469 11.085938 "/>
<path style=" stroke:none;fill-rule:nonzero;fill:rgb(0%,0%,0%);fill-opacity:1;" d="M 36.292969 11.171875 L 36.292969 15.109375 L 34.042969 15.109375 L 34.042969 12.109375 L 33.167969 12.109375 L 33.167969 15.109375 L 31.332031 15.109375 L 31.332031 15.960938 L 36.375 15.960938 L 36.375 19.566406 L 37.230469 19.566406 L 37.230469 15.960938 L 42 15.960938 L 42 15.109375 L 37.167969 15.109375 L 37.167969 13.460938 L 40.8125 13.460938 L 40.8125 12.628906 L 37.167969 12.628906 L 37.167969 11.171875 Z M 40.207031 16.835938 C 38.894531 19.878906 36.144531 21.421875 32 21.421875 L 32.3125 22.253906 C 36.582031 22.234375 39.480469 20.566406 41 17.253906 Z M 34.207031 16.484375 C 33.519531 17.546875 32.667969 18.460938 31.644531 19.253906 L 32.1875 19.960938 C 33.230469 19.128906 34.105469 18.148438 34.832031 17.046875 Z M 34.207031 16.484375 "/>
<path style=" stroke:none;fill-rule:nonzero;fill:rgb(0%,0%,0%);fill-opacity:1;" d="M 68.058594 18 L 66.996094 18 L 66.996094 11.269531 C 66.746094 11.519531 66.414062 11.769531 65.996094 12.019531 C 65.582031 12.261719 65.210938 12.433594 64.894531 12.542969 L 64.894531 11.519531 C 65.476562 11.261719 65.988281 10.933594 66.433594 10.542969 C 66.878906 10.140625 67.191406 9.75 67.371094 9.375 L 68.058594 9.375 Z M 68.058594 18 "/>
<path style="fill:none;stroke-width:1;stroke-linecap:round;stroke-linejoin:round;stroke:rgb(0%,0%,0%);stroke-opacity:1;stroke-miterlimit:10;" d="M 156.506836 254.700195 L 177.061523 254.700195 L 177.061523 270.801758 L 156.506836 270.801758 Z M 156.506836 254.700195 " transform="matrix(1.333333,0,0,1.333333,-120,-246.666667)"/>
<path style=" stroke:none;fill-rule:nonzero;fill:rgb(0%,0%,0%);fill-opacity:1;" d="M 94.542969 103.242188 C 94.542969 102.230469 94.644531 101.40625 94.855469 100.78125 C 95.0625 100.15625 95.363281 99.679688 95.769531 99.34375 C 96.1875 99.011719 96.707031 98.84375 97.332031 98.84375 C 97.800781 98.84375 98.214844 98.945312 98.5625 99.136719 C 98.90625 99.320312 99.191406 99.585938 99.417969 99.929688 C 99.636719 100.277344 99.8125 100.699219 99.9375 101.199219 C 100.074219 101.699219 100.144531 102.382812 100.144531 103.242188 C 100.144531 104.242188 100.042969 105.054688 99.832031 105.679688 C 99.625 106.292969 99.3125 106.773438 98.894531 107.117188 C 98.488281 107.449219 97.96875 107.617188 97.332031 107.617188 C 96.511719 107.617188 95.863281 107.320312 95.394531 106.71875 C 94.824219 106.011719 94.542969 104.855469 94.542969 103.242188 Z M 95.625 103.242188 C 95.625 104.648438 95.78125 105.585938 96.105469 106.054688 C 96.4375 106.511719 96.84375 106.742188 97.332031 106.742188 C 97.816406 106.742188 98.230469 106.511719 98.5625 106.054688 C 98.894531 105.585938 99.0625 104.648438 99.0625 103.242188 C 99.0625 101.824219 98.894531 100.886719 98.5625 100.429688 C 98.230469 99.960938 97.816406 99.71875 97.332031 99.71875 C 96.84375 99.71875 96.457031 99.921875 96.167969 100.324219 C 95.800781 100.855469 95.625 101.824219 95.625 103.242188 Z M 95.625 103.242188 "/>
<path style=" stroke:none;fill-rule:nonzero;fill:rgb(0%,0%,0%);fill-opacity:1;" d="M 101.796875 107.46875 L 101.796875 106.261719 L 103.007812 106.261719 L 103.007812 107.46875 Z M 101.796875 107.46875 "/>
<path style=" stroke:none;fill-rule:nonzero;fill:rgb(0%,0%,0%);fill-opacity:1;" d="M 110.09375 106.449219 L 110.09375 107.46875 L 104.40625 107.46875 C 104.40625 107.21875 104.449219 106.980469 104.53125 106.742188 C 104.683594 106.355469 104.917969 105.96875 105.242188 105.59375 C 105.558594 105.21875 106.015625 104.792969 106.617188 104.304688 C 107.542969 103.527344 108.167969 102.917969 108.492188 102.46875 C 108.824219 102.027344 108.992188 101.605469 108.992188 101.199219 C 108.992188 100.78125 108.835938 100.4375 108.53125 100.15625 C 108.242188 99.867188 107.855469 99.71875 107.386719 99.71875 C 106.871094 99.71875 106.460938 99.875 106.15625 100.179688 C 105.851562 100.484375 105.699219 100.90625 105.699219 101.449219 L 104.617188 101.324219 C 104.683594 100.523438 104.960938 99.90625 105.449219 99.492188 C 105.933594 99.0625 106.585938 98.84375 107.40625 98.84375 C 108.226562 98.84375 108.871094 99.074219 109.34375 99.53125 C 109.828125 99.992188 110.074219 100.554688 110.074219 101.21875 C 110.074219 101.570312 110 101.90625 109.867188 102.242188 C 109.726562 102.574219 109.492188 102.929688 109.15625 103.304688 C 108.835938 103.667969 108.304688 104.167969 107.554688 104.804688 C 106.914062 105.335938 106.5 105.695312 106.324219 105.886719 C 106.140625 106.085938 105.996094 106.273438 105.886719 106.449219 Z M 110.09375 106.449219 "/>
<path style="fill:none;stroke-width:1;stroke-linecap:round;stroke-linejoin:round;stroke:rgb(0%,0%,0%);stroke-opacity:1;stroke-miterlimit:10;" d="M 156.506836 206.398438 L 177.061523 206.398438 L 177.061523 222.5 L 156.506836 222.5 Z M 156.506836 206.398438 " transform="matrix(1.333333,0,0,1.333333,-120,-246.666667)"/>
<path style=" stroke:none;fill-rule:nonzero;fill:rgb(0%,0%,0%);fill-opacity:1;" d="M 94.542969 38.839844 C 94.542969 37.832031 94.644531 37.007812 94.855469 36.382812 C 95.0625 35.757812 95.363281 35.277344 95.769531 34.945312 C 96.1875 34.613281 96.707031 34.445312 97.332031 34.445312 C 97.800781 34.445312 98.214844 34.542969 98.5625 34.738281 C 98.90625 34.917969 99.191406 35.183594 99.417969 35.527344 C 99.636719 35.878906 99.8125 36.300781 99.9375 36.800781 C 100.074219 37.300781 100.144531 37.980469 100.144531 38.839844 C 100.144531 39.839844 100.042969 40.652344 99.832031 41.277344 C 99.625 41.894531 99.3125 42.371094 98.894531 42.714844 C 98.488281 43.050781 97.96875 43.214844 97.332031 43.214844 C 96.511719 43.214844 95.863281 42.917969 95.394531 42.320312 C 94.824219 41.613281 94.542969 40.457031 94.542969 38.839844 Z M 95.625 38.839844 C 95.625 40.246094 95.78125 41.183594 96.105469 41.652344 C 96.4375 42.113281 96.84375 42.339844 97.332031 42.339844 C 97.816406 42.339844 98.230469 42.113281 98.5625 41.652344 C 98.894531 41.183594 99.0625 40.246094 99.0625 38.839844 C 99.0625 37.425781 98.894531 36.488281 98.5625 36.027344 C 98.230469 35.558594 97.816406 35.320312 97.332031 35.320312 C 96.84375 35.320312 96.457031 35.523438 96.167969 35.925781 C 95.800781 36.457031 95.625 37.425781 95.625 38.839844 Z M 95.625 38.839844 "/>
<path style=" stroke:none;fill-rule:nonzero;fill:rgb(0%,0%,0%);fill-opacity:1;" d="M 101.796875 43.070312 L 101.796875 41.863281 L 103.007812 41.863281 L 103.007812 43.070312 Z M 101.796875 43.070312 "/>
<path style=" stroke:none;fill-rule:nonzero;fill:rgb(0%,0%,0%);fill-opacity:1;" d="M 108.53125 43.070312 L 107.46875 43.070312 L 107.46875 36.339844 C 107.21875 36.589844 106.886719 36.839844 106.46875 37.089844 C 106.054688 37.332031 105.683594 37.503906 105.367188 37.613281 L 105.367188 36.589844 C 105.949219 36.332031 106.460938 36.003906 106.90625 35.613281 C 107.351562 35.210938 107.664062 34.820312 107.84375 34.445312 L 108.53125 34.445312 Z M 108.53125 43.070312 "/>
<path style="fill:none;stroke-width:1;stroke-linecap:round;stroke-linejoin:round;stroke:rgb(0%,0%,0%);stroke-opacity:1;stroke-miterlimit:10;" d="M 156.506836 222.5 L 177.061523 222.5 L 177.061523 238.601562 L 156.506836 238.601562 Z M 156.506836 222.5 " transform="matrix(1.333333,0,0,1.333333,-120,-246.666667)"/>
<path style=" stroke:none;fill-rule:nonzero;fill:rgb(0%,0%,0%);fill-opacity:1;" d="M 94.542969 60.308594 C 94.542969 59.296875 94.644531 58.472656 94.855469 57.847656 C 95.0625 57.222656 95.363281 56.746094 95.769531 56.410156 C 96.1875 56.078125 96.707031 55.910156 97.332031 55.910156 C 97.800781 55.910156 98.214844 56.011719 98.5625 56.203125 C 98.90625 56.386719 99.191406 56.652344 99.417969 56.996094 C 99.636719 57.34375 99.8125 57.765625 99.9375 58.265625 C 100.074219 58.765625 100.144531 59.449219 100.144531 60.308594 C 100.144531 61.308594 100.042969 62.121094 99.832031 62.746094 C 99.625 63.359375 99.3125 63.839844 98.894531 64.183594 C 98.488281 64.515625 97.96875 64.683594 97.332031 64.683594 C 96.511719 64.683594 95.863281 64.386719 95.394531 63.785156 C 94.824219 63.078125 94.542969 61.921875 94.542969 60.308594 Z M 95.625 60.308594 C 95.625 61.714844 95.78125 62.652344 96.105469 63.121094 C 96.4375 63.578125 96.84375 63.808594 97.332031 63.808594 C 97.816406 63.808594 98.230469 63.578125 98.5625 63.121094 C 98.894531 62.652344 99.0625 61.714844 99.0625 60.308594 C 99.0625 58.890625 98.894531 57.953125 98.5625 57.496094 C 98.230469 57.027344 97.816406 56.785156 97.332031 56.785156 C 96.84375 56.785156 96.457031 56.988281 96.167969 57.390625 C 95.800781 57.921875 95.625 58.890625 95.625 60.308594 Z M 95.625 60.308594 "/>
<path style=" stroke:none;fill-rule:nonzero;fill:rgb(0%,0%,0%);fill-opacity:1;" d="M 101.796875 64.535156 L 101.796875 63.328125 L 103.007812 63.328125 L 103.007812 64.535156 Z M 101.796875 64.535156 "/>
<path style=" stroke:none;fill-rule:nonzero;fill:rgb(0%,0%,0%);fill-opacity:1;" d="M 107.929688 64.535156 L 107.929688 62.472656 L 104.199219 62.472656 L 104.199219 61.515625 L 108.117188 55.953125 L 108.992188 55.953125 L 108.992188 61.515625 L 110.15625 61.515625 L 110.15625 62.472656 L 108.992188 62.472656 L 108.992188 64.535156 Z M 107.929688 61.515625 L 107.929688 57.640625 L 105.242188 61.515625 Z M 107.929688 61.515625 "/>
<path style=" stroke:none;fill-rule:nonzero;fill:rgb(69.803923%,85.09804%,100%);fill-opacity:1;" d="M 88.675781 92.933594 L 116.082031 92.933594 L 116.082031 71.46875 L 88.675781 71.46875 Z M 88.675781 92.933594 "/>
<path style="fill:none;stroke-width:1;stroke-linecap:round;stroke-linejoin:round;stroke:rgb(0%,0%,0%);stroke-opacity:1;stroke-miterlimit:10;" d="M 156.506836 238.601562 L 177.061523 238.601562 L 177.061523 254.700195 L 156.506836 254.700195 Z M 156.506836 238.601562 " transform="matrix(1.333333,0,0,1.333333,-120,-246.666667)"/>
<path style=" stroke:none;fill-rule:nonzero;fill:rgb(0%,0%,0%);fill-opacity:1;" d="M 94.542969 81.773438 C 94.542969 80.765625 94.644531 79.941406 94.855469 79.316406 C 95.0625 78.691406 95.363281 78.210938 95.769531 77.878906 C 96.1875 77.546875 96.707031 77.378906 97.332031 77.378906 C 97.800781 77.378906 98.214844 77.476562 98.5625 77.671875 C 98.90625 77.851562 99.191406 78.117188 99.417969 78.460938 C 99.636719 78.8125 99.8125 79.234375 99.9375 79.734375 C 100.074219 80.234375 100.144531 80.914062 100.144531 81.773438 C 100.144531 82.773438 100.042969 83.585938 99.832031 84.210938 C 99.625 84.828125 99.3125 85.304688 98.894531 85.648438 C 98.488281 85.984375 97.96875 86.148438 97.332031 86.148438 C 96.511719 86.148438 95.863281 85.851562 95.394531 85.253906 C 94.824219 84.546875 94.542969 83.390625 94.542969 81.773438 Z M 95.625 81.773438 C 95.625 83.179688 95.78125 84.117188 96.105469 84.585938 C 96.4375 85.046875 96.84375 85.273438 97.332031 85.273438 C 97.816406 85.273438 98.230469 85.046875 98.5625 84.585938 C 98.894531 84.117188 99.0625 83.179688 99.0625 81.773438 C 99.0625 80.359375 98.894531 79.421875 98.5625 78.960938 C 98.230469 78.492188 97.816406 78.253906 97.332031 78.253906 C 96.84375 78.253906 96.457031 78.457031 96.167969 78.859375 C 95.800781 79.390625 95.625 80.359375 95.625 81.773438 Z M 95.625 81.773438 "/>
<path style=" stroke:none;fill-rule:nonzero;fill:rgb(0%,0%,0%);fill-opacity:1;" d="M 101.796875 86.003906 L 101.796875 84.796875 L 103.007812 84.796875 L 103.007812 86.003906 Z M 101.796875 86.003906 "/>
<path style=" stroke:none;fill-rule:nonzero;fill:rgb(0%,0%,0%);fill-opacity:1;" d="M 104.554688 83.734375 L 105.617188 83.585938 C 105.742188 84.1875 105.9375 84.617188 106.21875 84.878906 C 106.511719 85.144531 106.871094 85.273438 107.304688 85.273438 C 107.789062 85.273438 108.199219 85.109375 108.53125 84.773438 C 108.875 84.429688 109.054688 84 109.054688 83.484375 C 109.054688 83 108.890625 82.601562 108.574219 82.296875 C 108.265625 81.976562 107.871094 81.816406 107.386719 81.816406 C 107.179688 81.816406 106.929688 81.859375 106.636719 81.941406 L 106.761719 81.003906 C 106.828125 81.019531 106.886719 81.023438 106.929688 81.023438 C 107.371094 81.023438 107.773438 80.910156 108.136719 80.671875 C 108.496094 80.4375 108.679688 80.078125 108.679688 79.585938 C 108.679688 79.203125 108.542969 78.878906 108.28125 78.628906 C 108.015625 78.378906 107.679688 78.253906 107.261719 78.253906 C 106.855469 78.253906 106.515625 78.390625 106.242188 78.648438 C 105.976562 78.898438 105.804688 79.285156 105.71875 79.796875 L 104.65625 79.609375 C 104.792969 78.898438 105.085938 78.351562 105.53125 77.960938 C 105.992188 77.578125 106.558594 77.378906 107.242188 77.378906 C 107.710938 77.378906 108.140625 77.484375 108.53125 77.691406 C 108.933594 77.890625 109.242188 78.160156 109.449219 78.503906 C 109.65625 78.851562 109.761719 79.222656 109.761719 79.609375 C 109.761719 79.984375 109.65625 80.328125 109.449219 80.628906 C 109.25 80.9375 108.960938 81.179688 108.574219 81.359375 C 109.085938 81.472656 109.480469 81.710938 109.761719 82.085938 C 110.039062 82.453125 110.179688 82.910156 110.179688 83.460938 C 110.179688 84.210938 109.898438 84.851562 109.34375 85.378906 C 108.804688 85.894531 108.117188 86.148438 107.28125 86.148438 C 106.53125 86.148438 105.90625 85.929688 105.40625 85.484375 C 104.90625 85.039062 104.621094 84.457031 104.554688 83.734375 Z M 104.554688 83.734375 "/>
<path style=" stroke:none;fill-rule:nonzero;fill:rgb(0%,0%,0%);fill-opacity:1;" d="M 105.085938 16.847656 L 105.085938 17.867188 L 99.398438 17.867188 C 99.398438 17.617188 99.441406 17.378906 99.523438 17.136719 C 99.675781 16.753906 99.910156 16.367188 100.234375 15.992188 C 100.550781 15.617188 101.007812 15.191406 101.609375 14.699219 C 102.535156 13.925781 103.160156 13.316406 103.484375 12.867188 C 103.816406 12.425781 103.984375 12.003906 103.984375 11.597656 C 103.984375 11.179688 103.828125 10.835938 103.523438 10.554688 C 103.234375 10.261719 102.847656 10.117188 102.378906 10.117188 C 101.863281 10.117188 101.453125 10.273438 101.148438 10.574219 C 100.84375 10.882812 100.691406 11.304688 100.691406 11.847656 L 99.609375 11.722656 C 99.675781 10.917969 99.953125 10.304688 100.441406 9.886719 C 100.925781 9.460938 101.578125 9.242188 102.398438 9.242188 C 103.21875 9.242188 103.863281 9.472656 104.335938 9.929688 C 104.820312 10.386719 105.066406 10.949219 105.066406 11.617188 C 105.066406 11.964844 104.992188 12.304688 104.859375 12.636719 C 104.71875 12.972656 104.484375 13.324219 104.148438 13.699219 C 103.828125 14.066406 103.296875 14.566406 102.546875 15.199219 C 101.90625 15.730469 101.492188 16.089844 101.316406 16.285156 C 101.132812 16.480469 100.988281 16.667969 100.878906 16.847656 Z M 105.085938 16.847656 "/>
<path style="fill:none;stroke-width:1;stroke-linecap:round;stroke-linejoin:round;stroke:rgb(0%,0%,0%);stroke-opacity:1;stroke-miterlimit:10;" d="M 183.199219 254.788086 L 203.753906 254.788086 L 203.753906 270.889648 L 183.199219 270.889648 Z M 183.199219 254.788086 " transform="matrix(1.333333,0,0,1.333333,-120,-246.666667)"/>
<path style=" stroke:none;fill-rule:nonzero;fill:rgb(0%,0%,0%);fill-opacity:1;" d="M 130.125 103.363281 C 130.125 102.351562 130.230469 101.527344 130.4375 100.902344 C 130.648438 100.277344 130.949219 99.800781 131.355469 99.464844 C 131.773438 99.132812 132.292969 98.964844 132.917969 98.964844 C 133.386719 98.964844 133.796875 99.066406 134.148438 99.257812 C 134.492188 99.441406 134.777344 99.707031 135 100.050781 C 135.21875 100.398438 135.398438 100.820312 135.523438 101.320312 C 135.65625 101.820312 135.730469 102.503906 135.730469 103.363281 C 135.730469 104.363281 135.625 105.175781 135.417969 105.800781 C 135.210938 106.414062 134.898438 106.894531 134.480469 107.238281 C 134.074219 107.570312 133.554688 107.738281 132.917969 107.738281 C 132.09375 107.738281 131.449219 107.441406 130.980469 106.839844 C 130.40625 106.132812 130.125 104.976562 130.125 103.363281 Z M 131.210938 103.363281 C 131.210938 104.769531 131.367188 105.707031 131.6875 106.175781 C 132.023438 106.632812 132.429688 106.863281 132.917969 106.863281 C 133.402344 106.863281 133.8125 106.632812 134.148438 106.175781 C 134.480469 105.707031 134.648438 104.769531 134.648438 103.363281 C 134.648438 101.945312 134.480469 101.007812 134.148438 100.550781 C 133.8125 100.082031 133.402344 99.839844 132.917969 99.839844 C 132.429688 99.839844 132.042969 100.042969 131.75 100.445312 C 131.386719 100.976562 131.210938 101.945312 131.210938 103.363281 Z M 131.210938 103.363281 "/>
<path style=" stroke:none;fill-rule:nonzero;fill:rgb(0%,0%,0%);fill-opacity:1;" d="M 137.382812 107.589844 L 137.382812 106.382812 L 138.59375 106.382812 L 138.59375 107.589844 Z M 137.382812 107.589844 "/>
<path style=" stroke:none;fill-rule:nonzero;fill:rgb(0%,0%,0%);fill-opacity:1;" d="M 144.117188 107.589844 L 143.054688 107.589844 L 143.054688 100.863281 C 142.804688 101.113281 142.472656 101.363281 142.054688 101.613281 C 141.640625 101.851562 141.269531 102.023438 140.953125 102.132812 L 140.953125 101.113281 C 141.535156 100.851562 142.046875 100.523438 142.492188 100.132812 C 142.9375 99.730469 143.25 99.339844 143.429688 98.964844 L 144.117188 98.964844 Z M 144.117188 107.589844 "/>
<path style="fill:none;stroke-width:1;stroke-linecap:round;stroke-linejoin:round;stroke:rgb(0%,0%,0%);stroke-opacity:1;stroke-miterlimit:10;" d="M 183.199219 238.692383 L 203.753906 238.692383 L 203.753906 254.788086 L 183.199219 254.788086 Z M 183.199219 238.692383 " transform="matrix(1.333333,0,0,1.333333,-120,-246.666667)"/>
<path style=" stroke:none;fill-rule:nonzero;fill:rgb(0%,0%,0%);fill-opacity:1;" d="M 130.125 81.894531 C 130.125 80.886719 130.230469 80.0625 130.4375 79.4375 C 130.648438 78.8125 130.949219 78.332031 131.355469 78 C 131.773438 77.667969 132.292969 77.5 132.917969 77.5 C 133.386719 77.5 133.796875 77.597656 134.148438 77.792969 C 134.492188 77.972656 134.777344 78.238281 135 78.582031 C 135.21875 78.933594 135.398438 79.355469 135.523438 79.855469 C 135.65625 80.355469 135.730469 81.035156 135.730469 81.894531 C 135.730469 82.894531 135.625 83.707031 135.417969 84.332031 C 135.210938 84.949219 134.898438 85.425781 134.480469 85.769531 C 134.074219 86.105469 133.554688 86.269531 132.917969 86.269531 C 132.09375 86.269531 131.449219 85.972656 130.980469 85.375 C 130.40625 84.667969 130.125 83.511719 130.125 81.894531 Z M 131.210938 81.894531 C 131.210938 83.300781 131.367188 84.238281 131.6875 84.707031 C 132.023438 85.167969 132.429688 85.394531 132.917969 85.394531 C 133.402344 85.394531 133.8125 85.167969 134.148438 84.707031 C 134.480469 84.238281 134.648438 83.300781 134.648438 81.894531 C 134.648438 80.480469 134.480469 79.542969 134.148438 79.082031 C 133.8125 78.613281 133.402344 78.375 132.917969 78.375 C 132.429688 78.375 132.042969 78.578125 131.75 78.980469 C 131.386719 79.511719 131.210938 80.480469 131.210938 81.894531 Z M 131.210938 81.894531 "/>
<path style=" stroke:none;fill-rule:nonzero;fill:rgb(0%,0%,0%);fill-opacity:1;" d="M 137.382812 86.125 L 137.382812 84.917969 L 138.59375 84.917969 L 138.59375 86.125 Z M 137.382812 86.125 "/>
<path style=" stroke:none;fill-rule:nonzero;fill:rgb(0%,0%,0%);fill-opacity:1;" d="M 145.679688 85.105469 L 145.679688 86.125 L 139.992188 86.125 C 139.992188 85.875 140.035156 85.636719 140.117188 85.394531 C 140.269531 85.011719 140.503906 84.625 140.828125 84.25 C 141.144531 83.875 141.601562 83.449219 142.203125 82.957031 C 143.128906 82.183594 143.753906 81.574219 144.078125 81.125 C 144.410156 80.683594 144.578125 80.261719 144.578125 79.855469 C 144.578125 79.4375 144.421875 79.09375 144.117188 78.8125 C 143.828125 78.519531 143.441406 78.375 142.972656 78.375 C 142.457031 78.375 142.046875 78.53125 141.742188 78.832031 C 141.4375 79.140625 141.285156 79.5625 141.285156 80.105469 L 140.203125 79.980469 C 140.269531 79.175781 140.546875 78.5625 141.035156 78.144531 C 141.519531 77.71875 142.171875 77.5 142.992188 77.5 C 143.8125 77.5 144.457031 77.730469 144.929688 78.1875 C 145.414062 78.644531 145.660156 79.207031 145.660156 79.875 C 145.660156 80.222656 145.585938 80.5625 145.453125 80.894531 C 145.3125 81.230469 145.078125 81.582031 144.742188 81.957031 C 144.421875 82.324219 143.890625 82.824219 143.140625 83.457031 C 142.5 83.988281 142.085938 84.347656 141.910156 84.542969 C 141.726562 84.738281 141.582031 84.925781 141.472656 85.105469 Z M 145.679688 85.105469 "/>
<path style=" stroke:none;fill-rule:nonzero;fill:rgb(69.803923%,85.09804%,100%);fill-opacity:1;" d="M 124.265625 71.589844 L 151.671875 71.589844 L 151.671875 50.121094 L 124.265625 50.121094 Z M 124.265625 71.589844 "/>
<path style="fill:none;stroke-width:1;stroke-linecap:round;stroke-linejoin:round;stroke:rgb(0%,0%,0%);stroke-opacity:1;stroke-miterlimit:10;" d="M 183.199219 222.59082 L 203.753906 222.59082 L 203.753906 238.692383 L 183.199219 238.692383 Z M 183.199219 222.59082 " transform="matrix(1.333333,0,0,1.333333,-120,-246.666667)"/>
<path style=" stroke:none;fill-rule:nonzero;fill:rgb(0%,0%,0%);fill-opacity:1;" d="M 130.125 60.429688 C 130.125 59.417969 130.230469 58.597656 130.4375 57.972656 C 130.648438 57.347656 130.949219 56.867188 131.355469 56.535156 C 131.773438 56.199219 132.292969 56.035156 132.917969 56.035156 C 133.386719 56.035156 133.796875 56.132812 134.148438 56.324219 C 134.492188 56.507812 134.777344 56.773438 135 57.117188 C 135.21875 57.464844 135.398438 57.886719 135.523438 58.386719 C 135.65625 58.886719 135.730469 59.570312 135.730469 60.429688 C 135.730469 61.429688 135.625 62.242188 135.417969 62.867188 C 135.210938 63.480469 134.898438 63.960938 134.480469 64.304688 C 134.074219 64.636719 133.554688 64.804688 132.917969 64.804688 C 132.09375 64.804688 131.449219 64.507812 130.980469 63.910156 C 130.40625 63.199219 130.125 62.042969 130.125 60.429688 Z M 131.210938 60.429688 C 131.210938 61.835938 131.367188 62.773438 131.6875 63.242188 C 132.023438 63.699219 132.429688 63.929688 132.917969 63.929688 C 133.402344 63.929688 133.8125 63.699219 134.148438 63.242188 C 134.480469 62.773438 134.648438 61.835938 134.648438 60.429688 C 134.648438 59.011719 134.480469 58.074219 134.148438 57.617188 C 133.8125 57.148438 133.402344 56.910156 132.917969 56.910156 C 132.429688 56.910156 132.042969 57.113281 131.75 57.511719 C 131.386719 58.042969 131.210938 59.011719 131.210938 60.429688 Z M 131.210938 60.429688 "/>
<path style=" stroke:none;fill-rule:nonzero;fill:rgb(0%,0%,0%);fill-opacity:1;" d="M 137.382812 64.660156 L 137.382812 63.449219 L 138.59375 63.449219 L 138.59375 64.660156 Z M 137.382812 64.660156 "/>
<path style=" stroke:none;fill-rule:nonzero;fill:rgb(0%,0%,0%);fill-opacity:1;" d="M 145.617188 58.179688 L 144.554688 58.261719 C 144.472656 57.847656 144.335938 57.542969 144.160156 57.347656 C 143.878906 57.054688 143.535156 56.910156 143.117188 56.910156 C 142.769531 56.910156 142.472656 57.003906 142.222656 57.179688 C 141.890625 57.429688 141.625 57.785156 141.429688 58.242188 C 141.25 58.699219 141.148438 59.363281 141.140625 60.222656 C 141.390625 59.847656 141.691406 59.570312 142.054688 59.386719 C 142.429688 59.195312 142.816406 59.097656 143.222656 59.097656 C 143.929688 59.097656 144.523438 59.355469 145.015625 59.867188 C 145.515625 60.382812 145.765625 61.050781 145.765625 61.867188 C 145.765625 62.410156 145.644531 62.917969 145.410156 63.386719 C 145.171875 63.847656 144.851562 64.199219 144.453125 64.449219 C 144.046875 64.683594 143.585938 64.804688 143.078125 64.804688 C 142.203125 64.804688 141.484375 64.488281 140.929688 63.847656 C 140.375 63.195312 140.097656 62.128906 140.097656 60.636719 C 140.097656 58.988281 140.398438 57.777344 141.015625 57.011719 C 141.539062 56.363281 142.265625 56.035156 143.179688 56.035156 C 143.847656 56.035156 144.394531 56.230469 144.828125 56.617188 C 145.253906 56.992188 145.519531 57.511719 145.617188 58.179688 Z M 141.304688 61.867188 C 141.304688 62.242188 141.378906 62.597656 141.535156 62.929688 C 141.6875 63.253906 141.898438 63.503906 142.179688 63.679688 C 142.457031 63.847656 142.75 63.929688 143.054688 63.929688 C 143.5 63.929688 143.878906 63.757812 144.203125 63.410156 C 144.519531 63.050781 144.679688 62.554688 144.679688 61.929688 C 144.679688 61.335938 144.519531 60.867188 144.203125 60.535156 C 143.894531 60.191406 143.5 60.011719 143.015625 60.011719 C 142.539062 60.011719 142.140625 60.191406 141.804688 60.535156 C 141.472656 60.867188 141.304688 61.316406 141.304688 61.867188 Z M 141.304688 61.867188 "/>
<path style="fill:none;stroke-width:1;stroke-linecap:round;stroke-linejoin:round;stroke:rgb(0%,0%,0%);stroke-opacity:1;stroke-miterlimit:10;" d="M 183.199219 206.492188 L 203.753906 206.492188 L 203.753906 222.59082 L 183.199219 222.59082 Z M 183.199219 206.492188 " transform="matrix(1.333333,0,0,1.333333,-120,-246.666667)"/>
<path style=" stroke:none;fill-rule:nonzero;fill:rgb(0%,0%,0%);fill-opacity:1;" d="M 130.125 38.960938 C 130.125 37.953125 130.230469 37.128906 130.4375 36.503906 C 130.648438 35.878906 130.949219 35.398438 131.355469 35.066406 C 131.773438 34.734375 132.292969 34.566406 132.917969 34.566406 C 133.386719 34.566406 133.796875 34.664062 134.148438 34.859375 C 134.492188 35.039062 134.777344 35.304688 135 35.648438 C 135.21875 36 135.398438 36.421875 135.523438 36.921875 C 135.65625 37.421875 135.730469 38.101562 135.730469 38.960938 C 135.730469 39.960938 135.625 40.773438 135.417969 41.398438 C 135.210938 42.015625 134.898438 42.492188 134.480469 42.835938 C 134.074219 43.171875 133.554688 43.335938 132.917969 43.335938 C 132.09375 43.335938 131.449219 43.039062 130.980469 42.441406 C 130.40625 41.734375 130.125 40.578125 130.125 38.960938 Z M 131.210938 38.960938 C 131.210938 40.367188 131.367188 41.304688 131.6875 41.773438 C 132.023438 42.234375 132.429688 42.460938 132.917969 42.460938 C 133.402344 42.460938 133.8125 42.234375 134.148438 41.773438 C 134.480469 41.304688 134.648438 40.367188 134.648438 38.960938 C 134.648438 37.546875 134.480469 36.609375 134.148438 36.148438 C 133.8125 35.679688 133.402344 35.441406 132.917969 35.441406 C 132.429688 35.441406 132.042969 35.644531 131.75 36.046875 C 131.386719 36.578125 131.210938 37.546875 131.210938 38.960938 Z M 131.210938 38.960938 "/>
<path style=" stroke:none;fill-rule:nonzero;fill:rgb(0%,0%,0%);fill-opacity:1;" d="M 137.382812 43.191406 L 137.382812 41.984375 L 138.59375 41.984375 L 138.59375 43.191406 Z M 137.382812 43.191406 "/>
<path style=" stroke:none;fill-rule:nonzero;fill:rgb(0%,0%,0%);fill-opacity:1;" d="M 144.117188 43.191406 L 143.054688 43.191406 L 143.054688 36.460938 C 142.804688 36.710938 142.472656 36.960938 142.054688 37.210938 C 141.640625 37.453125 141.269531 37.625 140.953125 37.734375 L 140.953125 36.710938 C 141.535156 36.453125 142.046875 36.125 142.492188 35.734375 C 142.9375 35.332031 143.25 34.941406 143.429688 34.566406 L 144.117188 34.566406 Z M 144.117188 43.191406 "/>
<path style=" stroke:none;fill-rule:nonzero;fill:rgb(0%,0%,0%);fill-opacity:1;" d="M 135.007812 15.71875 L 136.070312 15.570312 C 136.195312 16.171875 136.394531 16.601562 136.675781 16.863281 C 136.96875 17.128906 137.328125 17.257812 137.757812 17.257812 C 138.242188 17.257812 138.65625 17.09375 138.988281 16.757812 C 139.332031 16.414062 139.507812 15.984375 139.507812 15.46875 C 139.507812 14.984375 139.347656 14.585938 139.03125 14.28125 C 138.722656 13.960938 138.328125 13.800781 137.84375 13.800781 C 137.632812 13.800781 137.382812 13.84375 137.09375 13.925781 L 137.21875 12.988281 C 137.285156 13.003906 137.34375 13.007812 137.382812 13.007812 C 137.828125 13.007812 138.226562 12.894531 138.59375 12.65625 C 138.953125 12.421875 139.132812 12.0625 139.132812 11.570312 C 139.132812 11.1875 139 10.863281 138.738281 10.613281 C 138.472656 10.363281 138.132812 10.238281 137.71875 10.238281 C 137.3125 10.238281 136.972656 10.375 136.695312 10.632812 C 136.429688 10.882812 136.257812 11.269531 136.175781 11.78125 L 135.113281 11.59375 C 135.25 10.882812 135.539062 10.335938 135.988281 9.945312 C 136.445312 9.5625 137.015625 9.363281 137.695312 9.363281 C 138.164062 9.363281 138.597656 9.46875 138.988281 9.675781 C 139.390625 9.875 139.695312 10.144531 139.90625 10.488281 C 140.113281 10.835938 140.21875 11.207031 140.21875 11.59375 C 140.21875 11.96875 140.113281 12.3125 139.90625 12.613281 C 139.707031 12.921875 139.414062 13.164062 139.03125 13.34375 C 139.539062 13.457031 139.9375 13.695312 140.21875 14.070312 C 140.492188 14.4375 140.632812 14.894531 140.632812 15.445312 C 140.632812 16.195312 140.351562 16.835938 139.800781 17.363281 C 139.257812 17.878906 138.570312 18.132812 137.738281 18.132812 C 136.988281 18.132812 136.363281 17.914062 135.863281 17.46875 C 135.363281 17.023438 135.078125 16.441406 135.007812 15.71875 Z M 135.007812 15.71875 "/>
<path style=" stroke:none;fill-rule:nonzero;fill:rgb(69.803923%,85.09804%,100%);fill-opacity:1;" d="M 159.847656 114.640625 L 187.253906 114.640625 L 187.253906 93.175781 L 159.847656 93.175781 Z M 159.847656 114.640625 "/>
<path style="fill:none;stroke-width:1;stroke-linecap:round;stroke-linejoin:round;stroke:rgb(0%,0%,0%);stroke-opacity:1;stroke-miterlimit:10;" d="M 209.885742 254.881836 L 230.44043 254.881836 L 230.44043 270.980469 L 209.885742 270.980469 Z M 209.885742 254.881836 " transform="matrix(1.333333,0,0,1.333333,-120,-246.666667)"/>
<path style=" stroke:none;fill-rule:nonzero;fill:rgb(0%,0%,0%);fill-opacity:1;" d="M 165.710938 103.484375 C 165.710938 102.472656 165.816406 101.648438 166.023438 101.023438 C 166.234375 100.398438 166.535156 99.921875 166.941406 99.585938 C 167.359375 99.253906 167.878906 99.085938 168.503906 99.085938 C 168.972656 99.085938 169.382812 99.1875 169.734375 99.378906 C 170.078125 99.5625 170.363281 99.828125 170.585938 100.171875 C 170.804688 100.519531 170.984375 100.941406 171.109375 101.441406 C 171.242188 101.941406 171.316406 102.625 171.316406 103.484375 C 171.316406 104.484375 171.210938 105.296875 171.003906 105.921875 C 170.796875 106.535156 170.484375 107.015625 170.066406 107.359375 C 169.660156 107.691406 169.140625 107.859375 168.503906 107.859375 C 167.679688 107.859375 167.035156 107.5625 166.566406 106.960938 C 165.992188 106.253906 165.710938 105.097656 165.710938 103.484375 Z M 166.796875 103.484375 C 166.796875 104.890625 166.953125 105.828125 167.273438 106.296875 C 167.609375 106.753906 168.015625 106.984375 168.503906 106.984375 C 168.988281 106.984375 169.398438 106.753906 169.734375 106.296875 C 170.066406 105.828125 170.234375 104.890625 170.234375 103.484375 C 170.234375 102.066406 170.066406 101.128906 169.734375 100.671875 C 169.398438 100.203125 168.988281 99.960938 168.503906 99.960938 C 168.015625 99.960938 167.628906 100.164062 167.335938 100.566406 C 166.972656 101.097656 166.796875 102.066406 166.796875 103.484375 Z M 166.796875 103.484375 "/>
<path style=" stroke:none;fill-rule:nonzero;fill:rgb(0%,0%,0%);fill-opacity:1;" d="M 172.96875 107.710938 L 172.96875 106.503906 L 174.179688 106.503906 L 174.179688 107.710938 Z M 172.96875 107.710938 "/>
<path style=" stroke:none;fill-rule:nonzero;fill:rgb(0%,0%,0%);fill-opacity:1;" d="M 181.203125 101.234375 L 180.140625 101.316406 C 180.058594 100.898438 179.921875 100.597656 179.746094 100.398438 C 179.464844 100.109375 179.121094 99.960938 178.703125 99.960938 C 178.355469 99.960938 178.058594 100.054688 177.808594 100.234375 C 177.476562 100.484375 177.210938 100.835938 177.015625 101.296875 C 176.835938 101.753906 176.734375 102.414062 176.726562 103.273438 C 176.976562 102.898438 177.277344 102.625 177.640625 102.441406 C 178.015625 102.25 178.402344 102.148438 178.808594 102.148438 C 179.515625 102.148438 180.109375 102.410156 180.601562 102.921875 C 181.101562 103.4375 181.351562 104.101562 181.351562 104.921875 C 181.351562 105.460938 181.230469 105.972656 180.996094 106.441406 C 180.757812 106.898438 180.4375 107.253906 180.039062 107.503906 C 179.632812 107.738281 179.171875 107.859375 178.664062 107.859375 C 177.789062 107.859375 177.070312 107.539062 176.515625 106.898438 C 175.960938 106.25 175.683594 105.179688 175.683594 103.691406 C 175.683594 102.039062 175.984375 100.832031 176.601562 100.066406 C 177.125 99.414062 177.851562 99.085938 178.765625 99.085938 C 179.433594 99.085938 179.980469 99.285156 180.414062 99.671875 C 180.839844 100.046875 181.105469 100.566406 181.203125 101.234375 Z M 176.890625 104.921875 C 176.890625 105.296875 176.964844 105.648438 177.121094 105.984375 C 177.273438 106.304688 177.484375 106.554688 177.765625 106.734375 C 178.042969 106.898438 178.335938 106.984375 178.640625 106.984375 C 179.085938 106.984375 179.464844 106.8125 179.789062 106.460938 C 180.105469 106.101562 180.265625 105.609375 180.265625 104.984375 C 180.265625 104.390625 180.105469 103.921875 179.789062 103.585938 C 179.480469 103.242188 179.085938 103.066406 178.601562 103.066406 C 178.125 103.066406 177.726562 103.242188 177.390625 103.585938 C 177.058594 103.921875 176.890625 104.367188 176.890625 104.921875 Z M 176.890625 104.921875 "/>
<path style="fill:none;stroke-width:1;stroke-linecap:round;stroke-linejoin:round;stroke:rgb(0%,0%,0%);stroke-opacity:1;stroke-miterlimit:10;" d="M 209.885742 238.780273 L 230.44043 238.780273 L 230.44043 254.881836 L 209.885742 254.881836 Z M 209.885742 238.780273 " transform="matrix(1.333333,0,0,1.333333,-120,-246.666667)"/>
<path style=" stroke:none;fill-rule:nonzero;fill:rgb(0%,0%,0%);fill-opacity:1;" d="M 165.710938 82.015625 C 165.710938 81.007812 165.816406 80.183594 166.023438 79.558594 C 166.234375 78.933594 166.535156 78.453125 166.941406 78.121094 C 167.359375 77.789062 167.878906 77.621094 168.503906 77.621094 C 168.972656 77.621094 169.382812 77.71875 169.734375 77.914062 C 170.078125 78.09375 170.363281 78.359375 170.585938 78.703125 C 170.804688 79.054688 170.984375 79.476562 171.109375 79.976562 C 171.242188 80.476562 171.316406 81.15625 171.316406 82.015625 C 171.316406 83.015625 171.210938 83.828125 171.003906 84.453125 C 170.796875 85.070312 170.484375 85.546875 170.066406 85.890625 C 169.660156 86.226562 169.140625 86.390625 168.503906 86.390625 C 167.679688 86.390625 167.035156 86.09375 166.566406 85.496094 C 165.992188 84.789062 165.710938 83.632812 165.710938 82.015625 Z M 166.796875 82.015625 C 166.796875 83.421875 166.953125 84.359375 167.273438 84.828125 C 167.609375 85.289062 168.015625 85.515625 168.503906 85.515625 C 168.988281 85.515625 169.398438 85.289062 169.734375 84.828125 C 170.066406 84.359375 170.234375 83.421875 170.234375 82.015625 C 170.234375 80.601562 170.066406 79.664062 169.734375 79.203125 C 169.398438 78.734375 168.988281 78.496094 168.503906 78.496094 C 168.015625 78.496094 167.628906 78.699219 167.335938 79.101562 C 166.972656 79.632812 166.796875 80.601562 166.796875 82.015625 Z M 166.796875 82.015625 "/>
<path style=" stroke:none;fill-rule:nonzero;fill:rgb(0%,0%,0%);fill-opacity:1;" d="M 172.96875 86.246094 L 172.96875 85.039062 L 174.179688 85.039062 L 174.179688 86.246094 Z M 172.96875 86.246094 "/>
<path style=" stroke:none;fill-rule:nonzero;fill:rgb(0%,0%,0%);fill-opacity:1;" d="M 179.703125 86.246094 L 178.640625 86.246094 L 178.640625 79.515625 C 178.390625 79.765625 178.058594 80.015625 177.640625 80.265625 C 177.226562 80.507812 176.855469 80.679688 176.539062 80.789062 L 176.539062 79.765625 C 177.121094 79.507812 177.632812 79.179688 178.078125 78.789062 C 178.523438 78.386719 178.835938 77.996094 179.015625 77.621094 L 179.703125 77.621094 Z M 179.703125 86.246094 "/>
<path style="fill:none;stroke-width:1;stroke-linecap:round;stroke-linejoin:round;stroke:rgb(0%,0%,0%);stroke-opacity:1;stroke-miterlimit:10;" d="M 209.885742 222.68457 L 230.44043 222.68457 L 230.44043 238.780273 L 209.885742 238.780273 Z M 209.885742 222.68457 " transform="matrix(1.333333,0,0,1.333333,-120,-246.666667)"/>
<path style=" stroke:none;fill-rule:nonzero;fill:rgb(0%,0%,0%);fill-opacity:1;" d="M 165.710938 60.550781 C 165.710938 59.539062 165.816406 58.71875 166.023438 58.09375 C 166.234375 57.46875 166.535156 56.988281 166.941406 56.65625 C 167.359375 56.320312 167.878906 56.15625 168.503906 56.15625 C 168.972656 56.15625 169.382812 56.253906 169.734375 56.445312 C 170.078125 56.628906 170.363281 56.894531 170.585938 57.238281 C 170.804688 57.585938 170.984375 58.007812 171.109375 58.507812 C 171.242188 59.007812 171.316406 59.691406 171.316406 60.550781 C 171.316406 61.550781 171.210938 62.363281 171.003906 62.988281 C 170.796875 63.601562 170.484375 64.082031 170.066406 64.425781 C 169.660156 64.757812 169.140625 64.925781 168.503906 64.925781 C 167.679688 64.925781 167.035156 64.628906 166.566406 64.03125 C 165.992188 63.320312 165.710938 62.164062 165.710938 60.550781 Z M 166.796875 60.550781 C 166.796875 61.957031 166.953125 62.894531 167.273438 63.363281 C 167.609375 63.820312 168.015625 64.050781 168.503906 64.050781 C 168.988281 64.050781 169.398438 63.820312 169.734375 63.363281 C 170.066406 62.894531 170.234375 61.957031 170.234375 60.550781 C 170.234375 59.132812 170.066406 58.195312 169.734375 57.738281 C 169.398438 57.269531 168.988281 57.03125 168.503906 57.03125 C 168.015625 57.03125 167.628906 57.234375 167.335938 57.632812 C 166.972656 58.164062 166.796875 59.132812 166.796875 60.550781 Z M 166.796875 60.550781 "/>
<path style=" stroke:none;fill-rule:nonzero;fill:rgb(0%,0%,0%);fill-opacity:1;" d="M 172.96875 64.78125 L 172.96875 63.570312 L 174.179688 63.570312 L 174.179688 64.78125 Z M 172.96875 64.78125 "/>
<path style=" stroke:none;fill-rule:nonzero;fill:rgb(0%,0%,0%);fill-opacity:1;" d="M 181.265625 63.757812 L 181.265625 64.78125 L 175.578125 64.78125 C 175.578125 64.53125 175.621094 64.289062 175.703125 64.050781 C 175.855469 63.664062 176.089844 63.28125 176.414062 62.90625 C 176.730469 62.53125 177.1875 62.101562 177.789062 61.613281 C 178.714844 60.835938 179.339844 60.226562 179.664062 59.78125 C 179.996094 59.335938 180.164062 58.914062 180.164062 58.507812 C 180.164062 58.09375 180.007812 57.75 179.703125 57.46875 C 179.414062 57.175781 179.027344 57.03125 178.558594 57.03125 C 178.042969 57.03125 177.632812 57.1875 177.328125 57.488281 C 177.023438 57.796875 176.871094 58.21875 176.871094 58.757812 L 175.789062 58.632812 C 175.855469 57.832031 176.132812 57.21875 176.621094 56.800781 C 177.105469 56.375 177.757812 56.15625 178.578125 56.15625 C 179.398438 56.15625 180.042969 56.382812 180.515625 56.84375 C 181 57.300781 181.246094 57.863281 181.246094 58.53125 C 181.246094 58.878906 181.171875 59.21875 181.039062 59.550781 C 180.898438 59.882812 180.664062 60.238281 180.328125 60.613281 C 180.007812 60.976562 179.476562 61.476562 178.726562 62.113281 C 178.085938 62.644531 177.671875 63.003906 177.496094 63.195312 C 177.3125 63.394531 177.167969 63.582031 177.058594 63.757812 Z M 181.265625 63.757812 "/>
<path style="fill:none;stroke-width:1;stroke-linecap:round;stroke-linejoin:round;stroke:rgb(0%,0%,0%);stroke-opacity:1;stroke-miterlimit:10;" d="M 209.885742 206.583008 L 230.44043 206.583008 L 230.44043 222.68457 L 209.885742 222.68457 Z M 209.885742 206.583008 " transform="matrix(1.333333,0,0,1.333333,-120,-246.666667)"/>
<path style=" stroke:none;fill-rule:nonzero;fill:rgb(0%,0%,0%);fill-opacity:1;" d="M 165.710938 39.082031 C 165.710938 38.074219 165.816406 37.25 166.023438 36.625 C 166.234375 36 166.535156 35.519531 166.941406 35.1875 C 167.359375 34.855469 167.878906 34.6875 168.503906 34.6875 C 168.972656 34.6875 169.382812 34.785156 169.734375 34.980469 C 170.078125 35.160156 170.363281 35.425781 170.585938 35.769531 C 170.804688 36.121094 170.984375 36.542969 171.109375 37.042969 C 171.242188 37.542969 171.316406 38.222656 171.316406 39.082031 C 171.316406 40.082031 171.210938 40.894531 171.003906 41.519531 C 170.796875 42.136719 170.484375 42.613281 170.066406 42.957031 C 169.660156 43.292969 169.140625 43.457031 168.503906 43.457031 C 167.679688 43.457031 167.035156 43.160156 166.566406 42.5625 C 165.992188 41.855469 165.710938 40.699219 165.710938 39.082031 Z M 166.796875 39.082031 C 166.796875 40.488281 166.953125 41.425781 167.273438 41.894531 C 167.609375 42.355469 168.015625 42.582031 168.503906 42.582031 C 168.988281 42.582031 169.398438 42.355469 169.734375 41.894531 C 170.066406 41.425781 170.234375 40.488281 170.234375 39.082031 C 170.234375 37.667969 170.066406 36.730469 169.734375 36.269531 C 169.398438 35.800781 168.988281 35.5625 168.503906 35.5625 C 168.015625 35.5625 167.628906 35.765625 167.335938 36.167969 C 166.972656 36.699219 166.796875 37.667969 166.796875 39.082031 Z M 166.796875 39.082031 "/>
<path style=" stroke:none;fill-rule:nonzero;fill:rgb(0%,0%,0%);fill-opacity:1;" d="M 172.96875 43.3125 L 172.96875 42.105469 L 174.179688 42.105469 L 174.179688 43.3125 Z M 172.96875 43.3125 "/>
<path style=" stroke:none;fill-rule:nonzero;fill:rgb(0%,0%,0%);fill-opacity:1;" d="M 179.703125 43.3125 L 178.640625 43.3125 L 178.640625 36.582031 C 178.390625 36.832031 178.058594 37.082031 177.640625 37.332031 C 177.226562 37.574219 176.855469 37.746094 176.539062 37.855469 L 176.539062 36.832031 C 177.121094 36.574219 177.632812 36.246094 178.078125 35.855469 C 178.523438 35.453125 178.835938 35.0625 179.015625 34.6875 L 179.703125 34.6875 Z M 179.703125 43.3125 "/>
<path style=" stroke:none;fill-rule:nonzero;fill:rgb(0%,0%,0%);fill-opacity:1;" d="M 174.089844 18.109375 L 174.089844 16.046875 L 170.363281 16.046875 L 170.363281 15.089844 L 174.277344 9.527344 L 175.152344 9.527344 L 175.152344 15.089844 L 176.320312 15.089844 L 176.320312 16.046875 L 175.152344 16.046875 L 175.152344 18.109375 Z M 174.089844 15.089844 L 174.089844 11.214844 L 171.402344 15.089844 Z M 174.089844 15.089844 "/>
<path style=" stroke:none;fill-rule:nonzero;fill:rgb(0%,0%,0%);fill-opacity:1;" d="M 14.199219 102.144531 L 8.136719 104.855469 L 8.136719 105.605469 L 14.199219 108.3125 L 14.199219 107.417969 L 9.261719 105.230469 L 14.199219 103.042969 Z M 14.199219 102.144531 "/>
<path style=" stroke:none;fill-rule:nonzero;fill:rgb(0%,0%,0%);fill-opacity:1;" d="M 18.082031 101.957031 C 17.1875 101.957031 16.476562 102.292969 15.957031 102.9375 C 15.4375 103.542969 15.164062 104.3125 15.164062 105.230469 C 15.164062 106.230469 15.4375 107.019531 16 107.625 C 16.519531 108.207031 17.25 108.5 18.125 108.5 C 18.9375 108.5 19.582031 108.269531 20.101562 107.8125 C 20.519531 107.417969 20.8125 106.9375 20.9375 106.332031 L 19.976562 106.332031 C 19.832031 106.769531 19.625 107.105469 19.351562 107.3125 C 19.039062 107.5625 18.625 107.6875 18.125 107.6875 C 17.539062 107.6875 17.0625 107.5 16.726562 107.125 C 16.394531 106.730469 16.226562 106.1875 16.164062 105.5 L 21.0625 105.5 C 21.039062 104.417969 20.8125 103.5625 20.351562 102.980469 C 19.832031 102.292969 19.082031 101.957031 18.082031 101.957031 Z M 18.125 102.769531 C 19.289062 102.769531 19.957031 103.417969 20.0625 104.75 L 16.1875 104.75 C 16.25 104.144531 16.4375 103.667969 16.789062 103.3125 C 17.125 102.9375 17.5625 102.769531 18.125 102.769531 Z M 18.125 102.769531 "/>
<path style=" stroke:none;fill-rule:nonzero;fill:rgb(0%,0%,0%);fill-opacity:1;" d="M 24.972656 101.957031 C 24.035156 101.957031 23.304688 102.269531 22.742188 102.917969 C 22.222656 103.542969 21.949219 104.292969 21.949219 105.230469 C 21.949219 106.167969 22.222656 106.9375 22.742188 107.519531 C 23.304688 108.1875 24.035156 108.5 24.972656 108.5 C 25.886719 108.5 26.636719 108.1875 27.199219 107.519531 C 27.722656 106.9375 27.972656 106.167969 27.972656 105.230469 C 27.972656 104.292969 27.722656 103.542969 27.179688 102.917969 C 26.636719 102.269531 25.886719 101.957031 24.972656 101.957031 Z M 24.972656 102.769531 C 25.617188 102.769531 26.136719 103.019531 26.511719 103.519531 C 26.847656 103.980469 27.011719 104.542969 27.011719 105.230469 C 27.011719 105.917969 26.847656 106.480469 26.511719 106.9375 C 26.136719 107.4375 25.617188 107.6875 24.972656 107.6875 C 24.304688 107.6875 23.785156 107.4375 23.429688 106.9375 C 23.097656 106.480469 22.929688 105.917969 22.929688 105.230469 C 22.929688 104.542969 23.097656 103.980469 23.429688 103.519531 C 23.785156 103.019531 24.304688 102.769531 24.972656 102.769531 Z M 24.972656 102.769531 "/>
<path style=" stroke:none;fill-rule:nonzero;fill:rgb(0%,0%,0%);fill-opacity:1;" d="M 31.421875 101.957031 C 30.734375 101.957031 30.148438 102.125 29.710938 102.4375 C 29.253906 102.75 29.023438 103.144531 29.023438 103.6875 C 29.023438 104.207031 29.253906 104.605469 29.734375 104.894531 C 30.023438 105.082031 30.523438 105.269531 31.273438 105.4375 C 31.941406 105.605469 32.378906 105.75 32.585938 105.832031 C 32.960938 106.019531 33.171875 106.292969 33.171875 106.644531 C 33.171875 107.332031 32.609375 107.6875 31.503906 107.6875 C 30.984375 107.6875 30.585938 107.605469 30.316406 107.417969 C 30.046875 107.1875 29.878906 106.855469 29.796875 106.355469 L 28.859375 106.355469 C 29.003906 107.792969 29.898438 108.5 31.523438 108.5 C 33.273438 108.5 34.148438 107.855469 34.148438 106.582031 C 34.148438 106.042969 33.898438 105.625 33.421875 105.3125 C 33.085938 105.105469 32.566406 104.917969 31.816406 104.730469 C 31.191406 104.5625 30.753906 104.4375 30.523438 104.332031 C 30.171875 104.144531 30.003906 103.917969 30.003906 103.644531 C 30.003906 103.375 30.128906 103.167969 30.398438 103 C 30.648438 102.832031 30.984375 102.769531 31.421875 102.769531 C 31.898438 102.769531 32.296875 102.855469 32.546875 103.0625 C 32.796875 103.230469 32.941406 103.5 33.023438 103.894531 L 33.960938 103.894531 C 33.796875 102.605469 32.960938 101.957031 31.421875 101.957031 Z M 31.421875 101.957031 "/>
<path style=" stroke:none;fill-rule:nonzero;fill:rgb(0%,0%,0%);fill-opacity:1;" d="M 35.148438 102.144531 L 35.148438 103.042969 L 40.085938 105.230469 L 35.148438 107.417969 L 35.148438 108.3125 L 41.210938 105.605469 L 41.210938 104.855469 Z M 35.148438 102.144531 "/>
<path style=" stroke:none;fill-rule:nonzero;fill:rgb(0%,0%,0%);fill-opacity:1;" d="M 27.394531 82.984375 L 28.519531 83.273438 C 28.28125 84.207031 27.855469 84.921875 27.230469 85.421875 C 26.613281 85.910156 25.859375 86.148438 24.957031 86.148438 C 24.042969 86.148438 23.292969 85.960938 22.707031 85.585938 C 22.125 85.210938 21.675781 84.671875 21.375 83.960938 C 21.082031 83.242188 20.9375 82.472656 20.9375 81.648438 C 20.9375 80.75 21.105469 79.960938 21.4375 79.296875 C 21.78125 78.628906 22.269531 78.128906 22.894531 77.796875 C 23.53125 77.453125 24.230469 77.273438 24.980469 77.273438 C 25.839844 77.273438 26.5625 77.5 27.144531 77.941406 C 27.738281 78.375 28.152344 78.984375 28.375 79.773438 L 27.25 80.023438 C 27.050781 79.398438 26.769531 78.953125 26.394531 78.671875 C 26.019531 78.378906 25.542969 78.234375 24.957031 78.234375 C 24.300781 78.234375 23.753906 78.394531 23.3125 78.710938 C 22.863281 79.035156 22.550781 79.460938 22.375 80.003906 C 22.191406 80.535156 22.105469 81.078125 22.105469 81.628906 C 22.105469 82.367188 22.207031 83.015625 22.417969 83.566406 C 22.636719 84.109375 22.96875 84.515625 23.417969 84.773438 C 23.859375 85.039062 24.34375 85.171875 24.875 85.171875 C 25.511719 85.171875 26.046875 84.992188 26.480469 84.628906 C 26.921875 84.253906 27.230469 83.707031 27.394531 82.984375 Z M 27.394531 82.984375 "/>
<path style=" stroke:none;fill-rule:nonzero;fill:rgb(0%,0%,0%);fill-opacity:1;" d="M 21.539062 64.535156 L 21.539062 55.953125 L 24.769531 55.953125 C 25.417969 55.953125 25.941406 56.046875 26.332031 56.222656 C 26.730469 56.390625 27.042969 56.65625 27.269531 57.015625 C 27.503906 57.378906 27.621094 57.753906 27.621094 58.140625 C 27.621094 58.515625 27.519531 58.863281 27.308594 59.183594 C 27.113281 59.503906 26.816406 59.765625 26.414062 59.972656 C 26.925781 60.128906 27.320312 60.386719 27.601562 60.746094 C 27.894531 61.109375 28.039062 61.535156 28.039062 62.035156 C 28.039062 62.441406 27.945312 62.816406 27.769531 63.160156 C 27.601562 63.511719 27.394531 63.78125 27.144531 63.972656 C 26.894531 64.15625 26.582031 64.296875 26.207031 64.390625 C 25.832031 64.488281 25.363281 64.535156 24.808594 64.535156 Z M 22.683594 59.558594 L 24.539062 59.558594 C 25.039062 59.558594 25.398438 59.527344 25.621094 59.453125 C 25.914062 59.371094 26.128906 59.234375 26.269531 59.035156 C 26.417969 58.828125 26.496094 58.578125 26.496094 58.285156 C 26.496094 57.996094 26.425781 57.746094 26.289062 57.535156 C 26.148438 57.316406 25.957031 57.160156 25.707031 57.078125 C 25.457031 56.996094 25.019531 56.953125 24.394531 56.953125 L 22.683594 56.953125 Z M 22.683594 63.515625 L 24.808594 63.515625 C 25.183594 63.515625 25.445312 63.503906 25.601562 63.472656 C 25.851562 63.433594 26.066406 63.359375 26.246094 63.246094 C 26.425781 63.136719 26.570312 62.972656 26.683594 62.765625 C 26.792969 62.558594 26.851562 62.316406 26.851562 62.035156 C 26.851562 61.71875 26.769531 61.441406 26.601562 61.203125 C 26.433594 60.96875 26.207031 60.808594 25.914062 60.722656 C 25.621094 60.628906 25.207031 60.578125 24.664062 60.578125 L 22.683594 60.578125 Z M 22.683594 63.515625 "/>
<path style=" stroke:none;fill-rule:nonzero;fill:rgb(0%,0%,0%);fill-opacity:1;" d="M 20.644531 43.070312 L 23.957031 34.488281 L 25.164062 34.488281 L 28.683594 43.070312 L 27.394531 43.070312 L 26.394531 40.464844 L 22.789062 40.464844 L 21.851562 43.070312 Z M 23.121094 39.550781 L 26.039062 39.550781 L 25.144531 37.152344 C 24.863281 36.433594 24.664062 35.839844 24.539062 35.382812 C 24.425781 35.941406 24.269531 36.488281 24.058594 37.027344 Z M 23.121094 39.550781 "/>
</g>
</svg>
