<?xml version="1.0" encoding="UTF-8"?>
<svg xmlns="http://www.w3.org/2000/svg" xmlns:xlink="http://www.w3.org/1999/xlink" width="462.666667" height="198.666667" viewBox="0 0 462.666667 198.666667" version="1.1">
<g id="surface1">
<path style="fill:none;stroke-width:1;stroke-linecap:round;stroke-linejoin:round;stroke:rgb(0%,0%,0%);stroke-opacity:1;stroke-miterlimit:10;" d="M 944.850586 161.999023 L 962.850586 161.999023 L 962.850586 179.999023 L 944.850586 179.999023 Z M 944.850586 161.999023 " transform="matrix(1.333333,0,0,1.333333,-1096,-154.666667)"/>
<path style=" stroke:none;fill-rule:nonzero;fill:rgb(0%,0%,0%);fill-opacity:1;" d="M 172.964844 74.867188 L 174.027344 74.71875 C 174.152344 75.320312 174.347656 75.75 174.628906 76.011719 C 174.921875 76.277344 175.28125 76.40625 175.714844 76.40625 C 176.199219 76.40625 176.609375 76.242188 176.941406 75.90625 C 177.285156 75.5625 177.464844 75.132812 177.464844 74.617188 C 177.464844 74.132812 177.300781 73.734375 176.984375 73.429688 C 176.675781 73.109375 176.28125 72.949219 175.796875 72.949219 C 175.589844 72.949219 175.339844 72.992188 175.046875 73.074219 L 175.171875 72.136719 C 175.238281 72.152344 175.296875 72.15625 175.339844 72.15625 C 175.78125 72.15625 176.183594 72.042969 176.546875 71.804688 C 176.90625 71.570312 177.089844 71.210938 177.089844 70.71875 C 177.089844 70.335938 176.953125 70.011719 176.691406 69.761719 C 176.425781 69.511719 176.089844 69.386719 175.671875 69.386719 C 175.265625 69.386719 174.925781 69.523438 174.652344 69.78125 C 174.386719 70.03125 174.214844 70.417969 174.128906 70.929688 L 173.066406 70.742188 C 173.203125 70.03125 173.496094 69.484375 173.941406 69.09375 C 174.402344 68.710938 174.96875 68.511719 175.652344 68.511719 C 176.121094 68.511719 176.550781 68.617188 176.941406 68.824219 C 177.34375 69.023438 177.652344 69.292969 177.859375 69.636719 C 178.066406 69.984375 178.171875 70.355469 178.171875 70.742188 C 178.171875 71.117188 178.066406 71.460938 177.859375 71.761719 C 177.660156 72.070312 177.371094 72.3125 176.984375 72.492188 C 177.496094 72.605469 177.890625 72.84375 178.171875 73.21875 C 178.449219 73.585938 178.589844 74.042969 178.589844 74.59375 C 178.589844 75.34375 178.308594 75.984375 177.753906 76.511719 C 177.214844 77.027344 176.527344 77.28125 175.691406 77.28125 C 174.941406 77.28125 174.316406 77.0625 173.816406 76.617188 C 173.316406 76.171875 173.03125 75.589844 172.964844 74.867188 Z M 172.964844 74.867188 "/>
<path style="fill:none;stroke-width:1;stroke-linecap:round;stroke-linejoin:round;stroke:rgb(0%,0%,0%);stroke-opacity:1;stroke-miterlimit:10;" d="M 926.850586 161.999023 L 944.850586 161.999023 L 944.850586 179.999023 L 926.850586 179.999023 Z M 926.850586 161.999023 " transform="matrix(1.333333,0,0,1.333333,-1096,-154.666667)"/>
<path style=" stroke:none;fill-rule:nonzero;fill:rgb(0%,0%,0%);fill-opacity:1;" d="M 154.503906 76.117188 L 154.503906 77.136719 L 148.816406 77.136719 C 148.816406 76.886719 148.859375 76.648438 148.941406 76.40625 C 149.09375 76.023438 149.328125 75.636719 149.652344 75.261719 C 149.96875 74.886719 150.425781 74.460938 151.027344 73.96875 C 151.953125 73.195312 152.578125 72.585938 152.902344 72.136719 C 153.234375 71.695312 153.402344 71.273438 153.402344 70.867188 C 153.402344 70.449219 153.246094 70.105469 152.941406 69.824219 C 152.652344 69.53125 152.265625 69.386719 151.796875 69.386719 C 151.28125 69.386719 150.871094 69.542969 150.566406 69.84375 C 150.261719 70.152344 150.109375 70.574219 150.109375 71.117188 L 149.027344 70.992188 C 149.09375 70.1875 149.371094 69.574219 149.859375 69.15625 C 150.34375 68.730469 150.996094 68.511719 151.816406 68.511719 C 152.636719 68.511719 153.28125 68.742188 153.753906 69.199219 C 154.238281 69.65625 154.484375 70.21875 154.484375 70.886719 C 154.484375 71.234375 154.410156 71.574219 154.277344 71.90625 C 154.136719 72.242188 153.902344 72.59375 153.566406 72.96875 C 153.246094 73.335938 152.714844 73.835938 151.964844 74.46875 C 151.324219 75 150.910156 75.359375 150.734375 75.554688 C 150.550781 75.75 150.40625 75.9375 150.296875 76.117188 Z M 154.503906 76.117188 "/>
<path style="fill:none;stroke-width:1;stroke-linecap:round;stroke-linejoin:round;stroke:rgb(0%,0%,0%);stroke-opacity:1;stroke-miterlimit:10;" d="M 944.850586 143.999023 L 962.850586 143.999023 L 962.850586 161.999023 L 944.850586 161.999023 Z M 944.850586 143.999023 " transform="matrix(1.333333,0,0,1.333333,-1096,-154.666667)"/>
<path style=" stroke:none;fill-rule:nonzero;fill:rgb(0%,0%,0%);fill-opacity:1;" d="M 176.941406 53.136719 L 175.878906 53.136719 L 175.878906 46.40625 C 175.628906 46.65625 175.296875 46.90625 174.878906 47.15625 C 174.464844 47.398438 174.09375 47.570312 173.777344 47.679688 L 173.777344 46.65625 C 174.359375 46.398438 174.871094 46.070312 175.316406 45.679688 C 175.761719 45.277344 176.074219 44.886719 176.253906 44.511719 L 176.941406 44.511719 Z M 176.941406 53.136719 "/>
<path style=" stroke:none;fill-rule:nonzero;fill:rgb(69.803923%,85.09804%,100%);fill-opacity:1;" d="M 139.800781 61.332031 L 163.800781 61.332031 L 163.800781 37.332031 L 139.800781 37.332031 Z M 139.800781 61.332031 "/>
<path style="fill:none;stroke-width:1;stroke-linecap:round;stroke-linejoin:round;stroke:rgb(0%,0%,0%);stroke-opacity:1;stroke-miterlimit:10;" d="M 926.850586 143.999023 L 944.850586 143.999023 L 944.850586 161.999023 L 926.850586 161.999023 Z M 926.850586 143.999023 " transform="matrix(1.333333,0,0,1.333333,-1096,-154.666667)"/>
<path style=" stroke:none;fill-rule:nonzero;fill:rgb(0%,0%,0%);fill-opacity:1;" d="M 148.964844 48.90625 C 148.964844 47.898438 149.066406 47.074219 149.277344 46.449219 C 149.484375 45.824219 149.785156 45.34375 150.191406 45.011719 C 150.609375 44.679688 151.128906 44.511719 151.753906 44.511719 C 152.222656 44.511719 152.636719 44.609375 152.984375 44.804688 C 153.328125 44.984375 153.613281 45.25 153.839844 45.59375 C 154.058594 45.945312 154.234375 46.367188 154.359375 46.867188 C 154.496094 47.367188 154.566406 48.046875 154.566406 48.90625 C 154.566406 49.90625 154.464844 50.71875 154.253906 51.34375 C 154.046875 51.960938 153.734375 52.4375 153.316406 52.78125 C 152.910156 53.117188 152.390625 53.28125 151.753906 53.28125 C 150.933594 53.28125 150.285156 52.984375 149.816406 52.386719 C 149.246094 51.679688 148.964844 50.523438 148.964844 48.90625 Z M 150.046875 48.90625 C 150.046875 50.3125 150.203125 51.25 150.527344 51.71875 C 150.859375 52.179688 151.265625 52.40625 151.753906 52.40625 C 152.238281 52.40625 152.652344 52.179688 152.984375 51.71875 C 153.316406 51.25 153.484375 50.3125 153.484375 48.90625 C 153.484375 47.492188 153.316406 46.554688 152.984375 46.09375 C 152.652344 45.625 152.238281 45.386719 151.753906 45.386719 C 151.265625 45.386719 150.878906 45.589844 150.589844 45.992188 C 150.222656 46.523438 150.046875 47.492188 150.046875 48.90625 Z M 150.046875 48.90625 "/>
<path style="fill:none;stroke-width:1;stroke-linecap:round;stroke-linejoin:round;stroke:rgb(0%,0%,0%);stroke-opacity:1;stroke-miterlimit:10;" d="M 857.399414 245.799805 L 875.399414 245.799805 L 875.399414 263.799805 L 857.399414 263.799805 Z M 857.399414 245.799805 " transform="matrix(1.333333,0,0,1.333333,-1096,-154.666667)"/>
<path style=" stroke:none;fill-rule:nonzero;fill:rgb(69.803923%,85.09804%,100%);fill-opacity:1;" d="M 47.199219 149.066406 L 71.199219 149.066406 L 71.199219 125.066406 L 47.199219 125.066406 Z M 47.199219 149.066406 "/>
<path style="fill:none;stroke-width:1;stroke-linecap:round;stroke-linejoin:round;stroke:rgb(0%,0%,0%);stroke-opacity:1;stroke-miterlimit:10;" d="M 857.399414 209.799805 L 875.399414 209.799805 L 875.399414 227.799805 L 857.399414 227.799805 Z M 857.399414 209.799805 " transform="matrix(1.333333,0,0,1.333333,-1096,-154.666667)"/>
<path style=" stroke:none;fill-rule:nonzero;fill:rgb(0%,0%,0%);fill-opacity:1;" d="M 56.363281 136.640625 C 56.363281 135.628906 56.46875 134.808594 56.675781 134.183594 C 56.882812 133.558594 57.1875 133.078125 57.59375 132.746094 C 58.007812 132.410156 58.53125 132.246094 59.15625 132.246094 C 59.625 132.246094 60.035156 132.34375 60.382812 132.535156 C 60.726562 132.71875 61.015625 132.984375 61.238281 133.328125 C 61.457031 133.675781 61.632812 134.097656 61.757812 134.597656 C 61.894531 135.097656 61.96875 135.78125 61.96875 136.640625 C 61.96875 137.640625 61.863281 138.453125 61.65625 139.078125 C 61.445312 139.691406 61.132812 140.171875 60.71875 140.515625 C 60.3125 140.847656 59.789062 141.015625 59.15625 141.015625 C 58.332031 141.015625 57.6875 140.71875 57.21875 140.121094 C 56.644531 139.410156 56.363281 138.253906 56.363281 136.640625 Z M 57.445312 136.640625 C 57.445312 138.046875 57.601562 138.984375 57.925781 139.453125 C 58.257812 139.910156 58.664062 140.140625 59.15625 140.140625 C 59.640625 140.140625 60.050781 139.910156 60.382812 139.453125 C 60.71875 138.984375 60.882812 138.046875 60.882812 136.640625 C 60.882812 135.222656 60.71875 134.285156 60.382812 133.828125 C 60.050781 133.359375 59.640625 133.121094 59.15625 133.121094 C 58.664062 133.121094 58.28125 133.324219 57.988281 133.722656 C 57.625 134.253906 57.445312 135.222656 57.445312 136.640625 Z M 57.445312 136.640625 "/>
<path style=" stroke:none;fill-rule:nonzero;fill:rgb(69.803923%,85.09804%,100%);fill-opacity:1;" d="M 47.199219 173.066406 L 71.199219 173.066406 L 71.199219 149.066406 L 47.199219 149.066406 Z M 47.199219 173.066406 "/>
<path style="fill:none;stroke-width:1;stroke-linecap:round;stroke-linejoin:round;stroke:rgb(0%,0%,0%);stroke-opacity:1;stroke-miterlimit:10;" d="M 857.399414 227.799805 L 875.399414 227.799805 L 875.399414 245.799805 L 857.399414 245.799805 Z M 857.399414 227.799805 " transform="matrix(1.333333,0,0,1.333333,-1096,-154.666667)"/>
<path style=" stroke:none;fill-rule:nonzero;fill:rgb(0%,0%,0%);fill-opacity:1;" d="M 56.363281 160.640625 C 56.363281 159.628906 56.46875 158.808594 56.675781 158.183594 C 56.882812 157.558594 57.1875 157.078125 57.59375 156.746094 C 58.007812 156.410156 58.53125 156.246094 59.15625 156.246094 C 59.625 156.246094 60.035156 156.34375 60.382812 156.535156 C 60.726562 156.71875 61.015625 156.984375 61.238281 157.328125 C 61.457031 157.675781 61.632812 158.097656 61.757812 158.597656 C 61.894531 159.097656 61.96875 159.78125 61.96875 160.640625 C 61.96875 161.640625 61.863281 162.453125 61.65625 163.078125 C 61.445312 163.691406 61.132812 164.171875 60.71875 164.515625 C 60.3125 164.847656 59.789062 165.015625 59.15625 165.015625 C 58.332031 165.015625 57.6875 164.71875 57.21875 164.121094 C 56.644531 163.410156 56.363281 162.253906 56.363281 160.640625 Z M 57.445312 160.640625 C 57.445312 162.046875 57.601562 162.984375 57.925781 163.453125 C 58.257812 163.910156 58.664062 164.140625 59.15625 164.140625 C 59.640625 164.140625 60.050781 163.910156 60.382812 163.453125 C 60.71875 162.984375 60.882812 162.046875 60.882812 160.640625 C 60.882812 159.222656 60.71875 158.285156 60.382812 157.828125 C 60.050781 157.359375 59.640625 157.121094 59.15625 157.121094 C 58.664062 157.121094 58.28125 157.324219 57.988281 157.722656 C 57.625 158.253906 57.445312 159.222656 57.445312 160.640625 Z M 57.445312 160.640625 "/>
<path style="fill:none;stroke-width:1;stroke-linecap:round;stroke-linejoin:round;stroke:rgb(0%,0%,0%);stroke-opacity:1;stroke-miterlimit:10;" d="M 839.399414 245.799805 L 857.399414 245.799805 L 857.399414 263.799805 L 839.399414 263.799805 Z M 839.399414 245.799805 " transform="matrix(1.333333,0,0,1.333333,-1096,-154.666667)"/>
<path style="fill:none;stroke-width:1;stroke-linecap:round;stroke-linejoin:round;stroke:rgb(0%,0%,0%);stroke-opacity:1;stroke-miterlimit:10;" d="M 875.399414 227.799805 L 893.399414 227.799805 L 893.399414 245.799805 L 875.399414 245.799805 Z M 875.399414 227.799805 " transform="matrix(1.333333,0,0,1.333333,-1096,-154.666667)"/>
<path style=" stroke:none;fill-rule:nonzero;fill:rgb(69.803923%,85.09804%,100%);fill-opacity:1;" d="M 23.199219 173.066406 L 47.199219 173.066406 L 47.199219 149.066406 L 23.199219 149.066406 Z M 23.199219 173.066406 "/>
<path style="fill:none;stroke-width:1;stroke-linecap:round;stroke-linejoin:round;stroke:rgb(0%,0%,0%);stroke-opacity:1;stroke-miterlimit:10;" d="M 839.399414 227.799805 L 857.399414 227.799805 L 857.399414 245.799805 L 839.399414 245.799805 Z M 839.399414 227.799805 " transform="matrix(1.333333,0,0,1.333333,-1096,-154.666667)"/>
<path style=" stroke:none;fill-rule:nonzero;fill:rgb(0%,0%,0%);fill-opacity:1;" d="M 32.363281 160.640625 C 32.363281 159.628906 32.46875 158.808594 32.675781 158.183594 C 32.882812 157.558594 33.1875 157.078125 33.59375 156.746094 C 34.007812 156.410156 34.53125 156.246094 35.15625 156.246094 C 35.625 156.246094 36.035156 156.34375 36.382812 156.535156 C 36.726562 156.71875 37.015625 156.984375 37.238281 157.328125 C 37.457031 157.675781 37.632812 158.097656 37.757812 158.597656 C 37.894531 159.097656 37.96875 159.78125 37.96875 160.640625 C 37.96875 161.640625 37.863281 162.453125 37.65625 163.078125 C 37.445312 163.691406 37.132812 164.171875 36.71875 164.515625 C 36.3125 164.847656 35.789062 165.015625 35.15625 165.015625 C 34.332031 165.015625 33.6875 164.71875 33.21875 164.121094 C 32.644531 163.410156 32.363281 162.253906 32.363281 160.640625 Z M 33.445312 160.640625 C 33.445312 162.046875 33.601562 162.984375 33.925781 163.453125 C 34.257812 163.910156 34.664062 164.140625 35.15625 164.140625 C 35.640625 164.140625 36.050781 163.910156 36.382812 163.453125 C 36.71875 162.984375 36.882812 162.046875 36.882812 160.640625 C 36.882812 159.222656 36.71875 158.285156 36.382812 157.828125 C 36.050781 157.359375 35.640625 157.121094 35.15625 157.121094 C 34.664062 157.121094 34.28125 157.324219 33.988281 157.722656 C 33.625 158.253906 33.445312 159.222656 33.445312 160.640625 Z M 33.445312 160.640625 "/>
<path style="fill:none;stroke-width:1;stroke-linecap:round;stroke-linejoin:round;stroke:rgb(0%,0%,0%);stroke-opacity:1;stroke-miterlimit:10;" d="M 875.399414 245.799805 L 893.399414 245.799805 L 893.399414 263.799805 L 875.399414 263.799805 Z M 875.399414 245.799805 " transform="matrix(1.333333,0,0,1.333333,-1096,-154.666667)"/>
<path style="fill:none;stroke-width:1;stroke-linecap:round;stroke-linejoin:round;stroke:rgb(0%,0%,0%);stroke-opacity:1;stroke-miterlimit:10;" d="M 875.399414 209.799805 L 893.399414 209.799805 L 893.399414 227.799805 L 875.399414 227.799805 Z M 875.399414 209.799805 " transform="matrix(1.333333,0,0,1.333333,-1096,-154.666667)"/>
<path style=" stroke:none;fill-rule:nonzero;fill:rgb(69.803923%,85.09804%,100%);fill-opacity:1;" d="M 23.199219 149.066406 L 47.199219 149.066406 L 47.199219 125.066406 L 23.199219 125.066406 Z M 23.199219 149.066406 "/>
<path style="fill:none;stroke-width:1;stroke-linecap:round;stroke-linejoin:round;stroke:rgb(0%,0%,0%);stroke-opacity:1;stroke-miterlimit:10;" d="M 839.399414 209.799805 L 857.399414 209.799805 L 857.399414 227.799805 L 839.399414 227.799805 Z M 839.399414 209.799805 " transform="matrix(1.333333,0,0,1.333333,-1096,-154.666667)"/>
<path style=" stroke:none;fill-rule:nonzero;fill:rgb(0%,0%,0%);fill-opacity:1;" d="M 32.363281 136.640625 C 32.363281 135.628906 32.46875 134.808594 32.675781 134.183594 C 32.882812 133.558594 33.1875 133.078125 33.59375 132.746094 C 34.007812 132.410156 34.53125 132.246094 35.15625 132.246094 C 35.625 132.246094 36.035156 132.34375 36.382812 132.535156 C 36.726562 132.71875 37.015625 132.984375 37.238281 133.328125 C 37.457031 133.675781 37.632812 134.097656 37.757812 134.597656 C 37.894531 135.097656 37.96875 135.78125 37.96875 136.640625 C 37.96875 137.640625 37.863281 138.453125 37.65625 139.078125 C 37.445312 139.691406 37.132812 140.171875 36.71875 140.515625 C 36.3125 140.847656 35.789062 141.015625 35.15625 141.015625 C 34.332031 141.015625 33.6875 140.71875 33.21875 140.121094 C 32.644531 139.410156 32.363281 138.253906 32.363281 136.640625 Z M 33.445312 136.640625 C 33.445312 138.046875 33.601562 138.984375 33.925781 139.453125 C 34.257812 139.910156 34.664062 140.140625 35.15625 140.140625 C 35.640625 140.140625 36.050781 139.910156 36.382812 139.453125 C 36.71875 138.984375 36.882812 138.046875 36.882812 136.640625 C 36.882812 135.222656 36.71875 134.285156 36.382812 133.828125 C 36.050781 133.359375 35.640625 133.121094 35.15625 133.121094 C 34.664062 133.121094 34.28125 133.324219 33.988281 133.722656 C 33.625 134.253906 33.445312 135.222656 33.445312 136.640625 Z M 33.445312 136.640625 "/>
<path style=" stroke:none;fill-rule:nonzero;fill:rgb(69.803923%,85.09804%,100%);fill-opacity:1;" d="M 295.800781 86.667969 L 319.800781 86.667969 L 319.800781 62.667969 L 295.800781 62.667969 Z M 295.800781 86.667969 "/>
<path style="fill:none;stroke-width:1;stroke-linecap:round;stroke-linejoin:round;stroke:rgb(0%,0%,0%);stroke-opacity:1;stroke-miterlimit:10;" d="M 1043.850586 163.000977 L 1061.850586 163.000977 L 1061.850586 181.000977 L 1043.850586 181.000977 Z M 1043.850586 163.000977 " transform="matrix(1.333333,0,0,1.333333,-1096,-154.666667)"/>
<path style=" stroke:none;fill-rule:nonzero;fill:rgb(0%,0%,0%);fill-opacity:1;" d="M 310.503906 77.449219 L 310.503906 78.46875 L 304.816406 78.46875 C 304.816406 78.21875 304.859375 77.980469 304.941406 77.742188 C 305.09375 77.355469 305.328125 76.96875 305.648438 76.59375 C 305.96875 76.21875 306.425781 75.792969 307.023438 75.304688 C 307.953125 74.527344 308.578125 73.917969 308.898438 73.46875 C 309.234375 73.027344 309.398438 72.605469 309.398438 72.199219 C 309.398438 71.78125 309.242188 71.4375 308.941406 71.15625 C 308.648438 70.867188 308.265625 70.71875 307.796875 70.71875 C 307.28125 70.71875 306.867188 70.875 306.566406 71.179688 C 306.257812 71.484375 306.109375 71.90625 306.109375 72.449219 L 305.023438 72.324219 C 305.09375 71.523438 305.367188 70.90625 305.859375 70.492188 C 306.34375 70.0625 306.992188 69.84375 307.816406 69.84375 C 308.632812 69.84375 309.28125 70.074219 309.753906 70.53125 C 310.238281 70.992188 310.484375 71.554688 310.484375 72.21875 C 310.484375 72.570312 310.410156 72.90625 310.273438 73.242188 C 310.132812 73.574219 309.898438 73.929688 309.566406 74.304688 C 309.242188 74.667969 308.710938 75.167969 307.960938 75.804688 C 307.320312 76.335938 306.910156 76.695312 306.734375 76.886719 C 306.550781 77.085938 306.40625 77.273438 306.296875 77.449219 Z M 310.503906 77.449219 "/>
<path style=" stroke:none;fill-rule:nonzero;fill:rgb(69.803923%,85.09804%,100%);fill-opacity:1;" d="M 319.800781 86.667969 L 343.800781 86.667969 L 343.800781 62.667969 L 319.800781 62.667969 Z M 319.800781 86.667969 "/>
<path style="fill:none;stroke-width:1;stroke-linecap:round;stroke-linejoin:round;stroke:rgb(0%,0%,0%);stroke-opacity:1;stroke-miterlimit:10;" d="M 1061.850586 163.000977 L 1079.850586 163.000977 L 1079.850586 181.000977 L 1061.850586 181.000977 Z M 1061.850586 163.000977 " transform="matrix(1.333333,0,0,1.333333,-1096,-154.666667)"/>
<path style=" stroke:none;fill-rule:nonzero;fill:rgb(0%,0%,0%);fill-opacity:1;" d="M 328.960938 76.199219 L 330.023438 76.054688 C 330.148438 76.652344 330.347656 77.085938 330.628906 77.34375 C 330.921875 77.609375 331.28125 77.742188 331.710938 77.742188 C 332.195312 77.742188 332.609375 77.574219 332.941406 77.242188 C 333.285156 76.898438 333.460938 76.464844 333.460938 75.949219 C 333.460938 75.464844 333.300781 75.070312 332.984375 74.761719 C 332.675781 74.445312 332.28125 74.28125 331.796875 74.28125 C 331.585938 74.28125 331.335938 74.324219 331.046875 74.40625 L 331.171875 73.46875 C 331.238281 73.484375 331.296875 73.492188 331.335938 73.492188 C 331.78125 73.492188 332.179688 73.375 332.546875 73.136719 C 332.90625 72.902344 333.085938 72.542969 333.085938 72.054688 C 333.085938 71.667969 332.953125 71.34375 332.691406 71.09375 C 332.425781 70.84375 332.085938 70.71875 331.671875 70.71875 C 331.265625 70.71875 330.925781 70.855469 330.648438 71.117188 C 330.382812 71.367188 330.210938 71.75 330.128906 72.261719 L 329.066406 72.074219 C 329.203125 71.367188 329.492188 70.820312 329.941406 70.429688 C 330.398438 70.042969 330.96875 69.84375 331.648438 69.84375 C 332.117188 69.84375 332.550781 69.949219 332.941406 70.15625 C 333.34375 70.355469 333.648438 70.625 333.859375 70.96875 C 334.066406 71.320312 334.171875 71.6875 334.171875 72.074219 C 334.171875 72.449219 334.066406 72.792969 333.859375 73.09375 C 333.660156 73.402344 333.367188 73.648438 332.984375 73.824219 C 333.492188 73.9375 333.890625 74.179688 334.171875 74.554688 C 334.445312 74.917969 334.585938 75.375 334.585938 75.929688 C 334.585938 76.679688 334.304688 77.320312 333.753906 77.84375 C 333.210938 78.359375 332.523438 78.617188 331.691406 78.617188 C 330.941406 78.617188 330.316406 78.398438 329.816406 77.949219 C 329.316406 77.507812 329.03125 76.921875 328.960938 76.199219 Z M 328.960938 76.199219 "/>
<path style=" stroke:none;fill-rule:nonzero;fill:rgb(69.803923%,85.09804%,100%);fill-opacity:1;" d="M 319.800781 62.667969 L 343.800781 62.667969 L 343.800781 38.667969 L 319.800781 38.667969 Z M 319.800781 62.667969 "/>
<path style="fill:none;stroke-width:1;stroke-linecap:round;stroke-linejoin:round;stroke:rgb(0%,0%,0%);stroke-opacity:1;stroke-miterlimit:10;" d="M 1061.850586 145.000977 L 1079.850586 145.000977 L 1079.850586 163.000977 L 1061.850586 163.000977 Z M 1061.850586 145.000977 " transform="matrix(1.333333,0,0,1.333333,-1096,-154.666667)"/>
<path style=" stroke:none;fill-rule:nonzero;fill:rgb(0%,0%,0%);fill-opacity:1;" d="M 332.941406 54.46875 L 331.878906 54.46875 L 331.878906 47.742188 C 331.628906 47.992188 331.296875 48.242188 330.878906 48.492188 C 330.460938 48.730469 330.09375 48.902344 329.773438 49.011719 L 329.773438 47.992188 C 330.359375 47.730469 330.867188 47.402344 331.316406 47.011719 C 331.757812 46.609375 332.070312 46.21875 332.253906 45.84375 L 332.941406 45.84375 Z M 332.941406 54.46875 "/>
<path style=" stroke:none;fill-rule:nonzero;fill:rgb(69.803923%,85.09804%,100%);fill-opacity:1;" d="M 295.800781 62.667969 L 319.800781 62.667969 L 319.800781 38.667969 L 295.800781 38.667969 Z M 295.800781 62.667969 "/>
<path style="fill:none;stroke-width:1;stroke-linecap:round;stroke-linejoin:round;stroke:rgb(0%,0%,0%);stroke-opacity:1;stroke-miterlimit:10;" d="M 1043.850586 145.000977 L 1061.850586 145.000977 L 1061.850586 163.000977 L 1043.850586 163.000977 Z M 1043.850586 145.000977 " transform="matrix(1.333333,0,0,1.333333,-1096,-154.666667)"/>
<path style=" stroke:none;fill-rule:nonzero;fill:rgb(0%,0%,0%);fill-opacity:1;" d="M 304.960938 50.242188 C 304.960938 49.230469 305.066406 48.40625 305.273438 47.78125 C 305.484375 47.15625 305.785156 46.679688 306.191406 46.34375 C 306.609375 46.011719 307.128906 45.84375 307.753906 45.84375 C 308.222656 45.84375 308.632812 45.945312 308.984375 46.136719 C 309.328125 46.320312 309.613281 46.585938 309.835938 46.929688 C 310.054688 47.277344 310.234375 47.699219 310.359375 48.199219 C 310.492188 48.699219 310.566406 49.382812 310.566406 50.242188 C 310.566406 51.242188 310.460938 52.054688 310.253906 52.679688 C 310.046875 53.292969 309.734375 53.773438 309.316406 54.117188 C 308.910156 54.449219 308.390625 54.617188 307.753906 54.617188 C 306.929688 54.617188 306.285156 54.320312 305.816406 53.71875 C 305.242188 53.011719 304.960938 51.855469 304.960938 50.242188 Z M 306.046875 50.242188 C 306.046875 51.648438 306.203125 52.585938 306.523438 53.054688 C 306.859375 53.511719 307.265625 53.742188 307.753906 53.742188 C 308.238281 53.742188 308.648438 53.511719 308.984375 53.054688 C 309.316406 52.585938 309.484375 51.648438 309.484375 50.242188 C 309.484375 48.824219 309.316406 47.886719 308.984375 47.429688 C 308.648438 46.960938 308.238281 46.71875 307.753906 46.71875 C 307.265625 46.71875 306.878906 46.921875 306.585938 47.324219 C 306.222656 47.855469 306.046875 48.824219 306.046875 50.242188 Z M 306.046875 50.242188 "/>
<path style=" stroke:none;fill-rule:nonzero;fill:rgb(0%,0%,0%);fill-opacity:1;" d="M 415.816406 103.765625 L 415.816406 105.535156 L 414.628906 105.535156 C 414.921875 104.765625 415.210938 103.890625 415.460938 102.910156 L 417.773438 102.910156 L 417.773438 102.097656 L 415.671875 102.097656 C 415.773438 101.617188 415.878906 101.097656 416.003906 100.554688 L 415.210938 100.390625 C 415.085938 100.972656 414.984375 101.554688 414.859375 102.097656 L 413.671875 102.097656 L 413.671875 102.910156 L 414.671875 102.910156 C 414.398438 103.972656 414.109375 104.890625 413.753906 105.597656 L 413.941406 106.328125 L 415.816406 106.328125 L 415.816406 108.117188 C 415.109375 108.242188 414.378906 108.367188 413.585938 108.453125 L 413.691406 109.304688 C 414.421875 109.179688 415.128906 109.078125 415.816406 108.929688 L 415.816406 111.429688 L 416.609375 111.429688 L 416.609375 108.765625 L 417.753906 108.472656 L 417.753906 107.660156 C 417.398438 107.742188 417.023438 107.847656 416.609375 107.953125 L 416.609375 106.328125 L 417.710938 106.328125 L 417.710938 105.535156 L 416.609375 105.535156 L 416.609375 103.765625 Z M 419.359375 103.140625 L 419.359375 103.847656 L 422.796875 103.847656 L 422.796875 103.140625 L 419.359375 103.140625 C 419.960938 102.554688 420.546875 101.910156 421.109375 101.222656 C 422.023438 102.390625 423.046875 103.390625 424.171875 104.203125 L 424.628906 103.535156 C 423.546875 102.765625 422.484375 101.742188 421.421875 100.453125 L 420.816406 100.453125 C 419.835938 101.640625 418.734375 102.703125 417.503906 103.597656 L 417.984375 104.328125 C 418.441406 103.953125 418.898438 103.554688 419.359375 103.140625 Z M 420.191406 111.347656 C 420.773438 111.347656 421.085938 111.035156 421.085938 110.410156 L 421.085938 104.804688 L 418.253906 104.804688 L 418.253906 111.429688 L 419.003906 111.429688 L 419.003906 109.179688 L 420.359375 109.179688 L 420.359375 110.265625 C 420.359375 110.515625 420.210938 110.660156 419.960938 110.660156 L 419.421875 110.640625 L 419.609375 111.347656 Z M 419.003906 108.515625 L 419.003906 107.367188 L 420.359375 107.367188 L 420.359375 108.515625 Z M 419.003906 106.703125 L 419.003906 105.515625 L 420.359375 105.515625 L 420.359375 106.703125 Z M 421.796875 105.140625 L 421.796875 109.453125 L 422.484375 109.453125 L 422.484375 105.140625 Z M 423.109375 111.367188 C 423.691406 111.367188 423.984375 111.015625 423.984375 110.328125 L 423.984375 104.597656 L 423.234375 104.597656 L 423.234375 110.140625 C 423.234375 110.472656 423.109375 110.660156 422.835938 110.660156 C 422.546875 110.660156 422.234375 110.640625 421.921875 110.597656 L 422.085938 111.367188 Z M 423.109375 111.367188 "/>
<path style=" stroke:none;fill-rule:nonzero;fill:rgb(0%,0%,0%);fill-opacity:1;" d="M 434.316406 104.597656 L 431.503906 104.597656 L 431.503906 100.410156 L 430.628906 100.410156 L 430.628906 104.597656 L 427.816406 104.597656 L 427.816406 101.328125 L 426.941406 101.328125 L 426.941406 105.429688 L 430.628906 105.429688 L 430.628906 109.847656 L 427.234375 109.847656 L 427.234375 106.554688 L 426.359375 106.554688 L 426.359375 111.347656 L 427.234375 111.347656 L 427.234375 110.660156 L 434.898438 110.660156 L 434.898438 111.347656 L 435.773438 111.347656 L 435.773438 106.554688 L 434.898438 106.554688 L 434.898438 109.847656 L 431.503906 109.847656 L 431.503906 105.429688 L 435.191406 105.429688 L 435.191406 101.328125 L 434.316406 101.328125 Z M 434.316406 104.597656 "/>
<path style=" stroke:none;fill-rule:nonzero;fill:rgb(0%,0%,0%);fill-opacity:1;" d="M 304.925781 15.082031 C 305.300781 15.605469 305.714844 16.292969 306.195312 17.125 L 306.675781 16.394531 C 306.089844 15.5625 305.507812 14.8125 304.925781 14.144531 L 304.925781 13.375 L 306.339844 13.375 L 306.339844 12.542969 L 304.925781 12.542969 L 304.925781 10.207031 L 304.113281 10.207031 L 304.113281 12.542969 L 302.445312 12.542969 L 302.445312 13.375 L 304.070312 13.375 C 303.714844 14.957031 303.089844 16.375 302.238281 17.625 L 302.613281 18.5 C 303.214844 17.519531 303.714844 16.417969 304.113281 15.1875 L 304.113281 21.207031 L 304.925781 21.207031 Z M 306.652344 11.519531 L 306.652344 12.292969 L 308.964844 12.292969 C 308.214844 13.605469 307.589844 14.417969 307.113281 14.730469 C 307.070312 14.75 307.027344 14.769531 306.945312 14.792969 L 307.132812 15.5 C 308.070312 15.457031 308.964844 15.417969 309.820312 15.375 C 308.839844 16.480469 307.613281 17.269531 306.175781 17.792969 L 306.632812 18.519531 C 308.964844 17.644531 310.714844 16.019531 311.925781 13.644531 L 311.214844 13.269531 C 310.988281 13.75 310.695312 14.1875 310.382812 14.625 C 309.652344 14.6875 308.882812 14.730469 308.132812 14.769531 C 308.632812 14.292969 309.195312 13.457031 309.863281 12.292969 L 313.152344 12.292969 L 313.152344 11.519531 L 310.488281 11.519531 C 310.320312 11.019531 310.132812 10.5625 309.964844 10.1875 L 309.070312 10.332031 C 309.277344 10.6875 309.488281 11.082031 309.652344 11.519531 Z M 310.488281 18.769531 C 311.382812 19.605469 312.089844 20.394531 312.613281 21.144531 L 313.238281 20.519531 C 312.632812 19.75 311.882812 19 311.027344 18.230469 C 311.800781 17.4375 312.488281 16.5 313.070312 15.4375 L 312.339844 15.042969 C 310.925781 17.667969 308.820312 19.457031 306.007812 20.375 L 306.464844 21.125 C 308.007812 20.582031 309.339844 19.792969 310.488281 18.769531 Z M 310.488281 18.769531 "/>
<path style=" stroke:none;fill-rule:nonzero;fill:rgb(0%,0%,0%);fill-opacity:1;" d="M 319.507812 10.207031 L 319.507812 15.167969 L 318.507812 15.167969 L 318.507812 16 L 319.507812 16 L 319.507812 19.980469 C 319.507812 20.1875 319.382812 20.332031 319.132812 20.417969 L 319.527344 21.207031 C 320.652344 20.894531 321.652344 20.480469 322.507812 19.980469 L 322.363281 19.144531 C 321.675781 19.5625 321.007812 19.875 320.339844 20.105469 L 320.339844 16 L 321.632812 16 C 322.339844 18.207031 323.382812 19.875 324.777344 21.042969 L 325.363281 20.375 C 324.089844 19.355469 323.089844 17.894531 322.382812 16 L 325.152344 16 L 325.152344 15.167969 L 320.339844 15.167969 L 320.339844 10.207031 Z M 324.089844 10.8125 C 323.402344 11.875 322.363281 12.832031 320.945312 13.667969 L 321.445312 14.332031 C 322.902344 13.480469 323.964844 12.519531 324.695312 11.4375 Z M 315.632812 14.144531 L 317.839844 14.144531 L 317.839844 10.667969 L 314.464844 10.667969 L 314.464844 11.480469 L 317.007812 11.480469 L 317.007812 13.355469 L 314.863281 13.355469 L 314.488281 16.855469 L 317.175781 16.855469 C 317.175781 18.292969 317.113281 19.230469 317.007812 19.667969 C 316.902344 20.105469 316.488281 20.332031 315.800781 20.332031 C 315.445312 20.332031 315.132812 20.292969 314.820312 20.269531 L 315.027344 21.0625 C 315.339844 21.082031 315.675781 21.125 315.988281 21.125 C 317.070312 21.0625 317.675781 20.707031 317.820312 20.019531 C 317.945312 19.394531 318.027344 18.0625 318.027344 16.082031 L 315.402344 16.082031 Z M 315.632812 14.144531 "/>
<path style=" stroke:none;fill-rule:nonzero;fill:rgb(0%,0%,0%);fill-opacity:1;" d="M 327.632812 15.230469 L 327.632812 18.292969 L 331.363281 18.292969 L 331.363281 18.957031 L 327.339844 18.957031 L 327.339844 19.542969 L 331.363281 19.542969 L 331.363281 20.25 L 326.445312 20.25 L 326.445312 20.917969 L 337.152344 20.917969 L 337.152344 20.25 L 332.214844 20.25 L 332.214844 19.542969 L 336.277344 19.542969 L 336.277344 18.957031 L 332.214844 18.957031 L 332.214844 18.292969 L 335.988281 18.292969 L 335.988281 15.230469 Z M 335.152344 17.75 L 332.214844 17.75 L 332.214844 17.019531 L 335.152344 17.019531 Z M 331.363281 17.75 L 328.464844 17.75 L 328.464844 17.019531 L 331.363281 17.019531 Z M 328.464844 16.5 L 328.464844 15.769531 L 331.363281 15.769531 L 331.363281 16.5 Z M 332.214844 15.769531 L 335.152344 15.769531 L 335.152344 16.5 L 332.214844 16.5 Z M 327.902344 10.394531 L 327.902344 13.355469 L 335.738281 13.355469 L 335.738281 10.394531 Z M 334.902344 12.832031 L 328.738281 12.832031 L 328.738281 12.125 L 334.902344 12.125 Z M 328.738281 11.605469 L 328.738281 10.917969 L 334.902344 10.917969 L 334.902344 11.605469 Z M 326.425781 13.980469 L 326.425781 14.625 L 337.175781 14.625 L 337.175781 13.980469 Z M 326.425781 13.980469 "/>
<path style=" stroke:none;fill-rule:nonzero;fill:rgb(0%,0%,0%);fill-opacity:1;" d="M 154.550781 13.542969 L 154.550781 15.3125 L 153.363281 15.3125 C 153.652344 14.542969 153.945312 13.667969 154.195312 12.6875 L 156.507812 12.6875 L 156.507812 11.875 L 154.402344 11.875 C 154.507812 11.394531 154.613281 10.875 154.738281 10.332031 L 153.945312 10.167969 C 153.820312 10.75 153.714844 11.332031 153.589844 11.875 L 152.402344 11.875 L 152.402344 12.6875 L 153.402344 12.6875 C 153.132812 13.75 152.839844 14.667969 152.488281 15.375 L 152.675781 16.105469 L 154.550781 16.105469 L 154.550781 17.894531 C 153.839844 18.019531 153.113281 18.144531 152.320312 18.230469 L 152.425781 19.082031 C 153.152344 18.957031 153.863281 18.855469 154.550781 18.707031 L 154.550781 21.207031 L 155.339844 21.207031 L 155.339844 18.542969 L 156.488281 18.25 L 156.488281 17.4375 C 156.132812 17.519531 155.757812 17.625 155.339844 17.730469 L 155.339844 16.105469 L 156.445312 16.105469 L 156.445312 15.3125 L 155.339844 15.3125 L 155.339844 13.542969 Z M 158.089844 12.917969 L 158.089844 13.625 L 161.527344 13.625 L 161.527344 12.917969 L 158.089844 12.917969 C 158.695312 12.332031 159.277344 11.6875 159.839844 11 C 160.757812 12.167969 161.777344 13.167969 162.902344 13.980469 L 163.363281 13.3125 C 162.277344 12.542969 161.214844 11.519531 160.152344 10.230469 L 159.550781 10.230469 C 158.570312 11.417969 157.464844 12.480469 156.238281 13.375 L 156.714844 14.105469 C 157.175781 13.730469 157.632812 13.332031 158.089844 12.917969 Z M 158.925781 21.125 C 159.507812 21.125 159.820312 20.8125 159.820312 20.1875 L 159.820312 14.582031 L 156.988281 14.582031 L 156.988281 21.207031 L 157.738281 21.207031 L 157.738281 18.957031 L 159.089844 18.957031 L 159.089844 20.042969 C 159.089844 20.292969 158.945312 20.4375 158.695312 20.4375 L 158.152344 20.417969 L 158.339844 21.125 Z M 157.738281 18.292969 L 157.738281 17.144531 L 159.089844 17.144531 L 159.089844 18.292969 Z M 157.738281 16.480469 L 157.738281 15.292969 L 159.089844 15.292969 L 159.089844 16.480469 Z M 160.527344 14.917969 L 160.527344 19.230469 L 161.214844 19.230469 L 161.214844 14.917969 Z M 161.839844 21.144531 C 162.425781 21.144531 162.714844 20.792969 162.714844 20.105469 L 162.714844 14.375 L 161.964844 14.375 L 161.964844 19.917969 C 161.964844 20.25 161.839844 20.4375 161.570312 20.4375 C 161.277344 20.4375 160.964844 20.417969 160.652344 20.375 L 160.820312 21.144531 Z M 161.839844 21.144531 "/>
<path style=" stroke:none;fill-rule:nonzero;fill:rgb(0%,0%,0%);fill-opacity:1;" d="M 169.277344 12.980469 C 168.507812 16.167969 166.839844 18.625 164.257812 20.292969 L 164.777344 21.042969 C 167.300781 19.394531 168.964844 17.042969 169.757812 13.980469 C 169.820312 14.125 169.863281 14.292969 169.945312 14.5 C 171.175781 17.667969 172.757812 19.855469 174.714844 21.019531 L 175.257812 20.332031 C 173.339844 19.144531 171.839844 17.105469 170.714844 14.25 C 169.988281 12.292969 169.070312 10.9375 168.007812 10.1875 L 167.300781 10.644531 C 168.050781 11.207031 168.714844 11.980469 169.277344 12.980469 Z M 169.277344 12.980469 "/>
<path style=" stroke:none;fill-rule:nonzero;fill:rgb(0%,0%,0%);fill-opacity:1;" d="M 13.703125 161.023438 L 8.039062 161.023438 L 8.039062 160.023438 L 13.703125 160.023438 Z M 13.703125 163.628906 L 8.039062 163.628906 L 8.039062 162.628906 L 13.703125 162.628906 Z M 13.703125 163.628906 "/>
<path style="fill:none;stroke-width:1;stroke-linecap:round;stroke-linejoin:round;stroke:rgb(0%,0%,0%);stroke-opacity:1;stroke-miterlimit:10;" d="M 926.000977 245.799805 L 944.000977 245.799805 L 944.000977 263.799805 L 926.000977 263.799805 Z M 926.000977 245.799805 " transform="matrix(1.333333,0,0,1.333333,-1096,-154.666667)"/>
<path style="fill:none;stroke-width:1;stroke-linecap:round;stroke-linejoin:round;stroke:rgb(0%,0%,0%);stroke-opacity:1;stroke-miterlimit:10;" d="M 926.000977 209.799805 L 944.000977 209.799805 L 944.000977 227.799805 L 926.000977 227.799805 Z M 926.000977 209.799805 " transform="matrix(1.333333,0,0,1.333333,-1096,-154.666667)"/>
<path style=" stroke:none;fill-rule:nonzero;fill:rgb(0%,0%,0%);fill-opacity:1;" d="M 147.828125 136.640625 C 147.828125 135.628906 147.933594 134.808594 148.140625 134.183594 C 148.351562 133.558594 148.652344 133.078125 149.058594 132.746094 C 149.476562 132.410156 149.996094 132.246094 150.621094 132.246094 C 151.089844 132.246094 151.5 132.34375 151.851562 132.535156 C 152.195312 132.71875 152.480469 132.984375 152.703125 133.328125 C 152.921875 133.675781 153.101562 134.097656 153.226562 134.597656 C 153.359375 135.097656 153.433594 135.78125 153.433594 136.640625 C 153.433594 137.640625 153.328125 138.453125 153.121094 139.078125 C 152.914062 139.691406 152.601562 140.171875 152.183594 140.515625 C 151.777344 140.847656 151.257812 141.015625 150.621094 141.015625 C 149.796875 141.015625 149.152344 140.71875 148.683594 140.121094 C 148.109375 139.410156 147.828125 138.253906 147.828125 136.640625 Z M 148.914062 136.640625 C 148.914062 138.046875 149.070312 138.984375 149.390625 139.453125 C 149.726562 139.910156 150.132812 140.140625 150.621094 140.140625 C 151.105469 140.140625 151.515625 139.910156 151.851562 139.453125 C 152.183594 138.984375 152.351562 138.046875 152.351562 136.640625 C 152.351562 135.222656 152.183594 134.285156 151.851562 133.828125 C 151.515625 133.359375 151.105469 133.121094 150.621094 133.121094 C 150.132812 133.121094 149.746094 133.324219 149.453125 133.722656 C 149.089844 134.253906 148.914062 135.222656 148.914062 136.640625 Z M 148.914062 136.640625 "/>
<path style="fill:none;stroke-width:1;stroke-linecap:round;stroke-linejoin:round;stroke:rgb(0%,0%,0%);stroke-opacity:1;stroke-miterlimit:10;" d="M 926.000977 227.799805 L 944.000977 227.799805 L 944.000977 245.799805 L 926.000977 245.799805 Z M 926.000977 227.799805 " transform="matrix(1.333333,0,0,1.333333,-1096,-154.666667)"/>
<path style=" stroke:none;fill-rule:nonzero;fill:rgb(0%,0%,0%);fill-opacity:1;" d="M 153.371094 163.847656 L 153.371094 164.871094 L 147.683594 164.871094 C 147.683594 164.621094 147.726562 164.378906 147.808594 164.140625 C 147.960938 163.753906 148.195312 163.371094 148.515625 162.996094 C 148.835938 162.621094 149.292969 162.191406 149.890625 161.703125 C 150.820312 160.925781 151.445312 160.316406 151.765625 159.871094 C 152.101562 159.425781 152.265625 159.003906 152.265625 158.597656 C 152.265625 158.183594 152.109375 157.839844 151.808594 157.558594 C 151.515625 157.265625 151.132812 157.121094 150.664062 157.121094 C 150.148438 157.121094 149.734375 157.277344 149.433594 157.578125 C 149.125 157.886719 148.976562 158.308594 148.976562 158.847656 L 147.890625 158.722656 C 147.960938 157.921875 148.234375 157.308594 148.726562 156.890625 C 149.210938 156.464844 149.859375 156.246094 150.683594 156.246094 C 151.5 156.246094 152.148438 156.472656 152.621094 156.933594 C 153.105469 157.390625 153.351562 157.953125 153.351562 158.621094 C 153.351562 158.96875 153.277344 159.308594 153.140625 159.640625 C 153 159.972656 152.765625 160.328125 152.433594 160.703125 C 152.109375 161.066406 151.578125 161.566406 150.828125 162.203125 C 150.1875 162.734375 149.777344 163.09375 149.601562 163.285156 C 149.417969 163.484375 149.273438 163.671875 149.164062 163.847656 Z M 153.371094 163.847656 "/>
<path style="fill:none;stroke-width:1;stroke-linecap:round;stroke-linejoin:round;stroke:rgb(0%,0%,0%);stroke-opacity:1;stroke-miterlimit:10;" d="M 908.000977 245.799805 L 926.000977 245.799805 L 926.000977 263.799805 L 908.000977 263.799805 Z M 908.000977 245.799805 " transform="matrix(1.333333,0,0,1.333333,-1096,-154.666667)"/>
<path style="fill:none;stroke-width:1;stroke-linecap:round;stroke-linejoin:round;stroke:rgb(0%,0%,0%);stroke-opacity:1;stroke-miterlimit:10;" d="M 944.000977 227.799805 L 962.000977 227.799805 L 962.000977 245.799805 L 944.000977 245.799805 Z M 944.000977 227.799805 " transform="matrix(1.333333,0,0,1.333333,-1096,-154.666667)"/>
<path style=" stroke:none;fill-rule:nonzero;fill:rgb(0%,0%,0%);fill-opacity:1;" d="M 171.828125 162.597656 L 172.890625 162.453125 C 173.015625 163.050781 173.214844 163.484375 173.496094 163.746094 C 173.789062 164.011719 174.148438 164.140625 174.578125 164.140625 C 175.0625 164.140625 175.476562 163.972656 175.808594 163.640625 C 176.152344 163.296875 176.328125 162.863281 176.328125 162.347656 C 176.328125 161.863281 176.167969 161.46875 175.851562 161.160156 C 175.542969 160.84375 175.148438 160.683594 174.664062 160.683594 C 174.453125 160.683594 174.203125 160.722656 173.914062 160.808594 L 174.039062 159.871094 C 174.105469 159.886719 174.164062 159.890625 174.203125 159.890625 C 174.648438 159.890625 175.046875 159.777344 175.414062 159.535156 C 175.773438 159.300781 175.953125 158.941406 175.953125 158.453125 C 175.953125 158.066406 175.820312 157.746094 175.558594 157.496094 C 175.292969 157.246094 174.953125 157.121094 174.539062 157.121094 C 174.132812 157.121094 173.792969 157.253906 173.515625 157.515625 C 173.25 157.765625 173.078125 158.152344 172.996094 158.660156 L 171.933594 158.472656 C 172.070312 157.765625 172.359375 157.21875 172.808594 156.828125 C 173.265625 156.441406 173.835938 156.246094 174.515625 156.246094 C 174.984375 156.246094 175.417969 156.347656 175.808594 156.558594 C 176.210938 156.753906 176.515625 157.027344 176.726562 157.371094 C 176.933594 157.71875 177.039062 158.089844 177.039062 158.472656 C 177.039062 158.847656 176.933594 159.191406 176.726562 159.496094 C 176.527344 159.800781 176.234375 160.046875 175.851562 160.222656 C 176.359375 160.339844 176.757812 160.578125 177.039062 160.953125 C 177.3125 161.316406 177.453125 161.777344 177.453125 162.328125 C 177.453125 163.078125 177.171875 163.71875 176.621094 164.246094 C 176.078125 164.761719 175.390625 165.015625 174.558594 165.015625 C 173.808594 165.015625 173.183594 164.796875 172.683594 164.347656 C 172.183594 163.90625 171.898438 163.324219 171.828125 162.597656 Z M 171.828125 162.597656 "/>
<path style="fill:none;stroke-width:1;stroke-linecap:round;stroke-linejoin:round;stroke:rgb(0%,0%,0%);stroke-opacity:1;stroke-miterlimit:10;" d="M 908.000977 227.799805 L 926.000977 227.799805 L 926.000977 245.799805 L 908.000977 245.799805 Z M 908.000977 227.799805 " transform="matrix(1.333333,0,0,1.333333,-1096,-154.666667)"/>
<path style="fill:none;stroke-width:1;stroke-linecap:round;stroke-linejoin:round;stroke:rgb(0%,0%,0%);stroke-opacity:1;stroke-miterlimit:10;" d="M 944.000977 245.799805 L 962.000977 245.799805 L 962.000977 263.799805 L 944.000977 263.799805 Z M 944.000977 245.799805 " transform="matrix(1.333333,0,0,1.333333,-1096,-154.666667)"/>
<path style="fill:none;stroke-width:1;stroke-linecap:round;stroke-linejoin:round;stroke:rgb(0%,0%,0%);stroke-opacity:1;stroke-miterlimit:10;" d="M 944.000977 209.799805 L 962.000977 209.799805 L 962.000977 227.799805 L 944.000977 227.799805 Z M 944.000977 209.799805 " transform="matrix(1.333333,0,0,1.333333,-1096,-154.666667)"/>
<path style=" stroke:none;fill-rule:nonzero;fill:rgb(0%,0%,0%);fill-opacity:1;" d="M 175.808594 140.871094 L 174.746094 140.871094 L 174.746094 134.140625 C 174.496094 134.390625 174.164062 134.640625 173.746094 134.890625 C 173.328125 135.128906 172.960938 135.300781 172.640625 135.410156 L 172.640625 134.390625 C 173.226562 134.128906 173.734375 133.800781 174.183594 133.410156 C 174.625 133.011719 174.9375 132.621094 175.121094 132.246094 L 175.808594 132.246094 Z M 175.808594 140.871094 "/>
<path style="fill:none;stroke-width:1;stroke-linecap:round;stroke-linejoin:round;stroke:rgb(0%,0%,0%);stroke-opacity:1;stroke-miterlimit:10;" d="M 908.000977 209.799805 L 926.000977 209.799805 L 926.000977 227.799805 L 908.000977 227.799805 Z M 908.000977 209.799805 " transform="matrix(1.333333,0,0,1.333333,-1096,-154.666667)"/>
<path style="fill:none;stroke-width:1;stroke-linecap:round;stroke-linejoin:round;stroke:rgb(0%,0%,0%);stroke-opacity:1;stroke-miterlimit:10;" d="M 994.602539 245.799805 L 1012.602539 245.799805 L 1012.602539 263.799805 L 994.602539 263.799805 Z M 994.602539 245.799805 " transform="matrix(1.333333,0,0,1.333333,-1096,-154.666667)"/>
<path style=" stroke:none;fill-rule:nonzero;fill:rgb(0%,0%,0%);fill-opacity:1;" d="M 244.773438 182.390625 L 243.710938 182.472656 C 243.628906 182.058594 243.492188 181.753906 243.316406 181.558594 C 243.035156 181.265625 242.691406 181.121094 242.273438 181.121094 C 241.925781 181.121094 241.628906 181.214844 241.378906 181.390625 C 241.046875 181.640625 240.78125 181.996094 240.585938 182.453125 C 240.40625 182.910156 240.304688 183.574219 240.296875 184.433594 C 240.546875 184.058594 240.847656 183.78125 241.210938 183.597656 C 241.585938 183.40625 241.972656 183.308594 242.378906 183.308594 C 243.085938 183.308594 243.679688 183.566406 244.171875 184.078125 C 244.671875 184.59375 244.921875 185.261719 244.921875 186.078125 C 244.921875 186.621094 244.800781 187.128906 244.566406 187.597656 C 244.328125 188.058594 244.007812 188.410156 243.609375 188.660156 C 243.203125 188.894531 242.742188 189.015625 242.234375 189.015625 C 241.359375 189.015625 240.640625 188.699219 240.085938 188.058594 C 239.53125 187.40625 239.253906 186.339844 239.253906 184.847656 C 239.253906 183.199219 239.554688 181.988281 240.171875 181.222656 C 240.695312 180.574219 241.421875 180.246094 242.335938 180.246094 C 243.003906 180.246094 243.550781 180.441406 243.984375 180.828125 C 244.410156 181.203125 244.675781 181.722656 244.773438 182.390625 Z M 240.460938 186.078125 C 240.460938 186.453125 240.535156 186.808594 240.691406 187.140625 C 240.84375 187.464844 241.054688 187.714844 241.335938 187.890625 C 241.613281 188.058594 241.90625 188.140625 242.210938 188.140625 C 242.65625 188.140625 243.035156 187.96875 243.359375 187.621094 C 243.675781 187.261719 243.835938 186.765625 243.835938 186.140625 C 243.835938 185.546875 243.675781 185.078125 243.359375 184.746094 C 243.050781 184.402344 242.65625 184.222656 242.171875 184.222656 C 241.695312 184.222656 241.296875 184.402344 240.960938 184.746094 C 240.628906 185.078125 240.460938 185.527344 240.460938 186.078125 Z M 240.460938 186.078125 "/>
<path style="fill:none;stroke-width:1;stroke-linecap:round;stroke-linejoin:round;stroke:rgb(0%,0%,0%);stroke-opacity:1;stroke-miterlimit:10;" d="M 994.602539 209.799805 L 1012.602539 209.799805 L 1012.602539 227.799805 L 994.602539 227.799805 Z M 994.602539 209.799805 " transform="matrix(1.333333,0,0,1.333333,-1096,-154.666667)"/>
<path style="fill:none;stroke-width:1;stroke-linecap:round;stroke-linejoin:round;stroke:rgb(0%,0%,0%);stroke-opacity:1;stroke-miterlimit:10;" d="M 994.602539 227.799805 L 1012.602539 227.799805 L 1012.602539 245.799805 L 994.602539 245.799805 Z M 994.602539 227.799805 " transform="matrix(1.333333,0,0,1.333333,-1096,-154.666667)"/>
<path style=" stroke:none;fill-rule:nonzero;fill:rgb(0%,0%,0%);fill-opacity:1;" d="M 244.835938 163.847656 L 244.835938 164.871094 L 239.148438 164.871094 C 239.148438 164.621094 239.191406 164.378906 239.273438 164.140625 C 239.425781 163.753906 239.660156 163.371094 239.984375 162.996094 C 240.300781 162.621094 240.757812 162.191406 241.359375 161.703125 C 242.285156 160.925781 242.910156 160.316406 243.234375 159.871094 C 243.566406 159.425781 243.734375 159.003906 243.734375 158.597656 C 243.734375 158.183594 243.578125 157.839844 243.273438 157.558594 C 242.984375 157.265625 242.597656 157.121094 242.128906 157.121094 C 241.613281 157.121094 241.203125 157.277344 240.898438 157.578125 C 240.59375 157.886719 240.441406 158.308594 240.441406 158.847656 L 239.359375 158.722656 C 239.425781 157.921875 239.703125 157.308594 240.191406 156.890625 C 240.675781 156.464844 241.328125 156.246094 242.148438 156.246094 C 242.96875 156.246094 243.613281 156.472656 244.085938 156.933594 C 244.570312 157.390625 244.816406 157.953125 244.816406 158.621094 C 244.816406 158.96875 244.742188 159.308594 244.609375 159.640625 C 244.46875 159.972656 244.234375 160.328125 243.898438 160.703125 C 243.578125 161.066406 243.046875 161.566406 242.296875 162.203125 C 241.65625 162.734375 241.242188 163.09375 241.066406 163.285156 C 240.882812 163.484375 240.738281 163.671875 240.628906 163.847656 Z M 244.835938 163.847656 "/>
<path style="fill:none;stroke-width:1;stroke-linecap:round;stroke-linejoin:round;stroke:rgb(0%,0%,0%);stroke-opacity:1;stroke-miterlimit:10;" d="M 976.602539 245.799805 L 994.602539 245.799805 L 994.602539 263.799805 L 976.602539 263.799805 Z M 976.602539 245.799805 " transform="matrix(1.333333,0,0,1.333333,-1096,-154.666667)"/>
<path style=" stroke:none;fill-rule:nonzero;fill:rgb(0%,0%,0%);fill-opacity:1;" d="M 218.671875 188.871094 L 218.671875 186.808594 L 214.941406 186.808594 L 214.941406 185.847656 L 218.859375 180.285156 L 219.734375 180.285156 L 219.734375 185.847656 L 220.902344 185.847656 L 220.902344 186.808594 L 219.734375 186.808594 L 219.734375 188.871094 Z M 218.671875 185.847656 L 218.671875 181.972656 L 215.984375 185.847656 Z M 218.671875 185.847656 "/>
<path style="fill:none;stroke-width:1;stroke-linecap:round;stroke-linejoin:round;stroke:rgb(0%,0%,0%);stroke-opacity:1;stroke-miterlimit:10;" d="M 1012.602539 227.799805 L 1030.602539 227.799805 L 1030.602539 245.799805 L 1012.602539 245.799805 Z M 1012.602539 227.799805 " transform="matrix(1.333333,0,0,1.333333,-1096,-154.666667)"/>
<path style="fill:none;stroke-width:1;stroke-linecap:round;stroke-linejoin:round;stroke:rgb(0%,0%,0%);stroke-opacity:1;stroke-miterlimit:10;" d="M 976.602539 227.799805 L 994.602539 227.799805 L 994.602539 245.799805 L 976.602539 245.799805 Z M 976.602539 227.799805 " transform="matrix(1.333333,0,0,1.333333,-1096,-154.666667)"/>
<path style=" stroke:none;fill-rule:nonzero;fill:rgb(0%,0%,0%);fill-opacity:1;" d="M 215.296875 160.640625 C 215.296875 159.628906 215.402344 158.808594 215.609375 158.183594 C 215.816406 157.558594 216.121094 157.078125 216.527344 156.746094 C 216.941406 156.410156 217.464844 156.246094 218.089844 156.246094 C 218.558594 156.246094 218.96875 156.34375 219.316406 156.535156 C 219.660156 156.71875 219.949219 156.984375 220.171875 157.328125 C 220.390625 157.675781 220.566406 158.097656 220.691406 158.597656 C 220.828125 159.097656 220.902344 159.78125 220.902344 160.640625 C 220.902344 161.640625 220.796875 162.453125 220.589844 163.078125 C 220.378906 163.691406 220.066406 164.171875 219.652344 164.515625 C 219.246094 164.847656 218.722656 165.015625 218.089844 165.015625 C 217.265625 165.015625 216.621094 164.71875 216.152344 164.121094 C 215.578125 163.410156 215.296875 162.253906 215.296875 160.640625 Z M 216.378906 160.640625 C 216.378906 162.046875 216.535156 162.984375 216.859375 163.453125 C 217.191406 163.910156 217.597656 164.140625 218.089844 164.140625 C 218.574219 164.140625 218.984375 163.910156 219.316406 163.453125 C 219.652344 162.984375 219.816406 162.046875 219.816406 160.640625 C 219.816406 159.222656 219.652344 158.285156 219.316406 157.828125 C 218.984375 157.359375 218.574219 157.121094 218.089844 157.121094 C 217.597656 157.121094 217.214844 157.324219 216.921875 157.722656 C 216.558594 158.253906 216.378906 159.222656 216.378906 160.640625 Z M 216.378906 160.640625 "/>
<path style="fill:none;stroke-width:1;stroke-linecap:round;stroke-linejoin:round;stroke:rgb(0%,0%,0%);stroke-opacity:1;stroke-miterlimit:10;" d="M 1012.602539 245.799805 L 1030.602539 245.799805 L 1030.602539 263.799805 L 1012.602539 263.799805 Z M 1012.602539 245.799805 " transform="matrix(1.333333,0,0,1.333333,-1096,-154.666667)"/>
<path style="fill:none;stroke-width:1;stroke-linecap:round;stroke-linejoin:round;stroke:rgb(0%,0%,0%);stroke-opacity:1;stroke-miterlimit:10;" d="M 1012.602539 209.799805 L 1030.602539 209.799805 L 1030.602539 227.799805 L 1012.602539 227.799805 Z M 1012.602539 209.799805 " transform="matrix(1.333333,0,0,1.333333,-1096,-154.666667)"/>
<path style="fill:none;stroke-width:1;stroke-linecap:round;stroke-linejoin:round;stroke:rgb(0%,0%,0%);stroke-opacity:1;stroke-miterlimit:10;" d="M 976.602539 209.799805 L 994.602539 209.799805 L 994.602539 227.799805 L 976.602539 227.799805 Z M 976.602539 209.799805 " transform="matrix(1.333333,0,0,1.333333,-1096,-154.666667)"/>
<path style="fill:none;stroke-width:1;stroke-linecap:round;stroke-linejoin:round;stroke:rgb(0%,0%,0%);stroke-opacity:1;stroke-miterlimit:10;" d="M 1063.356445 246.464844 L 1081.356445 246.464844 L 1081.356445 264.464844 L 1063.356445 264.464844 Z M 1063.356445 246.464844 " transform="matrix(1.333333,0,0,1.333333,-1096,-154.666667)"/>
<path style=" stroke:none;fill-rule:nonzero;fill:rgb(0%,0%,0%);fill-opacity:1;" d="M 336.449219 183.28125 L 335.386719 183.363281 C 335.300781 182.945312 335.167969 182.644531 334.988281 182.445312 C 334.707031 182.15625 334.363281 182.007812 333.949219 182.007812 C 333.597656 182.007812 333.300781 182.101562 333.050781 182.28125 C 332.71875 182.53125 332.453125 182.882812 332.261719 183.34375 C 332.078125 183.800781 331.980469 184.460938 331.96875 185.320312 C 332.21875 184.945312 332.519531 184.671875 332.886719 184.488281 C 333.261719 184.296875 333.644531 184.195312 334.050781 184.195312 C 334.761719 184.195312 335.355469 184.457031 335.84375 184.96875 C 336.34375 185.484375 336.59375 186.148438 336.59375 186.96875 C 336.59375 187.507812 336.472656 188.019531 336.238281 188.488281 C 336 188.945312 335.683594 189.300781 335.28125 189.550781 C 334.875 189.785156 334.417969 189.90625 333.90625 189.90625 C 333.03125 189.90625 332.3125 189.585938 331.761719 188.945312 C 331.203125 188.296875 330.925781 187.226562 330.925781 185.738281 C 330.925781 184.085938 331.230469 182.878906 331.84375 182.113281 C 332.371094 181.460938 333.09375 181.132812 334.011719 181.132812 C 334.675781 181.132812 335.222656 181.332031 335.65625 181.71875 C 336.082031 182.09375 336.347656 182.613281 336.449219 183.28125 Z M 332.136719 186.96875 C 332.136719 187.34375 332.207031 187.695312 332.363281 188.03125 C 332.515625 188.351562 332.730469 188.601562 333.011719 188.78125 C 333.285156 188.945312 333.578125 189.03125 333.886719 189.03125 C 334.328125 189.03125 334.707031 188.859375 335.03125 188.507812 C 335.347656 188.148438 335.511719 187.65625 335.511719 187.03125 C 335.511719 186.4375 335.347656 185.96875 335.03125 185.632812 C 334.722656 185.289062 334.328125 185.113281 333.84375 185.113281 C 333.371094 185.113281 332.96875 185.289062 332.636719 185.632812 C 332.300781 185.96875 332.136719 186.414062 332.136719 186.96875 Z M 332.136719 186.96875 "/>
<path style="fill:none;stroke-width:1;stroke-linecap:round;stroke-linejoin:round;stroke:rgb(0%,0%,0%);stroke-opacity:1;stroke-miterlimit:10;" d="M 1063.356445 210.464844 L 1081.356445 210.464844 L 1081.356445 228.464844 L 1063.356445 228.464844 Z M 1063.356445 210.464844 " transform="matrix(1.333333,0,0,1.333333,-1096,-154.666667)"/>
<path style="fill:none;stroke-width:1;stroke-linecap:round;stroke-linejoin:round;stroke:rgb(0%,0%,0%);stroke-opacity:1;stroke-miterlimit:10;" d="M 1063.356445 228.464844 L 1081.356445 228.464844 L 1081.356445 246.464844 L 1063.356445 246.464844 Z M 1063.356445 228.464844 " transform="matrix(1.333333,0,0,1.333333,-1096,-154.666667)"/>
<path style=" stroke:none;fill-rule:nonzero;fill:rgb(0%,0%,0%);fill-opacity:1;" d="M 330.96875 161.53125 C 330.96875 160.519531 331.074219 159.695312 331.28125 159.070312 C 331.488281 158.445312 331.792969 157.96875 332.199219 157.632812 C 332.613281 157.300781 333.136719 157.132812 333.761719 157.132812 C 334.230469 157.132812 334.640625 157.234375 334.988281 157.425781 C 335.332031 157.609375 335.621094 157.875 335.84375 158.21875 C 336.0625 158.566406 336.238281 158.988281 336.363281 159.488281 C 336.5 159.988281 336.574219 160.671875 336.574219 161.53125 C 336.574219 162.53125 336.46875 163.34375 336.261719 163.96875 C 336.050781 164.582031 335.738281 165.0625 335.324219 165.40625 C 334.917969 165.738281 334.394531 165.90625 333.761719 165.90625 C 332.9375 165.90625 332.292969 165.609375 331.824219 165.007812 C 331.25 164.300781 330.96875 163.144531 330.96875 161.53125 Z M 332.050781 161.53125 C 332.050781 162.9375 332.207031 163.875 332.53125 164.34375 C 332.863281 164.800781 333.269531 165.03125 333.761719 165.03125 C 334.246094 165.03125 334.65625 164.800781 334.988281 164.34375 C 335.324219 163.875 335.488281 162.9375 335.488281 161.53125 C 335.488281 160.113281 335.324219 159.175781 334.988281 158.71875 C 334.65625 158.25 334.246094 158.007812 333.761719 158.007812 C 333.269531 158.007812 332.886719 158.210938 332.59375 158.613281 C 332.230469 159.144531 332.050781 160.113281 332.050781 161.53125 Z M 332.050781 161.53125 "/>
<path style="fill:none;stroke-width:1;stroke-linecap:round;stroke-linejoin:round;stroke:rgb(0%,0%,0%);stroke-opacity:1;stroke-miterlimit:10;" d="M 1045.356445 246.464844 L 1063.356445 246.464844 L 1063.356445 264.464844 L 1045.356445 264.464844 Z M 1045.356445 246.464844 " transform="matrix(1.333333,0,0,1.333333,-1096,-154.666667)"/>
<path style="fill:none;stroke-width:1;stroke-linecap:round;stroke-linejoin:round;stroke:rgb(0%,0%,0%);stroke-opacity:1;stroke-miterlimit:10;" d="M 1081.356445 228.464844 L 1099.356445 228.464844 L 1099.356445 246.464844 L 1081.356445 246.464844 Z M 1081.356445 228.464844 " transform="matrix(1.333333,0,0,1.333333,-1096,-154.666667)"/>
<path style=" stroke:none;fill-rule:nonzero;fill:rgb(0%,0%,0%);fill-opacity:1;" d="M 354.96875 163.488281 L 356.03125 163.34375 C 356.15625 163.941406 356.355469 164.375 356.636719 164.632812 C 356.925781 164.898438 357.285156 165.03125 357.71875 165.03125 C 358.203125 165.03125 358.613281 164.863281 358.949219 164.53125 C 359.292969 164.1875 359.46875 163.753906 359.46875 163.238281 C 359.46875 162.753906 359.308594 162.359375 358.988281 162.050781 C 358.683594 161.734375 358.285156 161.570312 357.800781 161.570312 C 357.59375 161.570312 357.34375 161.613281 357.050781 161.695312 L 357.175781 160.757812 C 357.246094 160.773438 357.300781 160.78125 357.34375 160.78125 C 357.785156 160.78125 358.1875 160.664062 358.550781 160.425781 C 358.910156 160.191406 359.09375 159.832031 359.09375 159.34375 C 359.09375 158.957031 358.957031 158.632812 358.699219 158.382812 C 358.433594 158.132812 358.09375 158.007812 357.675781 158.007812 C 357.269531 158.007812 356.933594 158.144531 356.65625 158.40625 C 356.390625 158.65625 356.21875 159.039062 356.136719 159.550781 L 355.074219 159.363281 C 355.207031 158.65625 355.5 158.109375 355.949219 157.71875 C 356.40625 157.332031 356.972656 157.132812 357.65625 157.132812 C 358.125 157.132812 358.558594 157.238281 358.949219 157.445312 C 359.347656 157.644531 359.65625 157.914062 359.863281 158.257812 C 360.074219 158.609375 360.175781 158.976562 360.175781 159.363281 C 360.175781 159.738281 360.074219 160.082031 359.863281 160.382812 C 359.667969 160.691406 359.375 160.9375 358.988281 161.113281 C 359.5 161.226562 359.894531 161.46875 360.175781 161.84375 C 360.453125 162.207031 360.59375 162.664062 360.59375 163.21875 C 360.59375 163.96875 360.3125 164.609375 359.761719 165.132812 C 359.21875 165.648438 358.53125 165.90625 357.699219 165.90625 C 356.949219 165.90625 356.324219 165.6875 355.824219 165.238281 C 355.324219 164.796875 355.035156 164.210938 354.96875 163.488281 Z M 354.96875 163.488281 "/>
<path style="fill:none;stroke-width:1;stroke-linecap:round;stroke-linejoin:round;stroke:rgb(0%,0%,0%);stroke-opacity:1;stroke-miterlimit:10;" d="M 1045.356445 228.464844 L 1063.356445 228.464844 L 1063.356445 246.464844 L 1045.356445 246.464844 Z M 1045.356445 228.464844 " transform="matrix(1.333333,0,0,1.333333,-1096,-154.666667)"/>
<path style="fill:none;stroke-width:1;stroke-linecap:round;stroke-linejoin:round;stroke:rgb(0%,0%,0%);stroke-opacity:1;stroke-miterlimit:10;" d="M 1081.356445 246.464844 L 1099.356445 246.464844 L 1099.356445 264.464844 L 1081.356445 264.464844 Z M 1081.356445 246.464844 " transform="matrix(1.333333,0,0,1.333333,-1096,-154.666667)"/>
<path style=" stroke:none;fill-rule:nonzero;fill:rgb(0%,0%,0%);fill-opacity:1;" d="M 355.136719 187.78125 L 356.136719 187.675781 C 356.21875 188.148438 356.375 188.5 356.613281 188.71875 C 356.863281 188.925781 357.183594 189.03125 357.574219 189.03125 C 357.890625 189.03125 358.167969 188.960938 358.40625 188.820312 C 358.65625 188.671875 358.855469 188.46875 359.011719 188.21875 C 359.175781 187.96875 359.308594 187.632812 359.40625 187.21875 C 359.515625 186.800781 359.574219 186.375 359.574219 185.925781 C 359.574219 185.882812 359.5625 185.816406 359.550781 185.71875 C 359.34375 186.050781 359.058594 186.320312 358.699219 186.53125 C 358.332031 186.738281 357.9375 186.84375 357.511719 186.84375 C 356.800781 186.84375 356.199219 186.585938 355.699219 186.070312 C 355.207031 185.5625 354.96875 184.878906 354.96875 184.03125 C 354.96875 183.15625 355.222656 182.457031 355.738281 181.925781 C 356.25 181.398438 356.894531 181.132812 357.675781 181.132812 C 358.230469 181.132812 358.738281 181.289062 359.199219 181.59375 C 359.65625 181.882812 360 182.3125 360.238281 182.863281 C 360.488281 183.421875 360.613281 184.226562 360.613281 185.28125 C 360.613281 186.378906 360.496094 187.253906 360.261719 187.90625 C 360.019531 188.5625 359.667969 189.0625 359.199219 189.40625 C 358.722656 189.738281 358.167969 189.90625 357.53125 189.90625 C 356.863281 189.90625 356.3125 189.71875 355.886719 189.34375 C 355.46875 188.96875 355.21875 188.445312 355.136719 187.78125 Z M 359.449219 183.988281 C 359.449219 183.378906 359.28125 182.898438 358.949219 182.550781 C 358.625 182.191406 358.246094 182.007812 357.800781 182.007812 C 357.328125 182.007812 356.917969 182.207031 356.574219 182.59375 C 356.222656 182.96875 356.050781 183.460938 356.050781 184.070312 C 356.050781 184.613281 356.207031 185.0625 356.53125 185.40625 C 356.863281 185.738281 357.269531 185.90625 357.761719 185.90625 C 358.261719 185.90625 358.660156 185.738281 358.96875 185.40625 C 359.285156 185.0625 359.449219 184.585938 359.449219 183.988281 Z M 359.449219 183.988281 "/>
<path style="fill:none;stroke-width:1;stroke-linecap:round;stroke-linejoin:round;stroke:rgb(0%,0%,0%);stroke-opacity:1;stroke-miterlimit:10;" d="M 1081.356445 210.464844 L 1099.356445 210.464844 L 1099.356445 228.464844 L 1081.356445 228.464844 Z M 1081.356445 210.464844 " transform="matrix(1.333333,0,0,1.333333,-1096,-154.666667)"/>
<path style="fill:none;stroke-width:1;stroke-linecap:round;stroke-linejoin:round;stroke:rgb(0%,0%,0%);stroke-opacity:1;stroke-miterlimit:10;" d="M 1045.356445 210.464844 L 1063.356445 210.464844 L 1063.356445 228.464844 L 1045.356445 228.464844 Z M 1045.356445 210.464844 " transform="matrix(1.333333,0,0,1.333333,-1096,-154.666667)"/>
<path style="fill:none;stroke-width:1;stroke-linecap:round;stroke-linejoin:round;stroke:rgb(0%,0%,0%);stroke-opacity:1;stroke-miterlimit:10;" d="M 1131.799805 245.799805 L 1149.799805 245.799805 L 1149.799805 263.799805 L 1131.799805 263.799805 Z M 1131.799805 245.799805 " transform="matrix(1.333333,0,0,1.333333,-1096,-154.666667)"/>
<path style=" stroke:none;fill-rule:nonzero;fill:rgb(0%,0%,0%);fill-opacity:1;" d="M 422.871094 188.871094 L 421.808594 188.871094 L 421.808594 182.140625 C 421.558594 182.390625 421.226562 182.640625 420.808594 182.890625 C 420.394531 183.128906 420.023438 183.300781 419.707031 183.410156 L 419.707031 182.390625 C 420.289062 182.128906 420.800781 181.800781 421.246094 181.410156 C 421.691406 181.011719 422.003906 180.621094 422.183594 180.246094 L 422.871094 180.246094 Z M 422.871094 188.871094 "/>
<path style=" stroke:none;fill-rule:nonzero;fill:rgb(0%,0%,0%);fill-opacity:1;" d="M 431.109375 187.847656 L 431.109375 188.871094 L 425.421875 188.871094 C 425.421875 188.621094 425.464844 188.378906 425.546875 188.140625 C 425.699219 187.753906 425.933594 187.371094 426.253906 186.996094 C 426.574219 186.621094 427.03125 186.191406 427.628906 185.703125 C 428.558594 184.925781 429.183594 184.316406 429.503906 183.871094 C 429.839844 183.425781 430.003906 183.003906 430.003906 182.597656 C 430.003906 182.183594 429.847656 181.839844 429.546875 181.558594 C 429.253906 181.265625 428.871094 181.121094 428.402344 181.121094 C 427.886719 181.121094 427.472656 181.277344 427.171875 181.578125 C 426.863281 181.886719 426.714844 182.308594 426.714844 182.847656 L 425.628906 182.722656 C 425.699219 181.921875 425.972656 181.308594 426.464844 180.890625 C 426.949219 180.464844 427.597656 180.246094 428.421875 180.246094 C 429.238281 180.246094 429.886719 180.472656 430.359375 180.933594 C 430.84375 181.390625 431.089844 181.953125 431.089844 182.621094 C 431.089844 182.96875 431.015625 183.308594 430.878906 183.640625 C 430.738281 183.972656 430.503906 184.328125 430.171875 184.703125 C 429.847656 185.066406 429.316406 185.566406 428.566406 186.203125 C 427.925781 186.734375 427.515625 187.09375 427.339844 187.285156 C 427.15625 187.484375 427.011719 187.671875 426.902344 187.847656 Z M 431.109375 187.847656 "/>
<path style="fill:none;stroke-width:1;stroke-linecap:round;stroke-linejoin:round;stroke:rgb(0%,0%,0%);stroke-opacity:1;stroke-miterlimit:10;" d="M 1131.799805 209.799805 L 1149.799805 209.799805 L 1149.799805 227.799805 L 1131.799805 227.799805 Z M 1131.799805 209.799805 " transform="matrix(1.333333,0,0,1.333333,-1096,-154.666667)"/>
<path style=" stroke:none;fill-rule:nonzero;fill:rgb(0%,0%,0%);fill-opacity:1;" d="M 422.230469 136.640625 C 422.230469 135.628906 422.332031 134.808594 422.542969 134.183594 C 422.75 133.558594 423.050781 133.078125 423.457031 132.746094 C 423.875 132.410156 424.394531 132.246094 425.019531 132.246094 C 425.488281 132.246094 425.902344 132.34375 426.25 132.535156 C 426.59375 132.71875 426.878906 132.984375 427.105469 133.328125 C 427.324219 133.675781 427.5 134.097656 427.625 134.597656 C 427.761719 135.097656 427.832031 135.78125 427.832031 136.640625 C 427.832031 137.640625 427.730469 138.453125 427.519531 139.078125 C 427.3125 139.691406 427 140.171875 426.582031 140.515625 C 426.175781 140.847656 425.65625 141.015625 425.019531 141.015625 C 424.199219 141.015625 423.550781 140.71875 423.082031 140.121094 C 422.511719 139.410156 422.230469 138.253906 422.230469 136.640625 Z M 423.3125 136.640625 C 423.3125 138.046875 423.46875 138.984375 423.792969 139.453125 C 424.125 139.910156 424.53125 140.140625 425.019531 140.140625 C 425.503906 140.140625 425.917969 139.910156 426.25 139.453125 C 426.582031 138.984375 426.75 138.046875 426.75 136.640625 C 426.75 135.222656 426.582031 134.285156 426.25 133.828125 C 425.917969 133.359375 425.503906 133.121094 425.019531 133.121094 C 424.53125 133.121094 424.144531 133.324219 423.855469 133.722656 C 423.488281 134.253906 423.3125 135.222656 423.3125 136.640625 Z M 423.3125 136.640625 "/>
<path style="fill:none;stroke-width:1;stroke-linecap:round;stroke-linejoin:round;stroke:rgb(0%,0%,0%);stroke-opacity:1;stroke-miterlimit:10;" d="M 1131.799805 227.799805 L 1149.799805 227.799805 L 1149.799805 245.799805 L 1131.799805 245.799805 Z M 1131.799805 227.799805 " transform="matrix(1.333333,0,0,1.333333,-1096,-154.666667)"/>
<path style=" stroke:none;fill-rule:nonzero;fill:rgb(0%,0%,0%);fill-opacity:1;" d="M 425.605469 164.871094 L 425.605469 162.808594 L 421.875 162.808594 L 421.875 161.847656 L 425.792969 156.285156 L 426.667969 156.285156 L 426.667969 161.847656 L 427.832031 161.847656 L 427.832031 162.808594 L 426.667969 162.808594 L 426.667969 164.871094 Z M 425.605469 161.847656 L 425.605469 157.972656 L 422.917969 161.847656 Z M 425.605469 161.847656 "/>
<path style="fill:none;stroke-width:1;stroke-linecap:round;stroke-linejoin:round;stroke:rgb(0%,0%,0%);stroke-opacity:1;stroke-miterlimit:10;" d="M 1113.799805 245.799805 L 1131.799805 245.799805 L 1131.799805 263.799805 L 1113.799805 263.799805 Z M 1113.799805 245.799805 " transform="matrix(1.333333,0,0,1.333333,-1096,-154.666667)"/>
<path style=" stroke:none;fill-rule:nonzero;fill:rgb(0%,0%,0%);fill-opacity:1;" d="M 401.605469 188.871094 L 401.605469 186.808594 L 397.875 186.808594 L 397.875 185.847656 L 401.792969 180.285156 L 402.667969 180.285156 L 402.667969 185.847656 L 403.832031 185.847656 L 403.832031 186.808594 L 402.667969 186.808594 L 402.667969 188.871094 Z M 401.605469 185.847656 L 401.605469 181.972656 L 398.917969 185.847656 Z M 401.605469 185.847656 "/>
<path style="fill:none;stroke-width:1;stroke-linecap:round;stroke-linejoin:round;stroke:rgb(0%,0%,0%);stroke-opacity:1;stroke-miterlimit:10;" d="M 1149.799805 227.799805 L 1167.799805 227.799805 L 1167.799805 245.799805 L 1149.799805 245.799805 Z M 1149.799805 227.799805 " transform="matrix(1.333333,0,0,1.333333,-1096,-154.666667)"/>
<path style=" stroke:none;fill-rule:nonzero;fill:rgb(0%,0%,0%);fill-opacity:1;" d="M 451.707031 158.390625 L 450.644531 158.472656 C 450.5625 158.058594 450.425781 157.753906 450.25 157.558594 C 449.96875 157.265625 449.625 157.121094 449.207031 157.121094 C 448.859375 157.121094 448.5625 157.214844 448.3125 157.390625 C 447.980469 157.640625 447.714844 157.996094 447.519531 158.453125 C 447.339844 158.910156 447.238281 159.574219 447.230469 160.433594 C 447.480469 160.058594 447.78125 159.78125 448.144531 159.597656 C 448.519531 159.40625 448.90625 159.308594 449.3125 159.308594 C 450.019531 159.308594 450.613281 159.566406 451.105469 160.078125 C 451.605469 160.59375 451.855469 161.261719 451.855469 162.078125 C 451.855469 162.621094 451.734375 163.128906 451.5 163.597656 C 451.261719 164.058594 450.941406 164.410156 450.542969 164.660156 C 450.136719 164.894531 449.675781 165.015625 449.167969 165.015625 C 448.292969 165.015625 447.574219 164.699219 447.019531 164.058594 C 446.464844 163.40625 446.1875 162.339844 446.1875 160.847656 C 446.1875 159.199219 446.488281 157.988281 447.105469 157.222656 C 447.628906 156.574219 448.355469 156.246094 449.269531 156.246094 C 449.9375 156.246094 450.484375 156.441406 450.917969 156.828125 C 451.34375 157.203125 451.609375 157.722656 451.707031 158.390625 Z M 447.394531 162.078125 C 447.394531 162.453125 447.46875 162.808594 447.625 163.140625 C 447.777344 163.464844 447.988281 163.714844 448.269531 163.890625 C 448.546875 164.058594 448.839844 164.140625 449.144531 164.140625 C 449.589844 164.140625 449.96875 163.96875 450.292969 163.621094 C 450.609375 163.261719 450.769531 162.765625 450.769531 162.140625 C 450.769531 161.546875 450.609375 161.078125 450.292969 160.746094 C 449.984375 160.402344 449.589844 160.222656 449.105469 160.222656 C 448.628906 160.222656 448.230469 160.402344 447.894531 160.746094 C 447.5625 161.078125 447.394531 161.527344 447.394531 162.078125 Z M 447.394531 162.078125 "/>
<path style="fill:none;stroke-width:1;stroke-linecap:round;stroke-linejoin:round;stroke:rgb(0%,0%,0%);stroke-opacity:1;stroke-miterlimit:10;" d="M 1113.799805 227.799805 L 1131.799805 227.799805 L 1131.799805 245.799805 L 1113.799805 245.799805 Z M 1113.799805 227.799805 " transform="matrix(1.333333,0,0,1.333333,-1096,-154.666667)"/>
<path style=" stroke:none;fill-rule:nonzero;fill:rgb(0%,0%,0%);fill-opacity:1;" d="M 398.230469 160.640625 C 398.230469 159.628906 398.332031 158.808594 398.542969 158.183594 C 398.75 157.558594 399.050781 157.078125 399.457031 156.746094 C 399.875 156.410156 400.394531 156.246094 401.019531 156.246094 C 401.488281 156.246094 401.902344 156.34375 402.25 156.535156 C 402.59375 156.71875 402.878906 156.984375 403.105469 157.328125 C 403.324219 157.675781 403.5 158.097656 403.625 158.597656 C 403.761719 159.097656 403.832031 159.78125 403.832031 160.640625 C 403.832031 161.640625 403.730469 162.453125 403.519531 163.078125 C 403.3125 163.691406 403 164.171875 402.582031 164.515625 C 402.175781 164.847656 401.65625 165.015625 401.019531 165.015625 C 400.199219 165.015625 399.550781 164.71875 399.082031 164.121094 C 398.511719 163.410156 398.230469 162.253906 398.230469 160.640625 Z M 399.3125 160.640625 C 399.3125 162.046875 399.46875 162.984375 399.792969 163.453125 C 400.125 163.910156 400.53125 164.140625 401.019531 164.140625 C 401.503906 164.140625 401.917969 163.910156 402.25 163.453125 C 402.582031 162.984375 402.75 162.046875 402.75 160.640625 C 402.75 159.222656 402.582031 158.285156 402.25 157.828125 C 401.917969 157.359375 401.503906 157.121094 401.019531 157.121094 C 400.53125 157.121094 400.144531 157.324219 399.855469 157.722656 C 399.488281 158.253906 399.3125 159.222656 399.3125 160.640625 Z M 399.3125 160.640625 "/>
<path style="fill:none;stroke-width:1;stroke-linecap:round;stroke-linejoin:round;stroke:rgb(0%,0%,0%);stroke-opacity:1;stroke-miterlimit:10;" d="M 1149.799805 245.799805 L 1167.799805 245.799805 L 1167.799805 263.799805 L 1149.799805 263.799805 Z M 1149.799805 245.799805 " transform="matrix(1.333333,0,0,1.333333,-1096,-154.666667)"/>
<path style=" stroke:none;fill-rule:nonzero;fill:rgb(0%,0%,0%);fill-opacity:1;" d="M 446.394531 186.890625 L 447.394531 186.785156 C 447.480469 187.261719 447.636719 187.609375 447.875 187.828125 C 448.125 188.035156 448.441406 188.140625 448.832031 188.140625 C 449.152344 188.140625 449.425781 188.074219 449.667969 187.933594 C 449.917969 187.78125 450.113281 187.578125 450.269531 187.328125 C 450.4375 187.078125 450.566406 186.746094 450.667969 186.328125 C 450.777344 185.910156 450.832031 185.484375 450.832031 185.035156 C 450.832031 184.996094 450.824219 184.925781 450.8125 184.828125 C 450.605469 185.160156 450.316406 185.433594 449.957031 185.640625 C 449.59375 185.847656 449.199219 185.953125 448.769531 185.953125 C 448.0625 185.953125 447.457031 185.699219 446.957031 185.183594 C 446.46875 184.671875 446.230469 183.988281 446.230469 183.140625 C 446.230469 182.265625 446.484375 181.566406 447 181.035156 C 447.511719 180.511719 448.15625 180.246094 448.9375 180.246094 C 449.488281 180.246094 450 180.402344 450.457031 180.703125 C 450.917969 180.996094 451.261719 181.421875 451.5 181.972656 C 451.75 182.53125 451.875 183.339844 451.875 184.390625 C 451.875 185.488281 451.753906 186.363281 451.519531 187.015625 C 451.28125 187.671875 450.925781 188.171875 450.457031 188.515625 C 449.984375 188.847656 449.425781 189.015625 448.792969 189.015625 C 448.125 189.015625 447.574219 188.828125 447.144531 188.453125 C 446.730469 188.078125 446.480469 187.558594 446.394531 186.890625 Z M 450.707031 183.097656 C 450.707031 182.488281 450.542969 182.011719 450.207031 181.660156 C 449.886719 181.300781 449.503906 181.121094 449.0625 181.121094 C 448.589844 181.121094 448.175781 181.316406 447.832031 181.703125 C 447.484375 182.078125 447.3125 182.574219 447.3125 183.183594 C 447.3125 183.722656 447.46875 184.171875 447.792969 184.515625 C 448.125 184.847656 448.53125 185.015625 449.019531 185.015625 C 449.519531 185.015625 449.921875 184.847656 450.230469 184.515625 C 450.546875 184.171875 450.707031 183.699219 450.707031 183.097656 Z M 450.707031 183.097656 "/>
<path style="fill:none;stroke-width:1;stroke-linecap:round;stroke-linejoin:round;stroke:rgb(0%,0%,0%);stroke-opacity:1;stroke-miterlimit:10;" d="M 1149.799805 209.799805 L 1167.799805 209.799805 L 1167.799805 227.799805 L 1149.799805 227.799805 Z M 1149.799805 209.799805 " transform="matrix(1.333333,0,0,1.333333,-1096,-154.666667)"/>
<path style=" stroke:none;fill-rule:nonzero;fill:rgb(0%,0%,0%);fill-opacity:1;" d="M 450.207031 140.871094 L 449.144531 140.871094 L 449.144531 134.140625 C 448.894531 134.390625 448.5625 134.640625 448.144531 134.890625 C 447.730469 135.128906 447.359375 135.300781 447.042969 135.410156 L 447.042969 134.390625 C 447.625 134.128906 448.136719 133.800781 448.582031 133.410156 C 449.027344 133.011719 449.339844 132.621094 449.519531 132.246094 L 450.207031 132.246094 Z M 450.207031 140.871094 "/>
<path style="fill:none;stroke-width:1;stroke-linecap:round;stroke-linejoin:round;stroke:rgb(0%,0%,0%);stroke-opacity:1;stroke-miterlimit:10;" d="M 1113.799805 209.799805 L 1131.799805 209.799805 L 1131.799805 227.799805 L 1113.799805 227.799805 Z M 1113.799805 209.799805 " transform="matrix(1.333333,0,0,1.333333,-1096,-154.666667)"/>
<path style=" stroke:none;fill-rule:nonzero;fill:rgb(0%,0%,0%);fill-opacity:1;" d="M 398.230469 136.640625 C 398.230469 135.628906 398.332031 134.808594 398.542969 134.183594 C 398.75 133.558594 399.050781 133.078125 399.457031 132.746094 C 399.875 132.410156 400.394531 132.246094 401.019531 132.246094 C 401.488281 132.246094 401.902344 132.34375 402.25 132.535156 C 402.59375 132.71875 402.878906 132.984375 403.105469 133.328125 C 403.324219 133.675781 403.5 134.097656 403.625 134.597656 C 403.761719 135.097656 403.832031 135.78125 403.832031 136.640625 C 403.832031 137.640625 403.730469 138.453125 403.519531 139.078125 C 403.3125 139.691406 403 140.171875 402.582031 140.515625 C 402.175781 140.847656 401.65625 141.015625 401.019531 141.015625 C 400.199219 141.015625 399.550781 140.71875 399.082031 140.121094 C 398.511719 139.410156 398.230469 138.253906 398.230469 136.640625 Z M 399.3125 136.640625 C 399.3125 138.046875 399.46875 138.984375 399.792969 139.453125 C 400.125 139.910156 400.53125 140.140625 401.019531 140.140625 C 401.503906 140.140625 401.917969 139.910156 402.25 139.453125 C 402.582031 138.984375 402.75 138.046875 402.75 136.640625 C 402.75 135.222656 402.582031 134.285156 402.25 133.828125 C 401.917969 133.359375 401.503906 133.121094 401.019531 133.121094 C 400.53125 133.121094 400.144531 133.324219 399.855469 133.722656 C 399.488281 134.253906 399.3125 135.222656 399.3125 136.640625 Z M 399.3125 136.640625 "/>
<path style=" stroke:none;fill-rule:nonzero;fill:rgb(0%,0%,0%);fill-opacity:1;" d="M 104.214844 163.894531 L 104.214844 161.539062 L 101.882812 161.539062 L 101.882812 160.558594 L 104.214844 160.558594 L 104.214844 158.226562 L 105.214844 158.226562 L 105.214844 160.558594 L 107.550781 160.558594 L 107.550781 161.539062 L 105.214844 161.539062 L 105.214844 163.894531 Z M 104.214844 163.894531 "/>
<path style=" stroke:none;fill-rule:nonzero;fill:rgb(0%,0%,0%);fill-opacity:1;" d="M 195.894531 163.003906 L 195.894531 160.648438 L 193.5625 160.648438 L 193.5625 159.671875 L 195.894531 159.671875 L 195.894531 157.335938 L 196.894531 157.335938 L 196.894531 159.671875 L 199.230469 159.671875 L 199.230469 160.648438 L 196.894531 160.648438 L 196.894531 163.003906 Z M 195.894531 163.003906 "/>
<path style=" stroke:none;fill-rule:nonzero;fill:rgb(0%,0%,0%);fill-opacity:1;" d="M 287.132812 163.003906 L 287.132812 160.648438 L 284.796875 160.648438 L 284.796875 159.671875 L 287.132812 159.671875 L 287.132812 157.335938 L 288.132812 157.335938 L 288.132812 159.671875 L 290.464844 159.671875 L 290.464844 160.648438 L 288.132812 160.648438 L 288.132812 163.003906 Z M 287.132812 163.003906 "/>
<path style=" stroke:none;fill-rule:nonzero;fill:rgb(0%,0%,0%);fill-opacity:1;" d="M 382.601562 159.023438 L 376.933594 159.023438 L 376.933594 158.023438 L 382.601562 158.023438 Z M 382.601562 161.628906 L 376.933594 161.628906 L 376.933594 160.628906 L 382.601562 160.628906 Z M 382.601562 161.628906 "/>
<path style="fill:none;stroke-width:1;stroke-linecap:round;stroke-linejoin:round;stroke:rgb(0%,0%,0%);stroke-opacity:1;stroke-miterlimit:10;" d="M 973.350586 145.000977 L 1033.350586 145.000977 L 1033.350586 179.999023 L 973.350586 179.999023 Z M 973.350586 145.000977 " transform="matrix(1.333333,0,0,1.333333,-1096,-154.666667)"/>
<path style=" stroke:none;fill-rule:nonzero;fill:rgb(0%,0%,0%);fill-opacity:1;" d="M 220.695312 60.167969 L 220.695312 61.980469 L 219.382812 61.980469 C 219.714844 61.207031 220.027344 60.3125 220.320312 59.269531 L 222.820312 59.269531 L 222.820312 58.4375 L 220.527344 58.4375 C 220.652344 57.957031 220.757812 57.480469 220.863281 56.957031 L 220.050781 56.832031 C 219.925781 57.394531 219.820312 57.9375 219.695312 58.4375 L 218.277344 58.4375 L 218.277344 59.269531 L 219.488281 59.269531 C 219.175781 60.375 218.863281 61.269531 218.507812 62 L 218.695312 62.769531 L 220.695312 62.769531 L 220.695312 64.5625 C 219.945312 64.707031 219.132812 64.8125 218.257812 64.917969 L 218.382812 65.769531 C 219.195312 65.667969 219.964844 65.542969 220.695312 65.417969 L 220.695312 67.855469 L 221.527344 67.855469 L 221.527344 65.25 C 222.113281 65.125 222.652344 64.980469 223.195312 64.832031 L 223.195312 64.019531 C 222.675781 64.167969 222.113281 64.292969 221.527344 64.417969 L 221.527344 62.769531 L 222.863281 62.769531 L 222.863281 61.980469 L 221.527344 61.980469 L 221.527344 60.167969 Z M 223.363281 58.4375 L 223.363281 59.269531 L 225.089844 59.269531 C 224.988281 59.730469 224.882812 60.1875 224.777344 60.644531 L 223.027344 60.644531 L 223.027344 61.480469 L 224.570312 61.480469 C 224.363281 62.269531 224.132812 63.019531 223.902344 63.769531 L 227.925781 63.769531 C 227.488281 64.480469 226.925781 65.125 226.214844 65.769531 C 225.652344 65.457031 225.070312 65.144531 224.445312 64.894531 L 223.988281 65.582031 C 225.320312 66.125 226.589844 66.894531 227.839844 67.855469 L 228.320312 67.125 C 227.882812 66.792969 227.402344 66.480469 226.925781 66.167969 C 227.777344 65.355469 228.402344 64.542969 228.800781 63.730469 L 228.800781 63 L 224.964844 63 C 225.132812 62.542969 225.277344 62.042969 225.425781 61.480469 L 229.339844 61.480469 L 229.339844 60.644531 L 225.632812 60.644531 L 225.945312 59.269531 L 229.027344 59.269531 L 229.027344 58.4375 L 226.113281 58.4375 C 226.214844 57.9375 226.300781 57.417969 226.382812 56.894531 L 225.550781 56.8125 C 225.445312 57.375 225.339844 57.917969 225.257812 58.4375 Z M 223.363281 58.4375 "/>
<path style=" stroke:none;fill-rule:nonzero;fill:rgb(0%,0%,0%);fill-opacity:1;" d="M 230.652344 60.25 L 230.652344 60.917969 L 235.214844 60.917969 C 235.175781 61.144531 235.132812 61.375 235.089844 61.605469 L 232.175781 61.605469 L 232.175781 66.894531 L 230.445312 66.894531 L 230.445312 67.582031 L 241.175781 67.582031 L 241.175781 66.894531 L 239.445312 66.894531 L 239.445312 61.605469 L 235.945312 61.605469 C 236.007812 61.394531 236.050781 61.167969 236.089844 60.917969 L 240.964844 60.917969 L 240.964844 60.25 L 236.175781 60.25 L 236.257812 59.5625 L 240.152344 59.5625 L 240.152344 57.3125 L 231.445312 57.3125 L 231.445312 59.5625 L 235.382812 59.5625 L 235.320312 60.25 Z M 233.007812 66.894531 L 233.007812 66.105469 L 238.589844 66.105469 L 238.589844 66.894531 Z M 233.007812 65.5625 L 233.007812 64.8125 L 238.589844 64.8125 L 238.589844 65.5625 Z M 233.007812 64.25 L 233.007812 63.5 L 238.589844 63.5 L 238.589844 64.25 Z M 233.007812 62.957031 L 233.007812 62.207031 L 238.589844 62.207031 L 238.589844 62.957031 Z M 239.320312 58.957031 L 237.550781 58.957031 L 237.550781 57.957031 L 239.320312 57.957031 Z M 236.757812 58.957031 L 234.839844 58.957031 L 234.839844 57.957031 L 236.757812 57.957031 Z M 234.070312 58.957031 L 232.277344 58.957031 L 232.277344 57.957031 L 234.070312 57.957031 Z M 234.070312 58.957031 "/>
<path style=" stroke:none;fill-rule:nonzero;fill:rgb(0%,0%,0%);fill-opacity:1;" d="M 244.945312 57.019531 L 244.175781 57.292969 C 244.527344 57.769531 244.863281 58.332031 245.175781 58.957031 L 245.902344 58.625 C 245.632812 58.0625 245.320312 57.542969 244.945312 57.019531 Z M 250.839844 57.019531 C 250.550781 57.625 250.195312 58.144531 249.738281 58.582031 L 250.425781 58.980469 C 250.902344 58.5 251.300781 57.9375 251.613281 57.3125 Z M 243.339844 59.042969 L 243.339844 59.832031 L 246.820312 59.832031 C 246.632812 60.25 246.382812 60.667969 246.113281 61.042969 L 242.652344 61.042969 L 242.652344 61.832031 L 245.507812 61.832031 C 244.675781 62.769531 243.613281 63.542969 242.320312 64.105469 L 242.800781 64.855469 C 243.589844 64.480469 244.320312 64.019531 244.964844 63.5 L 244.964844 66.769531 C 244.964844 67.394531 245.320312 67.707031 246.050781 67.707031 L 250.488281 67.707031 C 251.132812 67.707031 251.550781 67.605469 251.800781 67.4375 C 252.050781 67.207031 252.214844 66.625 252.320312 65.6875 L 251.464844 65.417969 C 251.402344 66.019531 251.300781 66.417969 251.175781 66.644531 C 251.070312 66.8125 250.757812 66.917969 250.257812 66.917969 L 246.402344 66.917969 C 246.027344 66.917969 245.839844 66.769531 245.839844 66.5 L 245.839844 63.792969 L 249.695312 63.792969 L 249.695312 64.6875 C 249.695312 64.9375 249.527344 65.0625 249.214844 65.0625 C 248.714844 65.0625 248.175781 65.042969 247.570312 65.019531 L 247.757812 65.769531 C 248.339844 65.792969 248.925781 65.8125 249.550781 65.8125 C 250.195312 65.769531 250.527344 65.480469 250.550781 64.917969 L 250.550781 63.292969 C 251.152344 63.792969 251.882812 64.269531 252.738281 64.730469 L 253.300781 64.019531 C 251.839844 63.375 250.757812 62.667969 250.113281 61.832031 L 252.945312 61.832031 L 252.945312 61.042969 L 247.113281 61.042969 C 247.339844 60.667969 247.527344 60.25 247.738281 59.832031 L 252.277344 59.832031 L 252.277344 59.042969 L 248.027344 59.042969 C 248.238281 58.394531 248.425781 57.6875 248.550781 56.9375 L 247.695312 56.832031 C 247.570312 57.625 247.382812 58.355469 247.152344 59.042969 Z M 246.570312 61.832031 L 249.238281 61.832031 C 249.507812 62.25 249.839844 62.644531 250.257812 63.019531 L 245.507812 63.019531 C 245.882812 62.667969 246.238281 62.269531 246.570312 61.832031 Z M 246.570312 61.832031 "/>
<path style=" stroke:none;fill-rule:nonzero;fill:rgb(0%,0%,0%);fill-opacity:1;" d="M 254.714844 58.707031 C 255.300781 58.644531 255.839844 58.542969 256.363281 58.4375 L 256.363281 60.144531 L 254.589844 60.144531 L 254.589844 60.980469 L 256.320312 60.980469 C 255.902344 62.375 255.195312 63.605469 254.238281 64.6875 L 254.589844 65.582031 C 255.320312 64.644531 255.902344 63.5625 256.363281 62.394531 L 256.363281 67.8125 L 257.175781 67.8125 L 257.175781 62.332031 C 257.527344 62.8125 257.945312 63.480469 258.445312 64.3125 L 258.925781 63.605469 C 258.320312 62.855469 257.757812 62.1875 257.175781 61.582031 L 257.175781 60.980469 L 258.652344 60.980469 L 258.652344 60.144531 L 257.175781 60.144531 L 257.175781 58.25 C 257.675781 58.125 258.152344 58 258.589844 57.832031 L 258.277344 57.019531 C 257.214844 57.457031 255.964844 57.730469 254.550781 57.875 Z M 259.363281 57.582031 L 259.363281 63.167969 L 264.550781 63.167969 L 264.550781 57.582031 Z M 263.695312 62.355469 L 260.238281 62.355469 L 260.238281 58.417969 L 263.695312 58.417969 Z M 260.402344 63.9375 C 259.863281 65.269531 259.195312 66.417969 258.425781 67.375 L 259.152344 67.894531 C 259.925781 66.875 260.613281 65.6875 261.175781 64.3125 Z M 263.339844 63.875 L 262.652344 64.3125 C 263.488281 65.605469 264.175781 66.792969 264.675781 67.875 L 265.402344 67.355469 C 264.925781 66.375 264.238281 65.207031 263.339844 63.875 Z M 263.339844 63.875 "/>
</g>
</svg>
